<svg xmlns="http://www.w3.org/2000/svg" xmlns:xlink="http://www.w3.org/1999/xlink" width="736" zoomAndPan="magnify" viewBox="0 0 552 285.749983" height="381" preserveAspectRatio="xMidYMid meet" version="1.2"><defs><clipPath id="48c7cd7819"><path d="M 0.242188 0 L 551.757812 0 L 551.757812 285.5 L 0.242188 285.5 Z M 0.242188 0 "/></clipPath><filter x="0%" y="0%" width="100%" filterUnits="objectBoundingBox" id="c69cb9de2f" height="100%"><feColorMatrix values="0 0 0 0 1 0 0 0 0 1 0 0 0 0 1 0 0 0 1 0" type="matrix" in="SourceGraphic"/></filter><clipPath id="532a331681"><path d="M 22.214844 48.53125 L 529 48.53125 L 529 236.617188 L 22.214844 236.617188 Z M 22.214844 48.53125 "/></clipPath><clipPath id="787d1d2251"><rect x="0" width="552" y="0" height="286"/></clipPath></defs><g id="19d68616f6"><g clip-rule="nonzero" clip-path="url(#48c7cd7819)"><path style=" stroke:none;fill-rule:nonzero;fill:#ffffff;fill-opacity:1;" d="M 0.242188 0 L 551.757812 0 L 551.757812 285.5 L 0.242188 285.5 Z M 0.242188 0 "/><path style=" stroke:none;fill-rule:nonzero;fill:#ffffff;fill-opacity:1;" d="M 0.242188 0 L 551.757812 0 L 551.757812 285.5 L 0.242188 285.5 Z M 0.242188 0 "/><g mask="url(#4f6db6f31e)" transform="matrix(1,0,0,1,0,0.000000000000024813)"><g clip-path="url(#787d1d2251)"><g clip-rule="nonzero" clip-path="url(#532a331681)"><path style=" stroke:none;fill-rule:evenodd;fill:#000000;fill-opacity:1;" d="M 328.605469 231.214844 C 328.300781 230.871094 327.972656 230.417969 327.453125 230.632812 C 326.890625 230.867188 326.1875 231.414062 325.785156 231.847656 C 325.523438 232.128906 325.355469 232.761719 325.027344 232.960938 C 324.648438 233.1875 324.03125 233.144531 323.609375 233.316406 C 322.652344 233.699219 321.324219 234.652344 321.484375 235.792969 C 321.605469 236.621094 323.53125 235.707031 323.863281 235.539062 C 324.945312 235 325.851562 234.167969 326.949219 233.667969 C 327.265625 233.527344 328.097656 233.261719 328.214844 232.910156 C 328.367188 232.441406 327.960938 232 327.960938 231.542969 Z M 330.0625 228.515625 C 329.917969 227.851562 330.152344 227.195312 330.84375 226.941406 C 331.078125 226.855469 331.566406 226.929688 331.753906 226.738281 C 331.847656 226.648438 331.703125 225.980469 331.703125 225.878906 C 331.703125 225.234375 331.777344 224.539062 331.90625 223.90625 C 332.105469 222.914062 333.179688 222.363281 333.675781 221.582031 C 333.914062 221.203125 333.9375 220.753906 334.128906 220.367188 C 335.296875 218.035156 337.570312 218.761719 339.492188 218.039062 C 340.105469 217.808594 340.171875 217.351562 340.65625 217.027344 C 341.792969 216.269531 343.1875 214.738281 344.550781 214.398438 C 344.824219 214.332031 345.453125 214.679688 345.714844 214.753906 C 346.578125 215 347.339844 215.210938 348.140625 215.613281 C 348.757812 215.921875 349.960938 216.589844 350.316406 217.179688 C 351.429688 219.035156 350.4375 219.859375 348.949219 221.074219 C 348.132812 221.742188 347.386719 222.523438 346.574219 223.199219 C 345.519531 224.078125 344.308594 224.96875 343.386719 225.980469 C 343.027344 226.375 342.292969 227.410156 341.820312 227.601562 C 340.769531 228.019531 339.367188 227.71875 338.378906 228.410156 C 336.730469 229.5625 334.113281 231.636719 331.90625 230.535156 C 331.5 230.332031 331.089844 229.71875 330.742188 229.371094 Z M 328.519531 227.074219 C 328.292969 227.035156 327.878906 226.898438 327.65625 227.09375 C 327.144531 227.550781 326.636719 228.308594 326.929688 229.042969 C 327.234375 229.804688 328.195312 229.195312 328.464844 228.761719 C 328.691406 228.402344 328.527344 227.484375 328.71875 227.296875 Z M 280.484375 221.351562 C 279.867188 220.417969 279.296875 218.625 280.707031 218.082031 C 281.136719 217.917969 281.8125 218.039062 282.1875 217.851562 C 282.433594 217.730469 282.570312 217.429688 282.835938 217.296875 C 283.652344 216.886719 284.429688 216.824219 285.332031 216.972656 C 286.144531 217.109375 286.261719 218.636719 287.410156 218.40625 C 288.554688 218.179688 289.773438 217.46875 290.96875 217.667969 C 291.488281 217.753906 291.957031 218.03125 292.492188 218.082031 C 292.789062 218.113281 293.246094 217.925781 293.511719 218.082031 C 294.140625 218.460938 294.472656 219.371094 295.035156 219.746094 C 295.839844 220.285156 296.789062 220.472656 297.625 220.949219 C 298.132812 221.242188 298.507812 221.785156 298.917969 222.195312 C 299.796875 223.074219 300.804688 223.984375 301.367188 225.109375 C 301.609375 225.597656 302.121094 226.21875 301.921875 226.816406 C 301.65625 227.613281 300.714844 227.890625 300.027344 228.203125 C 299.515625 228.4375 298.914062 228.519531 298.363281 228.574219 C 297.5 228.660156 296.414062 228.683594 295.542969 228.574219 C 293.25 228.289062 292.007812 226.152344 290.414062 224.785156 C 290.089844 224.507812 289.929688 224.046875 289.582031 223.8125 C 288.605469 223.164062 287.101562 223.738281 286.023438 223.582031 C 285.253906 223.472656 284.597656 223.058594 283.851562 222.9375 C 283.351562 222.851562 282.636719 223.113281 282.1875 222.84375 C 281.660156 222.527344 281.3125 221.875 280.753906 221.597656 Z M 256.5 213.28125 C 255.429688 212.136719 255.328125 209.957031 256.835938 209.203125 C 257.25 208.996094 257.925781 209.53125 258.191406 209.316406 C 258.40625 209.148438 258.40625 208.644531 258.570312 208.414062 C 258.816406 208.058594 259.28125 207.867188 259.660156 207.699219 C 260.800781 207.191406 261.976562 207.347656 263.121094 207.511719 C 264.179688 207.660156 265.203125 207.507812 266.171875 208.039062 C 267.085938 208.535156 267.886719 209.714844 268.917969 209.917969 C 269.851562 210.105469 270.953125 209.742188 271.855469 209.503906 C 272.226562 209.40625 272.839844 209.460938 273.171875 209.242188 C 273.8125 208.8125 272.300781 208.238281 272.042969 208.148438 C 271.554688 207.980469 271.074219 207.914062 270.574219 207.8125 C 269.847656 207.660156 269.445312 207.324219 268.878906 206.90625 C 268.144531 206.371094 266.632812 205.8125 267.527344 204.613281 C 267.84375 204.183594 268.722656 204.132812 269.183594 204.085938 C 270.007812 204 271.292969 203.878906 272.078125 204.273438 C 273.054688 204.761719 273.488281 205.503906 274.675781 205.589844 C 275.941406 205.679688 277.152344 204.734375 278.441406 204.949219 C 279.378906 205.105469 279.648438 206.082031 280.320312 206.53125 C 280.753906 206.820312 281.363281 206.917969 281.753906 206.53125 C 281.878906 206.402344 282.046875 206.089844 282.242188 206.042969 C 282.75 205.914062 283.296875 206.265625 283.445312 206.757812 C 283.589844 207.234375 283.480469 207.738281 283.519531 208.226562 C 283.585938 209 284.199219 210.441406 283.746094 211.199219 C 283.558594 211.511719 283.132812 211.542969 282.84375 211.6875 C 281.519531 212.351562 280.046875 212.871094 278.554688 213.003906 C 277.257812 213.121094 275.863281 212.285156 274.601562 212.515625 C 273.882812 212.648438 273.476562 213.570312 272.757812 213.832031 C 271.265625 214.375 269.78125 213.980469 268.277344 214.097656 C 267.957031 214.121094 267.742188 214.3125 267.449219 214.398438 C 266.84375 214.570312 266.183594 214.566406 265.570312 214.8125 C 265.226562 214.949219 264.886719 215.226562 264.550781 215.339844 C 264.195312 215.457031 263.769531 215.375 263.386719 215.414062 C 262.816406 215.472656 262.265625 215.652344 261.691406 215.675781 C 260.714844 215.722656 260.035156 215.523438 259.171875 215.261719 C 258.886719 215.179688 258.582031 215.199219 258.34375 215 C 257.921875 214.648438 257.5 214.230469 257.101562 213.832031 C 256.9375 213.671875 256.835938 213.433594 256.574219 213.53125 Z M 444.476562 144.28125 C 444.558594 144.21875 444.867188 144.214844 444.929688 144.195312 C 445.308594 144.070312 447.007812 143.589844 446.816406 143.015625 C 446.230469 141.253906 445.1875 141.246094 443.691406 140.125 C 443.351562 139.871094 443.472656 139.4375 443.222656 139.183594 C 442.566406 138.53125 441.8125 138.125 440.980469 137.710938 C 440.226562 137.332031 440.011719 136.574219 439.035156 136.414062 C 437.339844 136.128906 435.945312 136.894531 434.433594 137.0625 C 431.992188 137.332031 429.527344 137.6875 427.300781 136.351562 C 426.265625 135.730469 426.714844 135.011719 426.417969 134.113281 C 425.941406 132.691406 426.863281 131.054688 426.179688 129.691406 C 425.972656 129.273438 425.566406 129.074219 425.238281 128.746094 C 425.023438 128.535156 424.871094 128.238281 424.589844 128.097656 C 423.308594 127.460938 420.816406 128.664062 419.578125 129.160156 C 419.050781 129.371094 418.007812 130.113281 417.394531 129.808594 C 415.757812 128.988281 418.375 126.910156 419.046875 126.386719 C 419.296875 126.195312 419.507812 126.058594 419.695312 125.796875 C 420.582031 124.558594 419.414062 123.09375 420.167969 121.964844 C 421.242188 120.351562 424.214844 120.519531 425.886719 119.960938 C 428.152344 119.207031 430.367188 117.195312 432.785156 116.953125 C 434.820312 116.75 437.441406 118.425781 439.210938 119.253906 C 440.625 119.914062 442.4375 120 443.929688 120.375 C 445.824219 120.847656 448.691406 119.949219 450.238281 121.496094 C 451.671875 122.929688 450.84375 125.078125 451.417969 126.800781 C 451.773438 127.871094 453.152344 128.34375 453.539062 129.511719 C 454.175781 131.425781 452.078125 132.800781 452.300781 134.820312 C 452.433594 136.015625 452.894531 137.128906 453.1875 138.300781 C 453.429688 139.273438 453.199219 140.417969 453.421875 141.425781 C 453.554688 142.027344 453.929688 142.527344 454.070312 143.132812 C 454.164062 143.535156 454.242188 143.945312 454.304688 144.355469 C 454.804688 144.398438 455.25 144.382812 455.515625 144.191406 C 455.878906 143.933594 456.371094 143.597656 456.542969 143.164062 C 456.851562 142.394531 456.472656 140.839844 457.640625 140.695312 C 459.460938 140.464844 458.898438 144.132812 459.21875 145.015625 C 459.613281 146.097656 460.515625 146.519531 461.277344 147.28125 C 462.433594 148.4375 463.105469 149.675781 464.433594 150.710938 C 464.875 151.054688 465.980469 152.289062 466.558594 152.289062 C 467.253906 152.289062 467.40625 149.632812 467.589844 149.269531 C 467.898438 148.648438 468.617188 147.417969 469.097656 146.9375 C 469.351562 146.683594 469.890625 146.347656 469.988281 146.046875 C 470.449219 144.667969 470.375 142.699219 471.359375 141.515625 C 472.175781 140.542969 473.398438 141.152344 474.449219 140.625 C 475.851562 139.921875 475.847656 137.644531 477.054688 136.921875 C 477.738281 136.511719 479.101562 136.949219 479.867188 136.851562 C 481.085938 136.699219 482.691406 136.160156 483.710938 135.480469 C 484.65625 134.847656 484.71875 134.011719 485.152344 133.078125 C 485.664062 131.96875 486.996094 130.410156 488.167969 129.921875 C 488.792969 129.664062 489.570312 129.695312 490.226562 129.582031 C 491.34375 129.382812 492.636719 128.773438 493.792969 129.03125 C 495.46875 129.402344 496.410156 130.820312 497.84375 131.636719 C 499.652344 132.671875 502.058594 133.863281 504.085938 134.3125 C 506.574219 134.867188 509.1875 134.933594 511.5625 136.027344 C 512.195312 136.320312 512.949219 136.664062 513.414062 137.195312 C 513.792969 137.625 513.941406 138.183594 514.511719 138.429688 C 516.015625 139.074219 518.476562 138.578125 520.136719 138.910156 C 521.960938 139.273438 522.609375 140.546875 524.1875 141.449219 C 524.90625 141.859375 526.320312 142.257812 526.792969 142.890625 C 527.816406 144.253906 528.285156 146.367188 528.371094 148.035156 C 528.425781 149.101562 528.027344 150.03125 527.820312 151.054688 C 527.476562 152.78125 527.46875 155.132812 527.617188 156.882812 C 527.679688 157.667969 528.03125 158.371094 528.097656 159.148438 C 528.191406 160.3125 527.945312 161.496094 528.027344 162.648438 C 528.050781 162.976562 528.105469 163.320312 528.15625 163.660156 C 528.273438 163.761719 528.371094 163.882812 528.4375 164.015625 C 528.5625 164.265625 528.386719 164.8125 528.238281 165.296875 C 528.234375 165.304688 528.234375 165.3125 528.234375 165.324219 C 528.1875 165.625 528.128906 165.90625 528.0625 166.175781 C 528.054688 168.386719 527.851562 170.660156 527.539062 172.832031 C 527.285156 174.605469 527.800781 176.46875 527.539062 178.289062 C 527.253906 180.289062 526.648438 182.234375 526.195312 184.191406 C 525.253906 188.273438 525.066406 192.464844 524.550781 196.59375 C 524.078125 200.382812 525.816406 204.234375 525.449219 208.101562 C 525.289062 209.785156 525.820312 211.234375 525.820312 212.882812 C 525.820312 213.601562 525.300781 214.972656 525.300781 214.972656 C 525.300781 214.972656 524.058594 214.867188 523.621094 214.484375 C 522.585938 213.578125 521.308594 213.152344 520.144531 212.433594 C 518.128906 211.195312 517.519531 209.769531 516.707031 207.652344 C 516.382812 206.808594 515.558594 206.21875 515.210938 205.410156 C 514.832031 204.527344 515.691406 202.089844 516.332031 201.449219 C 516.410156 201.371094 516.132812 201.550781 516.035156 201.601562 C 515.785156 201.722656 515.636719 201.847656 515.4375 202.046875 C 514.851562 202.632812 513.894531 203.105469 513.046875 203.019531 C 509.902344 202.707031 507.140625 202.859375 504.304688 204.363281 C 503.636719 204.714844 501.597656 205.695312 500.867188 204.960938 C 500.78125 204.878906 502.285156 203.273438 502.433594 203.019531 C 503 202.078125 502.867188 201.109375 503.332031 200.179688 C 503.640625 199.566406 504.257812 199.089844 504.527344 198.460938 C 505.09375 197.136719 504.167969 196.636719 503.40625 195.621094 C 503.265625 195.4375 503.222656 194.464844 503.40625 194.277344 C 504.234375 193.449219 505.828125 193.871094 506.621094 193.082031 C 506.664062 193.035156 505.691406 192.480469 505.574219 192.410156 C 504.34375 191.671875 502.964844 191.226562 501.539062 190.691406 C 501.203125 190.566406 500.210938 190.429688 500.042969 190.09375 C 500 190 501.117188 189.589844 501.164062 189.570312 C 501.542969 189.433594 504.675781 189.164062 504.675781 188.449219 C 504.675781 188.296875 501.964844 187.890625 501.835938 187.851562 C 500.933594 187.582031 501.53125 186.242188 500.640625 185.683594 C 499.785156 185.148438 498.671875 185.605469 498.027344 184.636719 C 497.617188 184.027344 498.25 183.171875 497.878906 182.546875 C 497.058594 181.179688 495.628906 180.425781 495.335938 178.660156 C 495.226562 178.007812 495.625 177.628906 496.007812 177.167969 C 496.054688 177.113281 496.511719 176.695312 496.457031 176.644531 C 496.058594 176.242188 495.546875 176.132812 495.410156 175.449219 C 495.324219 175.003906 495.609375 174.300781 495.261719 173.953125 C 494.632812 173.324219 493.539062 173.328125 492.945312 172.535156 C 492.617188 172.097656 492.882812 171.125 492.496094 170.742188 C 491.378906 169.628906 489.65625 170.457031 488.386719 170.515625 C 487.578125 170.554688 486.539062 170.296875 485.773438 170.070312 C 485.027344 169.84375 483.636719 168.3125 483.828125 167.4375 C 477.148438 165.660156 470.441406 163.894531 463.816406 161.6875 C 462.894531 161.378906 460.914062 160.910156 460.246094 160.246094 C 459.546875 159.542969 458.46875 158.609375 457.914062 157.777344 C 457.722656 157.488281 458.128906 157.300781 457.710938 157.089844 C 456.816406 156.644531 455.359375 157.054688 454.417969 156.679688 C 453.875 156.460938 454.234375 155.285156 453.59375 154.964844 C 452.929688 154.632812 452.203125 154.554688 451.464844 154.621094 C 451.257812 154.640625 450.761719 154.804688 450.574219 154.621094 C 450.386719 154.433594 450.207031 154.214844 450.050781 153.972656 C 449.230469 154.179688 448.40625 154.007812 448.117188 152.980469 C 448.054688 152.761719 448.035156 152.535156 448.046875 152.304688 C 447.679688 152.15625 447.410156 151.921875 447.3125 151.582031 C 446.851562 149.972656 447.984375 148.234375 448.675781 146.925781 C 448.699219 146.882812 448.722656 146.839844 448.746094 146.796875 C 448.632812 146.675781 448.503906 146.570312 448.351562 146.496094 C 448.199219 146.417969 447.808594 147.246094 447.761719 147.320312 C 447.160156 148.21875 446.863281 149.160156 446.464844 150.210938 C 445.566406 152.5625 445.214844 156.039062 443.457031 157.933594 C 442.742188 158.703125 441.261719 159.738281 440.097656 159.527344 C 438.261719 159.191406 437.1875 157.71875 436.382812 156.222656 C 436.050781 155.613281 435.460938 155.097656 435.203125 154.457031 C 435.046875 154.0625 435.570312 153.585938 435.570312 153.183594 C 435.570312 152.027344 435.386719 150.191406 434.613281 149.265625 C 433.332031 147.730469 430.683594 147.371094 428.953125 146.730469 C 428.269531 146.480469 426.941406 146.140625 427.359375 145.199219 C 427.816406 144.167969 429.476562 143.773438 430.484375 143.605469 C 432.429688 143.28125 434.242188 143.902344 436.144531 143.902344 C 436.367188 143.902344 437.558594 144.105469 437.738281 143.960938 C 438.078125 143.6875 438.289062 143.117188 438.5625 142.78125 C 439.402344 141.757812 440.921875 141.222656 442.21875 141.363281 C 442.882812 141.4375 444.3125 142.015625 444.636719 142.664062 C 444.808594 143.003906 444.585938 143.175781 444.910156 143.550781 L 444.476562 144.28125 C 444.464844 144.289062 444.460938 144.300781 444.460938 144.3125 Z M 290.097656 210.828125 C 289.761719 209.375 289.625 208.394531 291.21875 207.597656 C 291.660156 207.375 292.261719 207.601562 292.640625 207.367188 C 292.953125 207.171875 293.082031 206.683594 293.417969 206.449219 C 294.046875 206.015625 295.175781 205.59375 295.9375 205.535156 C 296.867188 205.464844 297.839844 205.582031 298.777344 205.488281 C 299.628906 205.402344 300.417969 205.179688 301.296875 205.261719 C 301.800781 205.304688 302.269531 205.574219 302.761719 205.671875 C 303.558594 205.832031 304.457031 205.777344 305.234375 206.039062 C 306.066406 206.316406 306.972656 206.65625 307.753906 207.046875 C 308.148438 207.242188 308.597656 207.644531 309.039062 207.734375 C 310.375 208 311.273438 207.171875 312.472656 207 C 313.191406 206.898438 314.234375 207.796875 315.039062 207.871094 C 315.496094 207.914062 316.074219 207.589844 316.503906 207.734375 C 316.875 207.855469 317.296875 208.015625 317.695312 207.871094 C 319.582031 207.183594 320.988281 205.371094 322.597656 204.296875 C 323.117188 203.949219 323.148438 203.195312 323.785156 202.878906 C 324.921875 202.3125 325.230469 203.265625 325.757812 203.792969 C 325.960938 203.996094 326.296875 204.035156 326.398438 204.34375 C 326.515625 204.703125 326.863281 205.4375 326.808594 205.808594 C 326.757812 206.171875 326.433594 206.460938 326.261719 206.769531 C 325.859375 207.492188 325.726562 208.269531 325.113281 208.878906 C 324.128906 209.867188 322.824219 210.230469 321.589844 210.847656 C 321.300781 210.992188 321.089844 211.304688 320.808594 211.441406 C 320.5625 211.566406 320.125 211.519531 319.847656 211.582031 C 318.503906 211.867188 317.371094 211.984375 316.046875 212.128906 C 315.117188 212.234375 314.421875 212.832031 313.574219 213 C 313.226562 213.070312 312.539062 212.625 312.152344 212.589844 C 310.777344 212.464844 309.652344 212.675781 308.304688 212.449219 C 307.832031 212.371094 307.757812 212.792969 307.390625 212.953125 C 306.851562 213.195312 306.1875 213.355469 305.601562 213.414062 C 304.316406 213.542969 303.15625 213.183594 301.890625 213.09375 C 300.089844 212.964844 298.515625 212.890625 296.761719 212.449219 C 295.84375 212.222656 295.140625 212.738281 294.289062 212.910156 C 293.839844 213 293.589844 212.734375 293.1875 212.632812 C 292.121094 212.367188 290.769531 212.003906 290.210938 210.894531 Z M 245.972656 211.585938 C 245.765625 211.382812 245.425781 210.566406 245.621094 210.332031 C 246.019531 209.855469 246.871094 210.234375 247.351562 209.996094 C 247.71875 209.8125 247.722656 208.945312 248.03125 208.640625 C 248.511719 208.15625 249.007812 207.472656 249.574219 207.097656 C 250.203125 206.675781 250.957031 206.644531 251.605469 206.269531 C 252.386719 205.8125 253.03125 205.015625 254.128906 205.328125 C 254.441406 205.417969 254.742188 205.519531 254.992188 205.742188 C 255.253906 205.972656 255.625 206.253906 255.785156 206.570312 C 256.378906 207.757812 255.339844 209.242188 254.917969 210.296875 C 254.59375 211.105469 254.898438 212.023438 253.976562 212.441406 C 252.90625 212.925781 251.898438 212.679688 250.777344 212.554688 C 250.269531 212.496094 249.738281 212.625 249.234375 212.554688 C 248.347656 212.425781 247.472656 211.800781 246.5625 211.800781 Z M 183.6875 200.84375 C 182.761719 200.800781 181.78125 201.25 180.957031 200.972656 C 179.929688 200.628906 178.371094 200.230469 177.390625 199.738281 C 176.363281 199.226562 177.628906 198.9375 175.972656 199.164062 C 173.644531 199.480469 175.265625 199.1875 173.820312 199.667969 C 172.59375 200.078125 171.53125 199.492188 170.457031 198.847656 C 170.023438 198.585938 169.632812 198.1875 169.085938 198.296875 C 168.101562 198.496094 168.054688 199.566406 167.300781 199.945312 C 166.449219 200.371094 165.152344 200.316406 164.214844 200.082031 C 162.804688 199.730469 161.867188 198.386719 160.507812 198.160156 C 159.929688 198.0625 158.097656 198.085938 157.695312 197.679688 C 157.082031 197.066406 157.203125 196.167969 156.113281 196.03125 C 154.835938 195.871094 153.625 196.507812 152.339844 196.652344 C 151.269531 196.769531 150.53125 196.167969 149.59375 196.03125 C 148.589844 195.890625 147.515625 196.253906 146.574219 195.691406 C 146.234375 195.484375 145.664062 195.171875 145.476562 194.796875 C 145.34375 194.53125 145.707031 194.105469 145.820312 193.90625 C 146.128906 193.371094 146.609375 192.128906 146.234375 191.503906 C 145.78125 190.75 143.992188 191.261719 143.28125 191.023438 C 142.515625 190.769531 141.699219 190.335938 140.878906 190.128906 C 140.484375 190.03125 140.332031 190.386719 139.988281 190.472656 C 139.210938 190.667969 137.5 190.261719 136.832031 189.925781 C 136.425781 189.722656 135.535156 190.296875 135.183594 190.0625 C 134.78125 189.792969 134.625 189.445312 134.085938 189.445312 L 133.746094 189.386719 C 133.046875 189.117188 133.714844 187.777344 134.222656 187.523438 C 135.234375 187.015625 135.953125 188.019531 136.832031 187.730469 C 137.222656 187.597656 137.414062 186.800781 137.585938 186.492188 C 137.914062 185.902344 138.488281 185.660156 138.957031 185.257812 C 140.789062 183.6875 140.921875 180.660156 142.734375 179.148438 C 144.183594 177.941406 146.382812 179.832031 147.949219 179.972656 C 148.78125 180.050781 149.660156 179.855469 150.488281 179.972656 C 151.238281 180.082031 152.09375 181.097656 152.890625 180.796875 C 153.707031 180.492188 154.753906 178.882812 155.839844 179.425781 C 156.429688 179.71875 157.109375 179.75 157.695312 180.042969 C 158.765625 180.578125 159.257812 181.464844 160.574219 181.757812 C 161.476562 181.957031 162.515625 181.875 163.457031 182.03125 C 164.007812 182.125 167.183594 182.277344 167.601562 182.554688 C 168.882812 183.410156 167.875 183.585938 168.894531 184.949219 C 169.65625 185.964844 169.5 187.683594 170.871094 188.140625 C 174.398438 189.316406 178.117188 188.933594 181.78125 189.238281 C 183.882812 189.414062 186.34375 189.792969 188.4375 189.582031 C 191.292969 189.296875 190.535156 186.816406 191.664062 185.121094 C 192.203125 184.3125 193.925781 183.664062 194.976562 183.664062 C 195.351562 183.664062 195.59375 183.945312 195.769531 184.296875 C 196.847656 184.511719 198.074219 185.484375 198.589844 185.996094 C 199.273438 186.679688 201.285156 185.90625 202.175781 186.085938 C 203.542969 186.359375 204.4375 187.859375 205.671875 188.476562 C 206.296875 188.789062 207.234375 188.558594 207.796875 189.007812 C 208.101562 189.25 208.300781 189.5625 208.726562 189.671875 C 209.875 189.957031 211.308594 188.929688 212.402344 189.804688 C 213.136719 190.390625 212.941406 191.074219 213.066406 191.929688 C 213.140625 192.449219 213.972656 193.019531 214.261719 193.523438 C 214.449219 193.851562 214.28125 194.183594 214.4375 194.496094 C 214.660156 194.9375 215.464844 194.824219 215.542969 195.382812 C 215.601562 195.773438 215.191406 196.136719 215.324219 196.53125 C 215.425781 196.84375 215.789062 197.039062 215.898438 197.375 C 215.984375 197.636719 215.667969 198.09375 215.808594 198.304688 C 216.03125 198.632812 216.890625 198.421875 217.226562 198.613281 C 217.507812 198.773438 217.492188 199.144531 217.757812 199.320312 C 218.390625 199.746094 219.328125 199.703125 220.015625 199.410156 C 220.226562 199.320312 220.417969 199.054688 220.636719 199.011719 C 221.058594 198.925781 221.722656 198.972656 222.097656 199.1875 C 222.527344 199.433594 222.742188 199.914062 223.335938 199.765625 C 223.757812 199.660156 224.027344 199.335938 224.441406 199.234375 C 225.113281 199.066406 225.84375 199.433594 226.523438 199.320312 C 227.230469 199.203125 227.539062 198.691406 228.472656 198.921875 C 228.742188 198.992188 228.921875 199.210938 229.136719 199.367188 C 230.117188 200.066406 231.363281 200.667969 231.835938 201.84375 C 231.996094 202.242188 232.332031 202.386719 232.277344 202.90625 C 232.214844 203.5625 231.449219 203.960938 231.261719 204.589844 C 231.089844 205.15625 231.875 205.246094 231.792969 205.828125 C 231.707031 206.425781 230.800781 206.78125 230.640625 207.421875 C 230.351562 208.578125 231.703125 209.675781 231.925781 210.789062 C 231.984375 211.09375 232.222656 211.640625 231.925781 211.9375 C 230.660156 213.203125 229.316406 211.230469 228.25 210.964844 C 227.449219 210.765625 226.332031 211.128906 225.59375 210.832031 C 225.238281 210.691406 224.816406 209.742188 224.488281 209.460938 C 223.367188 208.5 221.851562 208.054688 220.636719 207.246094 C 219.960938 206.796875 219.058594 205.621094 218.246094 205.519531 C 217.667969 205.445312 217.234375 205.714844 216.738281 205.960938 C 215.972656 206.34375 215.097656 206.394531 214.4375 206.890625 C 213.988281 207.230469 212.625 207.171875 212.046875 207.246094 C 210.363281 207.457031 209.324219 206.390625 208.105469 205.476562 C 207.699219 205.167969 207.210938 205.421875 206.777344 205.296875 C 206.292969 205.160156 205.828125 204.878906 205.363281 204.722656 C 205.050781 204.617188 204.9375 204.953125 204.832031 205.164062 C 204.488281 205.851562 203.984375 206.523438 203.148438 206.804688 C 202.671875 206.960938 202.292969 206.410156 201.953125 206.183594 C 201.167969 205.660156 200.242188 205.257812 199.339844 205.03125 C 198.71875 204.875 196.984375 204.886719 196.417969 205.078125 C 196.195312 205.152344 196.171875 205.488281 196.019531 205.5625 C 195.800781 205.671875 195.382812 205.832031 195.136719 205.875 C 193.945312 206.070312 193.175781 205.898438 192.035156 205.519531 C 191.667969 205.398438 191.070312 205.445312 190.753906 205.253906 C 188.550781 203.933594 186.28125 202.730469 184.15625 201.136719 C 184.035156 201.046875 183.871094 200.949219 183.6875 200.84375 Z M 288.933594 209.992188 C 288.179688 209.941406 287.503906 211.261719 288.503906 211.332031 C 288.96875 211.363281 289.136719 210.890625 289.136719 210.496094 C 289.136719 210.367188 289.199219 210.039062 288.992188 210.039062 Z M 286.785156 208.242188 C 286.4375 207.609375 285.605469 208.167969 285.226562 208.511719 C 284.714844 208.980469 285 209.703125 285.113281 210.265625 C 285.15625 210.488281 285.152344 210.78125 285.347656 210.9375 C 286.09375 211.53125 287.191406 209.933594 287.296875 209.375 C 287.335938 209.164062 287.417969 208.636719 287.238281 208.457031 Z M 233.480469 206.867188 C 233.144531 206.238281 232.128906 205.285156 232.488281 204.511719 C 232.53125 204.425781 232.585938 204.351562 232.636719 204.273438 C 233.089844 203.640625 233.324219 204.152344 233.914062 203.859375 C 234.09375 203.769531 234.101562 203.457031 234.355469 203.386719 C 235.09375 203.175781 235.933594 203.238281 236.695312 203.238281 C 237.4375 203.238281 238.105469 203.265625 238.828125 203.058594 C 239.589844 202.84375 240.332031 202.316406 241.167969 202.527344 C 241.925781 202.714844 242.476562 203.550781 243.125 203.949219 C 243.761719 204.339844 244.84375 204.261719 245.257812 204.984375 C 245.5 205.40625 245.371094 205.949219 245.433594 206.40625 C 245.453125 206.535156 245.554688 206.691406 245.523438 206.820312 C 245.457031 207.085938 244.855469 207.4375 244.664062 207.59375 C 243.777344 208.320312 242.820312 208.898438 241.878906 209.546875 C 241.460938 209.839844 241.058594 210.8125 240.519531 210.878906 C 240.015625 210.941406 239.402344 210.929688 238.976562 210.613281 C 238.652344 210.371094 238.503906 209.925781 238.175781 209.664062 C 237.753906 209.328125 237.296875 209.167969 236.84375 208.894531 C 236.609375 208.753906 236.550781 208.476562 236.253906 208.363281 C 235.867188 208.214844 235.394531 208.179688 235.039062 207.976562 C 234.792969 207.835938 234.625 207.535156 234.414062 207.355469 C 234.25 207.214844 233.980469 207.082031 233.882812 206.882812 Z M 340.234375 207.101562 C 339.558594 206.269531 337.980469 207.648438 337.386719 208.058594 C 337.050781 208.292969 336.71875 208.804688 337.035156 209.183594 C 337.886719 210.203125 339.671875 209.542969 340.523438 208.921875 C 341.3125 208.339844 341.375 207.683594 340.574219 207.148438 Z M 329.804688 209.292969 C 329.34375 207.410156 330.960938 207.523438 332.179688 206.796875 C 333.164062 206.203125 333.59375 204.914062 334.859375 204.773438 C 337.160156 204.515625 335.730469 207.1875 335.011719 207.90625 C 334.476562 208.441406 333.949219 208.847656 333.242188 209.121094 C 332.210938 209.523438 331.351562 209.324219 330.308594 209.324219 Z M 498.964844 195.292969 C 497.746094 194.410156 496.886719 194.875 495.667969 195.484375 C 494.238281 196.199219 493.121094 197.09375 492.3125 198.484375 C 491.511719 199.855469 491.527344 201.972656 490.429688 203.160156 C 489.457031 204.214844 488.128906 205.175781 487.027344 206.105469 C 486.453125 206.59375 485.574219 207.0625 485.804688 207.988281 C 485.882812 208.289062 486.730469 208.121094 486.878906 208.074219 C 488.023438 207.730469 489.050781 207.191406 490.226562 206.96875 C 491.566406 206.71875 492.648438 206.199219 493.9375 205.800781 C 494.945312 205.492188 495.988281 205.472656 496.988281 205.140625 C 497.542969 204.957031 497.878906 204.429688 498.308594 204.074219 C 499.527344 203.054688 500.636719 202.117188 501.714844 200.921875 C 502.25 200.324219 502.171875 199.589844 502.171875 198.839844 C 502.171875 196.96875 501.089844 195.179688 499.019531 195.179688 Z M 343.152344 206.875 C 342.292969 206.203125 342.894531 205.0625 343.761719 204.773438 C 345.269531 204.269531 346 205.289062 347.386719 205.289062 C 347.976562 205.289062 348.480469 204.722656 349.070312 204.722656 C 349.140625 204.722656 349.316406 205.488281 349.324219 205.53125 C 349.496094 206.304688 348.597656 206.769531 347.957031 206.949219 C 346.628906 207.316406 344.960938 207.800781 343.609375 207.300781 C 343.308594 207.191406 342.652344 206.953125 342.496094 206.644531 Z M 416.222656 204.019531 C 415.394531 203.796875 414.414062 203.542969 413.707031 204.109375 C 413.308594 204.425781 412.359375 205.789062 413.117188 206.164062 C 414.058594 206.636719 416.574219 205.003906 416.222656 204.019531 Z M 416.222656 204.019531 C 416.363281 204.058594 416.5 204.09375 416.628906 204.128906 L 416.074219 203.792969 C 416.144531 203.863281 416.195312 203.941406 416.222656 204.019531 Z M 422.875 193.597656 L 422.554688 193.519531 C 422.679688 193.519531 422.785156 193.546875 422.875 193.597656 L 423.054688 193.640625 C 422.378906 191.921875 420.328125 193.460938 419.519531 194.539062 C 418.941406 195.308594 419.382812 196.355469 419.238281 197.234375 C 419.097656 198.058594 418.757812 199.226562 418.128906 199.84375 C 417.480469 200.480469 415.199219 201.65625 417.101562 202.609375 C 421.035156 204.574219 422.726562 198.3125 423.265625 195.890625 C 423.363281 195.449219 423.53125 193.949219 422.875 193.597656 Z M 357.15625 200.679688 C 356.75 199.347656 357.453125 198.191406 358.832031 197.742188 C 360.308594 197.261719 360.929688 198.992188 362.324219 198.804688 C 363.910156 198.59375 365.039062 197.097656 366.722656 197.335938 C 367.097656 197.390625 367.785156 197.4375 368.089844 197.640625 C 369.09375 198.3125 367.820312 199.566406 367.277344 199.917969 C 366.609375 200.351562 365.726562 200.660156 365.15625 201.230469 C 365.085938 201.300781 365.15625 201.585938 365.054688 201.6875 C 364.851562 201.890625 364.273438 201.566406 364.09375 201.535156 C 363.261719 201.398438 362.585938 201.5 361.765625 201.636719 C 360.183594 201.902344 358.507812 200.992188 356.960938 201.433594 Z M 214.445312 191.828125 C 214.046875 191.328125 214.671875 190.277344 215.257812 190.226562 C 215.886719 190.175781 216.53125 190.566406 217.167969 190.535156 C 217.742188 190.503906 218.285156 190.371094 218.855469 190.335938 C 219.351562 190.304688 219.816406 190.425781 220.324219 190.378906 C 221.460938 190.277344 222.621094 189.988281 223.769531 190.050781 C 224.324219 190.082031 224.828125 190.222656 225.371094 190.3125 C 226.210938 190.453125 227.011719 190.046875 227.828125 190.359375 C 228.222656 190.511719 228.480469 190.605469 228.53125 191.039062 C 228.710938 192.671875 226.449219 192.703125 225.4375 193.054688 C 224.71875 193.308594 224.027344 193.660156 223.285156 193.847656 C 222.75 193.980469 222.1875 193.941406 221.640625 194.023438 C 220.855469 194.140625 220.074219 194.023438 219.292969 194.109375 C 219.019531 194.140625 218.738281 194.265625 218.460938 194.308594 C 217.871094 194.390625 217.136719 194.242188 216.574219 194.085938 C 216.128906 193.964844 215.714844 193.972656 215.367188 193.625 C 215.234375 193.492188 215.195312 193.238281 215.105469 193.078125 C 214.777344 192.503906 214.269531 192.449219 214.269531 191.675781 Z M 451.304688 183.621094 C 450.4375 182.480469 449.480469 183.890625 450.015625 184.863281 C 450.210938 185.210938 450.445312 185.632812 450.742188 185.90625 C 451.234375 186.371094 452.761719 186.753906 452.550781 187.714844 C 452.292969 188.859375 450.558594 188.90625 449.816406 189.445312 C 449.074219 189.984375 450.027344 190.753906 450.621094 190.890625 C 450.910156 190.960938 451.269531 190.984375 451.566406 190.984375 C 452.25 190.984375 452.933594 190.265625 453.394531 189.847656 C 454.035156 189.257812 454.714844 188.667969 454.878906 187.757812 C 454.921875 187.535156 454.617188 187.113281 454.519531 186.914062 C 454.019531 185.917969 453.085938 185.414062 452.429688 184.5 C 452.039062 183.960938 452.097656 183.960938 451.664062 183.417969 Z M 455.972656 184.964844 C 455.289062 184.292969 454.460938 183.671875 453.714844 183.136719 C 453.09375 182.6875 452.574219 181.992188 452.027344 181.445312 C 451.523438 180.945312 450.871094 180.46875 450.136719 180.402344 C 449.296875 180.324219 449.644531 181.410156 449.9375 181.808594 C 450.460938 182.523438 451.371094 182.933594 452.066406 183.457031 C 452.863281 184.054688 453.503906 184.871094 454.277344 185.507812 C 454.519531 185.703125 455.351562 186.804688 455.765625 186.390625 C 456.078125 186.074219 456.003906 185.425781 455.972656 184.964844 Z M 455.972656 184.964844 C 456.148438 185.132812 456.3125 185.308594 456.464844 185.484375 L 455.964844 184.742188 C 455.964844 184.808594 455.96875 184.882812 455.972656 184.964844 Z M 301.476562 178.25 C 300.386719 178.355469 299.210938 178.453125 298.726562 179.617188 C 298.257812 180.738281 298.441406 185.539062 299.984375 182.761719 C 300.195312 182.386719 300.445312 181.929688 300.578125 181.515625 C 300.757812 180.964844 300.800781 180.355469 300.875 179.792969 Z M 457.246094 179.671875 C 456.625 179.3125 455.710938 179.433594 455.042969 179.558594 C 454.476562 179.660156 453.269531 179.742188 452.910156 180.28125 C 452.621094 180.714844 453.09375 181.253906 453.394531 181.527344 C 454.019531 182.101562 454.972656 182.507812 455.765625 182.773438 C 455.992188 182.847656 456.539062 183.042969 456.769531 182.851562 C 457.210938 182.492188 457.277344 181.53125 457.25 181.003906 C 457.234375 180.625 456.972656 180.289062 456.808594 179.960938 Z M 439.339844 172.34375 C 438.441406 171.972656 437.933594 173.046875 437.566406 173.730469 C 436.878906 175.007812 436.121094 176.597656 435.929688 178.050781 C 435.878906 178.433594 435.886719 178.59375 435.890625 178.976562 C 435.894531 180.808594 437.957031 178.386719 438.21875 177.96875 C 438.546875 177.453125 438.699219 177.109375 438.902344 176.523438 C 439.289062 175.425781 439.546875 174.347656 439.546875 173.1875 Z M 456.3125 174.324219 L 456.085938 174.292969 C 456.167969 174.292969 456.242188 174.304688 456.3125 174.324219 L 456.5 174.351562 C 456.261719 173.332031 455.324219 173.679688 454.558594 173.972656 C 453.246094 174.46875 452.101562 175.375 451.625 176.742188 C 451.535156 177 451.195312 178.363281 451.542969 178.59375 C 451.832031 178.785156 452.4375 178.6875 452.75 178.671875 C 454.027344 178.617188 456.132812 177.996094 456.6875 176.742188 C 456.972656 176.101562 457.121094 174.570312 456.3125 174.324219 Z M 22.96875 52.175781 C 22.507812 49.601562 25.636719 48.527344 28.011719 48.824219 C 32.511719 49.386719 34.796875 52.257812 38.625 53.789062 C 41.292969 54.855469 46.457031 52.796875 48.6875 55.027344 C 50.628906 56.972656 52.933594 58.960938 55.304688 60.542969 C 56.886719 61.597656 56.6875 64.542969 57.785156 65.917969 C 59.53125 68.097656 62.679688 69.84375 65.089844 71.292969 C 66.320312 72.03125 69.296875 73.496094 70.742188 73.496094 C 71.476562 73.496094 72.027344 72.457031 72.671875 72.671875 C 73.15625 72.832031 73.726562 74.644531 73.910156 75.011719 C 74.734375 76.660156 76.378906 77.390625 77.082031 79.148438 C 77.402344 79.953125 77.542969 82.011719 78.457031 82.316406 C 79.210938 82.570312 80.742188 82.535156 81.351562 83.144531 C 81.878906 83.671875 81.167969 85.199219 82.042969 85.488281 C 82.902344 85.773438 84.269531 84.394531 85.488281 84.800781 C 86.46875 85.125 90.632812 87.871094 91 88.796875 C 91.691406 90.519531 90.84375 93.167969 91.554688 94.585938 C 92.539062 96.558594 97.449219 96.058594 98.582031 97.753906 C 99.164062 98.625 98.421875 99.972656 99.132812 100.925781 C 99.648438 101.609375 101.160156 101.988281 101.890625 102.71875 C 102.390625 103.21875 101.734375 104.214844 102.304688 104.785156 C 103.835938 106.320312 107.136719 104.933594 108.78125 106.578125 C 109.351562 107.144531 109.429688 109.511719 108.917969 110.023438 C 108.472656 110.46875 107.089844 111.183594 107.542969 112.089844 C 107.859375 112.726562 109.660156 111.859375 110.023438 111.675781 C 112.550781 110.410156 113.238281 109.195312 116.085938 109.195312 C 116.457031 109.195312 118.605469 108.898438 118.707031 109.195312 C 119.628906 111.964844 117.847656 114.261719 115.8125 115.535156 C 115.339844 115.828125 112.34375 117.144531 112.777344 118.015625 C 113.480469 119.421875 118.910156 118.757812 118.84375 118.84375 C 117.695312 120.375 116.019531 121.839844 114.296875 122.703125 C 113.96875 122.867188 112.632812 123.371094 112.917969 123.945312 C 113.585938 125.277344 117.351562 123.855469 118.292969 123.667969 C 119.851562 123.355469 120.730469 126.265625 122.152344 126.976562 C 123.007812 127.402344 125.253906 126.257812 125.734375 126.976562 C 127.433594 129.527344 126.699219 132.625 128.078125 135.382812 C 128.730469 136.6875 130.675781 137.703125 131.660156 138.691406 C 132.074219 139.105469 131.15625 140.117188 131.660156 140.621094 C 132.824219 141.785156 136.167969 140.921875 137.726562 141.308594 C 139.671875 141.796875 139.746094 144.230469 140.757812 145.582031 C 141.519531 146.597656 143.007812 146.816406 143.515625 148.339844 C 144.523438 151.371094 140.433594 151.574219 139.792969 154.128906 C 139.667969 154.625 141.359375 157.175781 141.449219 158.125 C 141.773438 161.714844 140.015625 162.441406 139.519531 165.429688 C 139.292969 166.789062 141.339844 166.519531 141.585938 167.496094 C 141.953125 168.96875 140.53125 170.066406 140.207031 171.355469 C 139.816406 172.914062 142.253906 175.230469 140.070312 176.871094 C 139.515625 177.285156 139.167969 177.632812 138.691406 178.109375 C 137.59375 179.207031 136.332031 177.96875 136.210938 176.734375 C 136.183594 176.476562 136.4375 173.605469 136.347656 173.5625 C 136.101562 173.4375 135.792969 173.527344 135.519531 173.5625 C 133.871094 173.769531 132.71875 175.371094 131.800781 176.59375 C 131.6875 176.746094 130.78125 178.320312 130.558594 178.25 C 128.492188 177.558594 128.378906 175.953125 127.664062 174.527344 C 127.5 174.203125 126.460938 173.664062 126.148438 173.976562 C 125.808594 174.316406 125.644531 178.066406 124.082031 177.285156 C 121.425781 175.957031 121.859375 173.496094 120.359375 171.496094 C 119.28125 170.054688 116.355469 170.171875 114.847656 168.875 C 113.195312 167.460938 113.160156 165.109375 111.953125 163.5 C 111.679688 163.136719 110.730469 163.308594 110.296875 162.949219 C 108.503906 161.457031 106.601562 160.675781 104.648438 159.503906 C 102.621094 158.289062 101.402344 155.8125 99.410156 154.816406 C 98.636719 154.429688 97.621094 154.621094 96.789062 154.265625 C 95.832031 153.855469 95.199219 152.664062 94.445312 152.0625 C 93.023438 150.921875 90.703125 149.917969 89.625 148.476562 C 88.40625 146.855469 88.34375 144.429688 87.96875 142.550781 C 87.570312 140.5625 85.058594 138.757812 84.523438 136.625 C 84.351562 135.9375 85.285156 135.117188 84.9375 134.417969 C 84.363281 133.273438 82.761719 131.363281 82.457031 130.144531 C 82.320312 129.597656 82.015625 128.050781 81.628906 127.664062 C 80.738281 126.773438 78.269531 127.007812 77.632812 125.734375 C 76.976562 124.421875 78.21875 122.8125 77.769531 121.460938 C 77.480469 120.59375 76.375 120.449219 76.117188 119.671875 C 75.695312 118.40625 76.109375 116.492188 75.289062 115.398438 C 74.789062 114.734375 73.5625 115.011719 73.082031 114.296875 C 72.578125 113.539062 72.160156 112.308594 71.707031 111.402344 C 71.003906 110 68.863281 109.148438 67.984375 107.679688 C 67.191406 106.359375 67.1875 104.558594 66.328125 103.269531 C 65.914062 102.644531 64.789062 102.089844 64.539062 101.339844 C 63.644531 98.652344 63.855469 95.074219 62.332031 92.792969 C 61.535156 91.597656 60.089844 91.792969 58.886719 91.554688 C 58.027344 91.382812 57.644531 90.089844 56.820312 89.761719 C 55.84375 89.371094 54.6875 89.796875 53.785156 89.347656 C 51.410156 88.160156 53.210938 83.246094 52.132812 81.628906 C 50.304688 78.890625 46.722656 77.253906 44.964844 74.324219 C 44.339844 73.28125 44.867188 70.5 43.3125 70.1875 C 41.1875 69.765625 39.121094 71.679688 36.972656 70.601562 C 35.394531 69.816406 33.464844 67.859375 32.421875 66.46875 C 31.84375 65.695312 32.207031 64.777344 31.734375 63.988281 C 30.558594 62.027344 29.070312 60.589844 28.011719 58.472656 C 27.777344 58.003906 27.035156 58.023438 26.632812 57.785156 C 25.046875 56.832031 23.757812 55.078125 23.1875 53.375 Z M 434.890625 175.542969 C 434.210938 175.480469 434.03125 176.621094 433.921875 177.125 C 433.890625 177.265625 433.792969 177.761719 433.921875 177.890625 C 433.996094 177.964844 434.074219 177.742188 434.121094 177.648438 C 434.207031 177.488281 434.289062 177.328125 434.363281 177.167969 C 434.4375 177.007812 434.496094 176.84375 434.566406 176.683594 C 434.699219 176.375 434.6875 176.40625 434.804688 176.082031 Z M 329.050781 162.613281 C 327.046875 162.484375 326.449219 164.976562 326.824219 166.671875 C 326.910156 167.050781 327.261719 168.121094 327.003906 168.511719 C 326.316406 169.542969 324.832031 171.261719 324.6875 172.546875 C 324.585938 173.480469 323.8125 175.972656 325.105469 176.230469 C 325.660156 176.339844 326.195312 175.746094 326.589844 175.457031 C 327.765625 174.597656 329.628906 173.304688 329.855469 171.71875 C 329.988281 170.765625 329.425781 170.609375 328.667969 170.46875 C 328.464844 170.433594 327.757812 170.367188 327.835938 170.054688 C 327.933594 169.660156 328.605469 169.25 328.84375 168.925781 C 329.441406 168.113281 330.765625 166.105469 330.507812 165.066406 C 330.351562 164.4375 329.839844 163.945312 329.4375 163.464844 C 329.253906 163.242188 329.046875 162.882812 328.785156 162.75 Z M 291.890625 120.371094 C 291.851562 119.960938 291.835938 119.550781 291.808594 119.15625 C 291.746094 118.160156 291.566406 117.128906 291.664062 116.128906 C 291.777344 115.019531 292.273438 113.941406 292.097656 112.8125 C 291.722656 110.363281 290.660156 107.546875 293.253906 105.816406 C 294.144531 105.222656 295.578125 104.46875 296.640625 104.230469 C 298.128906 103.898438 299.878906 105.214844 301.109375 104.160156 C 301.902344 103.480469 302.910156 102.652344 303.492188 101.78125 C 304.296875 100.570312 304.203125 99.027344 305.726562 98.390625 C 307.019531 97.851562 308.300781 98.042969 309.621094 98.246094 C 310.074219 98.316406 310.933594 98.207031 311.277344 98.605469 C 311.625 99.011719 311.710938 99.859375 312 100.335938 C 312.460938 101.105469 313.742188 101.066406 314.449219 101.417969 C 314.859375 101.621094 315.101562 102.257812 315.53125 102.429688 C 316.800781 102.9375 318.621094 101.546875 319.929688 102.066406 C 320.421875 102.265625 320.742188 102.820312 321.300781 103.003906 C 321.882812 103.199219 322.519531 102.957031 323.101562 103.148438 C 323.808594 103.386719 324.429688 103.828125 325.121094 104.085938 C 325.675781 104.292969 326.785156 104.984375 327.429688 104.664062 C 328.039062 104.359375 328.058594 103.066406 328.726562 102.933594 C 330.457031 102.585938 331.894531 104.449219 333.773438 104.304688 C 335.589844 104.164062 338.152344 104.554688 339.6875 103.4375 C 341.835938 101.875 344.066406 100.070312 345.816406 98.03125 C 346.40625 97.339844 346.652344 96.429688 347.402344 95.867188 C 348.292969 95.199219 350.453125 94.386719 351.585938 94.859375 C 352.496094 95.238281 353.320312 96.621094 353.820312 97.453125 C 354.539062 98.652344 353.386719 99.976562 352.882812 100.988281 C 351.246094 104.253906 347.507812 106.34375 344.375 107.910156 C 343.601562 108.296875 343.042969 109.042969 342.28125 109.421875 C 339.351562 110.886719 334.410156 112.230469 331.179688 110.9375 C 330.429688 110.636719 330.898438 109.0625 329.738281 108.773438 C 328.835938 108.546875 327.613281 108.949219 326.707031 109.0625 C 324.648438 109.320312 322.910156 108.957031 320.867188 109.640625 C 320.394531 109.796875 319.753906 109.089844 319.355469 108.917969 C 318.585938 108.589844 317.332031 108.328125 316.542969 108.195312 C 315.449219 108.015625 314.246094 108.164062 313.226562 108.628906 C 312.574219 108.925781 311.757812 109.5 310.988281 109.277344 C 310.5 109.136719 309.878906 109.050781 309.402344 108.847656 C 308.683594 108.539062 308.109375 107.496094 307.242188 107.621094 C 306.15625 107.773438 305.269531 108.8125 304.285156 109.207031 C 303.378906 109.566406 302.328125 108.75 301.542969 109.925781 C 301.0625 110.652344 301.976562 110.808594 301.976562 111.226562 C 301.976562 111.507812 301.421875 111.363281 301.183594 111.515625 C 300.382812 112.011719 299.410156 112.347656 298.730469 113.027344 C 298.066406 113.691406 297.351562 115.089844 297.074219 116.054688 C 296.980469 116.386719 297.226562 116.90625 297.074219 117.210938 C 296.789062 117.78125 296.269531 118.25 296.0625 118.867188 C 295.726562 119.878906 296.613281 120.40625 297.074219 121.175781 C 297.351562 121.640625 297.417969 122.222656 297.523438 122.753906 C 297.625 122.808594 297.742188 122.882812 297.867188 122.976562 C 298.53125 123.484375 299.164062 124.039062 299.8125 124.566406 C 300.664062 125.257812 301.140625 126.335938 302.046875 126.945312 C 303.761719 128.085938 305.800781 128.347656 307.242188 126.726562 C 308.078125 125.785156 309.269531 124.039062 309.835938 122.90625 C 310.203125 122.175781 309.992188 121.484375 310.84375 120.886719 C 311.59375 120.363281 312.558594 120.066406 313.367188 119.660156 C 313.714844 119.488281 315.417969 117.890625 315.75 118.21875 C 315.972656 118.441406 315.632812 119.316406 315.53125 119.515625 C 314.988281 120.605469 314.054688 121.378906 313.441406 122.402344 C 313.226562 122.761719 312.996094 123.675781 313.585938 123.84375 C 314.066406 123.980469 314.671875 123.902344 315.171875 123.988281 C 315.730469 124.082031 316.242188 124.199219 316.828125 124.132812 C 317.804688 124.023438 318.722656 123.257812 319.570312 122.835938 C 320.539062 122.347656 321.875 121.96875 322.671875 121.175781 C 322.96875 120.878906 323.234375 120.308594 323.609375 120.09375 C 325.902344 118.78125 329.183594 119.371094 331.683594 119.371094 C 333.835938 119.371094 337.101562 118.300781 336.515625 121.824219 C 336.097656 124.320312 333.394531 123.625 331.828125 123.484375 C 330.796875 123.390625 329.277344 123.792969 328.4375 124.421875 C 326.644531 125.765625 325.476562 128.03125 323.894531 129.613281 C 322.804688 130.703125 320.835938 130.859375 319.570312 131.703125 C 317.941406 132.789062 316.855469 134.25 315.171875 135.089844 C 313.734375 135.808594 311.996094 134.996094 310.46875 135.296875 C 310.476562 135.304688 310.488281 135.3125 310.496094 135.320312 C 311.078125 135.777344 311.839844 135.992188 312.277344 136.625 C 312.730469 137.277344 312.761719 138.082031 313.230469 138.703125 C 313.703125 139.335938 314.460938 139.691406 314.890625 140.308594 C 315.339844 140.945312 315.410156 142.042969 316.019531 142.5625 C 317.101562 143.492188 318.34375 143.691406 319.285156 144.820312 C 319.792969 145.429688 319.300781 146.210938 319.761719 146.898438 C 320.359375 147.796875 322.039062 148.429688 322.253906 149.511719 C 322.449219 150.480469 320.574219 151.261719 319.996094 151.707031 C 318.683594 152.730469 319.585938 154.328125 320.414062 155.269531 C 321.027344 155.96875 321.925781 155.855469 322.667969 156.28125 C 323.378906 156.683594 323.433594 157.414062 324.035156 157.882812 C 324.570312 158.300781 326.117188 158.667969 326.796875 158.667969 C 328.128906 158.667969 329.484375 158.640625 330.804688 158.476562 C 330.957031 158.457031 331.84375 158.269531 331.992188 158.417969 C 332.023438 158.449219 331.703125 158.636719 331.695312 158.65625 C 331.34375 159.359375 330.480469 159.644531 329.792969 159.960938 C 328.144531 160.722656 326.5625 161.417969 324.808594 161.921875 C 324.035156 162.140625 323.191406 162.125 322.433594 162.394531 C 321.171875 162.847656 318.890625 164.152344 318.214844 165.363281 C 317.769531 166.164062 317.84375 167.277344 317.027344 167.859375 C 315.667969 168.832031 312.097656 168.269531 310.914062 167.085938 C 309.925781 166.097656 309.15625 163.324219 310.199219 162.277344 C 310.707031 161.769531 313.058594 160.988281 312.695312 160.078125 C 312.460938 159.496094 311.582031 159.085938 311.152344 158.65625 C 310.085938 157.589844 309.320312 156.214844 307.765625 155.507812 C 306.527344 154.945312 304.472656 154.382812 304.085938 152.835938 C 303.894531 152.070312 304.691406 151.4375 305.035156 150.875 C 305.585938 149.972656 305.945312 148.621094 306.28125 147.609375 C 306.636719 146.546875 306.125 144.554688 305.511719 143.632812 C 305.15625 143.101562 304.765625 142.828125 304.425781 142.425781 C 303.359375 143.605469 301.789062 144.351562 300.535156 145.1875 C 299.550781 145.839844 298.257812 146.226562 298.515625 147.78125 C 298.59375 148.25 299.023438 148.566406 299.09375 149.078125 C 299.167969 149.632812 298.839844 150.683594 299.164062 151.171875 C 299.953125 152.355469 300.921875 152.539062 300.390625 154.128906 C 300.0625 155.109375 299.53125 156.066406 298.804688 156.796875 C 298.601562 156.996094 297.269531 157.835938 297.433594 158.164062 C 298.144531 159.585938 298.089844 160.929688 298.585938 162.417969 C 298.945312 163.496094 300.210938 163.929688 299.886719 165.230469 C 299.390625 167.203125 297.144531 167.730469 297.363281 169.917969 C 297.457031 170.863281 297.652344 171.976562 298.515625 172.511719 C 298.964844 172.792969 300.378906 172.972656 300.535156 173.59375 C 300.8125 174.710938 298.789062 175.964844 297.867188 176.117188 C 296.601562 176.328125 294.585938 176.082031 293.324219 175.902344 C 291.792969 175.683594 288.457031 175.214844 287.339844 174.101562 C 285.792969 172.550781 287.5 169.457031 288.347656 168.042969 C 288.65625 167.527344 288.4375 166.847656 288.636719 166.3125 C 289.335938 164.453125 290.277344 162.71875 290.800781 160.761719 C 290.917969 160.316406 291.28125 159.734375 291.160156 159.246094 C 290.980469 158.523438 290.496094 157.480469 290.152344 156.722656 C 289.765625 155.871094 289.121094 155.171875 288.710938 154.34375 C 288.542969 154.007812 288.355469 153.167969 287.988281 153.046875 C 285.945312 152.363281 282.035156 153.917969 281.355469 150.738281 C 280.796875 148.140625 281.789062 146.855469 282.726562 144.609375 C 283.703125 142.257812 284.753906 139.933594 285.824219 137.617188 C 285.953125 137.335938 286.09375 136.910156 286.25 136.421875 C 284.796875 134.5625 286.574219 131.714844 286.761719 129.828125 C 286.859375 128.855469 286.761719 127.917969 286.90625 126.945312 C 287.058594 125.9375 286.738281 124.496094 287.050781 123.554688 C 287.390625 122.539062 289.558594 122.265625 290.296875 121.898438 C 290.972656 121.558594 291.371094 120.898438 291.890625 120.371094 Z M 315.566406 169.679688 C 314.015625 169.753906 313.703125 170.320312 313.703125 172.015625 C 313.703125 172.558594 313.792969 173.984375 314.535156 174.09375 C 315.699219 174.257812 316.3125 172.058594 316.375 171.242188 C 316.40625 170.859375 316.25 170.113281 315.78125 170.113281 Z M 322.625 166.398438 C 322.261719 166.25 321.410156 165.78125 321.125 165.839844 C 320.484375 165.96875 320.558594 166.875 320.53125 167.382812 C 320.480469 168.453125 320.488281 169.484375 319.996094 170.46875 C 319.707031 171.054688 319.386719 171.628906 319.046875 172.191406 C 318.921875 172.40625 318.4375 172.742188 318.394531 172.964844 C 318.355469 173.167969 318.5625 173.722656 318.808594 173.796875 C 319.425781 173.972656 320.210938 173.332031 320.710938 173.082031 C 322.585938 172.144531 323.234375 170.964844 324.449219 169.34375 C 325.007812 168.597656 325.554688 167.671875 325.339844 166.671875 C 325.074219 165.414062 323.054688 165.082031 322.847656 166.492188 Z M 185.035156 133.136719 C 185.121094 131.988281 188.390625 130.773438 187.652344 129.300781 C 186.878906 127.75 185.550781 126.460938 184.335938 125.246094 C 183.351562 124.261719 183.199219 123.378906 181.9375 122.480469 C 181.042969 121.839844 178.839844 121.667969 179.632812 120.082031 C 180.207031 118.929688 181.84375 118.421875 182.953125 118.054688 C 184.378906 117.578125 185.527344 116.425781 186.730469 115.5625 C 187.152344 115.261719 187.578125 114.957031 188.023438 114.734375 C 188.160156 114.664062 188.667969 114.632812 188.667969 114.550781 C 188.667969 114.242188 188.042969 114.464844 187.746094 114.550781 C 186.859375 114.804688 186.082031 115.355469 185.257812 115.746094 C 183.945312 116.371094 181.011719 117.71875 179.449219 117.40625 C 178.988281 117.316406 179.0625 116.5625 178.800781 116.300781 C 178.421875 115.921875 177.6875 115.832031 177.417969 115.5625 C 177.113281 115.257812 178.820312 114.148438 178.617188 113.535156 C 178.125 112.0625 175.195312 111.15625 174.5625 109.570312 C 174.121094 108.472656 174.46875 106.683594 174.46875 105.511719 C 174.46875 105.191406 174.183594 104.507812 174.46875 104.222656 C 174.941406 103.75 175.949219 103.738281 176.128906 103.023438 C 176.238281 102.585938 175.476562 101.75 175.390625 101.273438 C 174.816406 98.105469 175.226562 96.738281 177.605469 94.726562 C 179.085938 93.472656 180.484375 92.125 181.84375 90.761719 C 182.019531 90.585938 183.078125 89.78125 183.414062 90.113281 C 183.734375 90.4375 183.886719 91.511719 184.242188 91.960938 C 185.027344 92.9375 185.953125 93.578125 186.824219 94.449219 C 189.1875 96.8125 190.53125 100.121094 193.738281 101.546875 C 196.582031 102.8125 197.644531 100.414062 200.007812 99.890625 C 201.339844 99.59375 203.152344 99.507812 204.527344 99.613281 C 205.996094 99.726562 206.949219 100.460938 208.492188 100.074219 C 210.015625 99.691406 211.054688 98.003906 212.363281 97.675781 C 213.097656 97.492188 213.992188 97.84375 214.761719 97.769531 C 216.40625 97.605469 218.074219 96.921875 219.742188 96.753906 C 222.265625 96.5 222.121094 98.90625 223.523438 100.074219 C 224.128906 100.578125 226.472656 100.316406 227.117188 100.074219 C 228.789062 99.445312 230.117188 97.941406 231.636719 97.03125 C 232.164062 96.714844 233 97.042969 233.570312 96.9375 C 234.597656 96.75 236.347656 96.007812 237.074219 95.277344 C 238.792969 93.5625 238.851562 90.402344 240.210938 88.363281 C 240.730469 87.585938 241.632812 87.203125 242.238281 86.519531 C 244.027344 84.507812 245.011719 81.15625 246.203125 78.773438 C 246.636719 77.90625 246.535156 76.8125 247.035156 75.914062 C 247.5625 74.960938 248.488281 74.277344 248.878906 73.242188 C 249.453125 71.710938 248.140625 70.804688 248.140625 69.371094 C 248.140625 67.984375 249.417969 64.683594 250.261719 63.558594 C 250.785156 62.859375 253.023438 62.914062 253.765625 62.914062 C 257.238281 62.914062 260.675781 63.46875 264.183594 63.46875 C 264.558594 63.46875 267.949219 63.878906 268.054688 64.207031 C 268.503906 65.546875 266.972656 67.128906 267.410156 68.445312 C 267.636719 69.125 269.953125 69.015625 270.546875 69.371094 C 270.878906 69.570312 271.183594 70.695312 270.824219 70.9375 C 269.859375 71.578125 267.058594 71.371094 266.027344 71.027344 C 265.484375 70.847656 264.417969 70.546875 264.277344 71.398438 C 263.984375 73.160156 266.484375 72.71875 266.949219 73.886719 C 267.332031 74.839844 266.488281 74.941406 266.488281 75.640625 C 266.488281 76.34375 267.125 77.554688 267.410156 78.3125 C 267.644531 78.9375 268.417969 79.503906 268.792969 80.066406 C 269.558594 81.210938 270.039062 82.703125 270.914062 83.753906 C 271.910156 84.945312 273.558594 85.808594 274.234375 87.164062 C 274.519531 87.734375 273.09375 88.195312 272.757812 88.363281 C 271.550781 88.96875 269.496094 88.902344 270.175781 90.945312 C 271.664062 95.410156 277.265625 97.074219 280.6875 99.519531 C 281.675781 100.222656 282.039062 101.300781 282.53125 102.285156 C 282.570312 102.359375 283.988281 103.226562 283.730469 103.484375 C 283.496094 103.71875 282.171875 103.75 281.792969 103.855469 C 278.925781 104.636719 276.382812 103.046875 273.589844 103.667969 C 272.308594 103.953125 272.3125 105.128906 271.652344 105.789062 C 271.015625 106.425781 269.855469 105.140625 269.253906 106.34375 C 267.804688 109.246094 267.695312 112.5 266.671875 115.5625 C 266.179688 117.050781 264.226562 117.875 263.539062 119.25 C 262.988281 120.351562 265.609375 121.332031 264.089844 122.847656 C 263.585938 123.351562 262.457031 123.539062 262.15625 124.140625 C 261.863281 124.726562 261.972656 125.84375 261.324219 126.167969 C 260.777344 126.441406 258.867188 125.179688 258.652344 125.613281 C 258.238281 126.441406 258.597656 127.890625 258.191406 128.839844 C 257.855469 129.621094 256.847656 130.570312 256.347656 131.238281 C 255.667969 132.140625 252.90625 132.945312 252.65625 134.1875 C 252.242188 136.273438 256.511719 134.375 256.714844 135.386719 C 256.816406 135.890625 256.058594 137.707031 255.699219 138.0625 C 255.445312 138.316406 254.863281 138.285156 254.777344 138.707031 C 254.59375 139.636719 256.753906 139.398438 256.53125 140.183594 C 256.1875 141.382812 254.742188 141.976562 254.132812 143.039062 C 253.253906 144.582031 253.023438 146.644531 252.195312 148.296875 C 251.429688 149.828125 249.945312 150.148438 248.878906 151.429688 C 248.214844 152.226562 248.089844 153.304688 247.402344 154.105469 C 246.449219 155.21875 245.023438 156.21875 243.714844 156.871094 C 242.035156 157.710938 240.261719 156.785156 238.550781 157.515625 C 238.226562 157.65625 235.648438 158.902344 235.601562 158.808594 C 235.113281 157.835938 237.425781 155.082031 236.246094 154.199219 C 235.328125 153.507812 234.046875 154.433594 233.203125 154.011719 C 232.570312 153.695312 232.34375 152.824219 232.003906 152.261719 C 231.746094 151.828125 230.808594 151.742188 230.34375 151.429688 C 229.507812 150.875 229.554688 148.765625 228.59375 148.574219 C 226.136719 148.082031 228.152344 152.117188 226.839844 152.445312 C 225.457031 152.792969 225.8125 150.054688 224.996094 149.402344 C 223.714844 148.375 220.050781 148.101562 218.542969 148.480469 C 217.332031 148.785156 216.136719 150.054688 215.132812 150.785156 C 214.925781 150.933594 214.300781 151.800781 214.023438 151.800781 C 213.292969 151.800781 211.714844 150.144531 210.890625 150.96875 C 210.226562 151.632812 208.136719 154.804688 207.109375 154.289062 C 206.148438 153.808594 207.136719 152.136719 207.203125 151.0625 C 207.324219 148.957031 207.570312 146.917969 207.570312 144.792969 C 207.570312 144.546875 207.957031 142.964844 207.847656 142.855469 C 207.519531 142.527344 206.925781 143.570312 206.832031 143.6875 C 206.050781 144.664062 205.292969 145.863281 203.972656 146.082031 C 202.851562 146.269531 201.570312 145.503906 200.5625 145.808594 C 198.839844 146.324219 197.066406 147.1875 195.214844 147.375 C 193.65625 147.53125 191.921875 146.980469 190.421875 146.730469 C 186.820312 146.128906 188.933594 140.203125 188.574219 138.0625 C 188.304688 136.425781 186.132812 134.234375 185.035156 133.136719 Z M 253.71875 150.824219 C 253.027344 149.921875 252.539062 150.589844 251.8125 151.316406 C 250.296875 152.832031 250.765625 154.984375 250.808594 156.957031 C 250.816406 157.273438 250.820312 157.59375 250.808594 157.910156 C 250.800781 158.148438 250.535156 158.550781 250.761719 158.628906 C 251.105469 158.742188 252.078125 157.5 252.292969 157.289062 C 252.617188 156.964844 252.597656 156.996094 253.007812 156.382812 C 253.59375 155.503906 255.191406 153.40625 254.488281 152.222656 Z M 360.324219 150.082031 C 360.464844 149.53125 360.027344 148.851562 360.226562 148.261719 C 360.855469 146.371094 363.441406 147.859375 364.597656 147.648438 C 366.078125 147.378906 367.035156 145.878906 368.78125 146.417969 C 369.929688 146.769531 370.605469 147.859375 371.613281 148.449219 C 372.46875 148.945312 373.453125 149.050781 374.261719 149.679688 C 374.828125 150.121094 375.050781 150.882812 375.246094 151.527344 C 375.773438 153.28125 375.65625 153.820312 374.199219 155.28125 C 373.957031 155.523438 372.429688 155.453125 371.984375 155.589844 C 371.023438 155.882812 370.5 156.390625 369.460938 156.390625 C 367.789062 156.390625 366.726562 156.035156 365.210938 155.402344 C 364.191406 154.980469 362.59375 154.652344 361.765625 153.925781 C 361.082031 153.328125 360.632812 152.425781 359.980469 151.773438 Z M 382.628906 151.457031 C 381.824219 150.867188 381.933594 148.882812 382.921875 148.445312 C 383.382812 148.238281 384.066406 148.347656 384.386719 147.867188 C 384.941406 147.035156 384.625 145.429688 385.90625 145.246094 C 387.453125 145.027344 388.980469 145.9375 390.621094 145.71875 C 391.585938 145.589844 392.230469 144.800781 393.292969 144.933594 C 394.40625 145.074219 394.980469 146.59375 396.332031 146.085938 C 396.757812 145.925781 396.835938 145.320312 397.121094 145.039062 C 397.570312 144.585938 398.46875 144.097656 399.109375 143.992188 C 400.199219 143.808594 401.515625 144.296875 402.566406 144.460938 C 403.824219 144.660156 405.128906 144.773438 406.289062 145.351562 C 407.050781 145.734375 407.554688 146.449219 408.277344 146.871094 C 409.296875 147.46875 410.59375 147.523438 411.683594 147.972656 C 413.371094 148.667969 414.082031 150.09375 414.722656 151.691406 C 414.996094 152.378906 415.355469 152.960938 415.246094 153.734375 C 415.195312 154.105469 414.910156 154.421875 414.722656 154.730469 C 414.589844 154.953125 414.550781 155.324219 414.355469 155.515625 C 413.96875 155.90625 413.015625 155.9375 412.523438 155.988281 C 410.773438 156.164062 408.144531 154.648438 406.863281 153.472656 C 406.300781 152.957031 405.902344 152.265625 405.292969 151.796875 C 404.796875 151.417969 403.714844 150.921875 403.089844 150.855469 C 401.820312 150.710938 401.789062 151.953125 400.734375 152.214844 C 400.160156 152.359375 399.128906 151.898438 398.535156 151.847656 C 397.742188 151.78125 397.160156 152.191406 396.4375 152.375 C 396.132812 152.449219 395.40625 151.964844 395.179688 151.796875 C 394.308594 151.140625 393.886719 149.800781 392.667969 149.648438 C 391.742188 149.535156 391.8125 150.449219 391.460938 151.0625 C 391.207031 151.511719 390.699219 151.824219 390.359375 152.164062 C 390.25 152.277344 389.582031 152.035156 389.46875 152.007812 C 388.941406 151.875 388.308594 151.824219 387.847656 151.535156 C 387.425781 151.269531 387.085938 150.613281 386.589844 150.488281 C 385.632812 150.25 385.859375 151.273438 385.226562 151.585938 C 384.75 151.824219 383.746094 151.246094 383.289062 151.167969 Z M 385.609375 153.253906 C 384.472656 152.972656 383.882812 153.058594 382.972656 153.789062 C 382.066406 154.511719 381.15625 155.585938 382.816406 155.671875 C 384.863281 155.78125 386.457031 154.410156 388.109375 153.421875 C 388.988281 152.890625 387.425781 152.238281 387.007812 152.214844 Z M 162.902344 142.679688 C 162.378906 142.617188 160.875 141.539062 160.539062 141.6875 C 159.140625 142.3125 159.109375 145.140625 159.941406 146.152344 C 160.273438 146.558594 161.113281 146.652344 161.273438 147.152344 C 161.574219 148.097656 159.378906 149.511719 160.804688 150.082031 C 162.601562 150.800781 163.4375 148.511719 164.46875 147.683594 C 165.136719 147.152344 166.183594 147.515625 166.933594 147.285156 C 168.878906 146.6875 168.375 145.046875 167.265625 144.085938 C 166.769531 143.65625 166.304688 143.402344 165.667969 143.222656 Z M 80.453125 146.128906 C 78.929688 144.675781 76.679688 146.433594 78.089844 148.199219 C 78.304688 148.464844 78.835938 148.988281 79 149.140625 C 79.6875 149.78125 80.875 149.808594 81.226562 148.761719 C 81.558594 147.761719 81.097656 146.320312 80.527344 145.519531 Z M 150.363281 143.71875 C 150.3125 143.121094 150.414062 142.152344 150.230469 141.609375 C 150.105469 141.226562 148.394531 141.019531 148.054688 140.957031 C 146.488281 140.664062 145.601562 140.246094 144.730469 138.832031 C 143.761719 137.257812 144.441406 136.003906 144.242188 134.3125 C 144.167969 133.675781 143.832031 133.042969 143.589844 132.460938 C 143.296875 131.769531 143.078125 131.054688 142.28125 130.828125 C 142.003906 130.75 141.640625 130.773438 141.355469 130.773438 L 140.648438 130.773438 C 140.429688 130.773438 140.210938 130.75 139.992188 130.773438 C 138.539062 130.917969 141.027344 133.214844 139.832031 133.929688 C 139.195312 134.3125 138.214844 133.066406 137.542969 133.003906 C 135.859375 132.851562 135.816406 134.914062 135.527344 136 C 135.414062 136.429688 135.1875 136.839844 135.257812 137.308594 C 135.347656 137.949219 136.078125 138.199219 136.617188 138.234375 C 137.964844 138.324219 139.53125 137.835938 140.59375 139.050781 C 141.4375 140.015625 140.140625 141.953125 140.917969 142.863281 C 141.40625 143.429688 142.144531 143.996094 142.878906 144.167969 C 143.265625 144.261719 143.609375 144.191406 143.914062 144.496094 C 144.195312 144.777344 144.289062 145.25 144.511719 145.585938 C 145.066406 146.414062 146.257812 147.640625 147.183594 148.035156 C 147.726562 148.269531 148.125 148.078125 148.652344 147.925781 C 149.855469 147.585938 150.699219 147.9375 150.558594 146.238281 C 150.488281 145.382812 150.117188 144.527344 149.960938 143.679688 Z M 73.109375 136.59375 C 71.394531 134.800781 69.238281 137.257812 70.757812 138.777344 C 72.367188 140.386719 75.433594 138.394531 73.40625 136.367188 Z M 342.761719 134.980469 C 342.632812 134.585938 342.601562 134.316406 342.6875 133.886719 C 343.203125 131.320312 345.332031 131.992188 347.359375 131.65625 C 347.949219 131.554688 348.820312 130.90625 349.339844 130.996094 C 349.898438 131.085938 350.332031 131.597656 350.914062 131.65625 C 351.449219 131.707031 353.832031 131.171875 354.011719 132.0625 C 354.101562 132.523438 353.925781 133.058594 353.757812 133.480469 C 353.601562 133.871094 353.402344 134.445312 353.097656 134.75 C 352.714844 135.136719 351.828125 135.117188 351.320312 135.15625 C 350.175781 135.253906 349.003906 135.386719 347.867188 135.511719 C 347.050781 135.605469 346.101562 136.628906 345.277344 136.273438 C 344.679688 136.019531 344.195312 135.203125 343.957031 134.648438 Z M 409.027344 131.902344 C 407.285156 131.417969 405.59375 131.257812 404.058594 132.375 C 403.320312 132.914062 402.417969 133.621094 402.9375 134.664062 C 403.921875 136.628906 406.785156 135.417969 408.371094 135.785156 C 408.867188 135.902344 409.988281 136.300781 410.390625 135.695312 C 410.539062 135.472656 410.421875 135.15625 410.390625 134.886719 C 410.296875 134.078125 409.941406 133.238281 409.941406 132.417969 Z M 358.804688 132.851562 C 357.84375 132.46875 356.46875 132.308594 355.484375 132.722656 C 354.644531 133.070312 354.820312 134.457031 355.636719 134.699219 C 356.226562 134.878906 357.011719 134.75 357.617188 134.75 C 359.160156 134.75 361.507812 135.445312 362.945312 134.851562 C 363.175781 134.757812 364.042969 134.523438 364.214844 134.292969 C 365.265625 132.894531 362.148438 132.289062 361.523438 132.316406 C 361.289062 132.324219 361.050781 132.347656 360.8125 132.367188 Z M 466.871094 132.199219 C 467.769531 131.453125 469.929688 131.316406 471.011719 131.589844 C 471.738281 131.769531 472.277344 132.34375 473.046875 132.445312 C 474.164062 132.59375 475.195312 132.042969 476.214844 131.6875 C 476.824219 131.472656 477.5 131.53125 478.128906 131.441406 C 478.660156 131.363281 479.5 131.136719 480.042969 131.34375 C 480.367188 131.464844 481.375 132.980469 480.925781 133.160156 C 479.386719 133.773438 477.894531 133.492188 476.363281 133.75 C 475.367188 133.914062 474.582031 134.519531 473.515625 134.191406 C 472.535156 133.890625 471.636719 133.265625 470.617188 133.0625 C 469.917969 132.921875 469.195312 133.332031 468.507812 133.207031 C 467.773438 133.074219 467.417969 132.226562 466.640625 132.226562 Z M 67.347656 128.660156 C 66.632812 126.773438 64.480469 125.457031 62.488281 125.222656 C 61.355469 125.089844 59.699219 125.863281 60.054688 127.167969 C 60.363281 128.296875 62.101562 128.117188 62.851562 128.871094 C 63.589844 129.605469 64.59375 130.296875 65.164062 131.183594 C 65.625 131.894531 66.125 133.140625 66.808594 133.675781 C 68.570312 135.054688 68.34375 132.082031 68.023438 131.121094 C 67.800781 130.453125 67.457031 129.875 67.171875 129.234375 Z M 185.035156 133.160156 L 184.980469 133.082031 C 184.996094 133.101562 185.015625 133.121094 185.035156 133.136719 C 185.035156 133.144531 185.035156 133.152344 185.035156 133.160156 L 185.59375 133.941406 C 185.179688 133.679688 185.023438 133.421875 185.035156 133.160156 Z M 384.847656 131.214844 C 384.800781 130.808594 384.757812 130.375 384.609375 129.988281 C 384.355469 129.320312 383.550781 129.082031 382.957031 128.875 C 380.890625 128.144531 379.457031 128.320312 377.496094 129.179688 C 376.800781 129.484375 374.820312 130.324219 374.960938 131.316406 C 375.070312 132.066406 376.808594 132.324219 377.34375 132.566406 C 377.914062 132.820312 378.40625 133.050781 379.035156 133.140625 C 379.65625 133.230469 380.253906 133.203125 380.878906 133.179688 C 382.539062 133.117188 383.902344 133.773438 384.570312 131.871094 C 384.691406 131.53125 384.714844 131.308594 384.609375 130.949219 Z M 183.332031 125.734375 C 183.132812 125.226562 181.890625 125.761719 181.585938 125.851562 C 180.351562 126.230469 179.960938 127.140625 180.132812 128.371094 C 180.449219 130.65625 183.636719 130.011719 184.539062 128.488281 C 184.917969 127.847656 184.339844 127.019531 183.949219 126.519531 C 183.910156 126.472656 183.632812 126.265625 183.632812 126.167969 Z M 417.820312 122.769531 C 416.960938 121.972656 415.054688 122.699219 414.699219 123.753906 C 414.503906 124.332031 414.617188 124.863281 414.566406 125.457031 C 414.535156 125.828125 413.871094 126.945312 414.117188 127.253906 C 416.269531 129.945312 419.652344 125.742188 417.886719 123.394531 Z M 466.148438 119.179688 C 466.019531 119.097656 465.742188 118.519531 465.5625 118.578125 C 465.246094 118.683594 464.199219 120.15625 464.675781 120.542969 C 465.011719 120.8125 465.613281 120.71875 466.003906 120.738281 C 466.820312 120.78125 468.046875 121.082031 468.75 121.523438 C 469.085938 121.734375 469.160156 122.0625 469.4375 122.308594 C 469.839844 122.664062 470.402344 122.625 470.617188 123.195312 C 470.839844 123.78125 470.773438 124.960938 471.402344 125.304688 C 471.90625 125.582031 472.621094 125.476562 473.171875 125.550781 C 473.773438 125.628906 474.988281 125.988281 475.429688 125.402344 C 475.546875 125.246094 475.476562 124.898438 475.476562 124.714844 C 475.476562 123.148438 473.296875 122.757812 472.140625 122.261719 C 471.199219 121.859375 471.828125 120.828125 471.453125 120.148438 C 470.703125 118.804688 468.953125 118.945312 467.671875 118.824219 C 467.105469 118.769531 466.414062 118.492188 465.855469 118.675781 Z M 182.015625 124.15625 C 181.476562 124.3125 180.886719 124.671875 180.328125 124.671875 C 179.5625 124.671875 178.550781 124.285156 178.078125 123.652344 C 178.007812 123.5625 177.660156 123.140625 177.734375 123.019531 C 177.886719 122.761719 178.628906 122.609375 178.914062 122.585938 C 180.207031 122.496094 181.492188 122.726562 182.453125 123.6875 Z M 412.472656 121.921875 L 412.773438 121.769531 C 412.003906 121.785156 410.339844 122.320312 410.882812 123.527344 C 411.273438 124.390625 412.929688 123.132812 413.039062 122.585938 C 413.136719 122.101562 412.816406 121.855469 412.472656 121.921875 L 412.140625 122.089844 C 412.246094 122 412.359375 121.945312 412.472656 121.921875 Z M 375.460938 121.421875 C 374.648438 120.296875 374.222656 121.152344 373.792969 122.15625 C 373.675781 122.429688 373.386719 123.023438 373.730469 123.253906 C 374.484375 123.757812 375.621094 122.6875 375.878906 122.042969 C 375.992188 121.757812 376.121094 121.296875 375.792969 121.132812 Z M 379.128906 105.351562 C 379.113281 103.621094 377.34375 102.578125 377.207031 100.925781 C 377.164062 100.445312 377.066406 99.480469 377.320312 99.0625 C 377.804688 98.253906 378.632812 98.167969 378.957031 97.199219 C 379.175781 96.539062 378.957031 96.050781 378.898438 95.394531 C 378.777344 94.078125 378.875 92.484375 379.238281 91.21875 C 379.621094 89.875 381.089844 87.960938 382.566406 87.773438 C 383.089844 87.710938 383.882812 87.546875 384.148438 88.171875 C 384.839844 89.789062 382.640625 91.320312 382.511719 92.742188 C 382.40625 93.882812 383.878906 93.519531 384.375 94.210938 C 384.855469 94.882812 384.410156 96.347656 384.203125 97.03125 C 383.890625 98.070312 382.695312 99.039062 382.117188 99.964844 C 381.777344 100.507812 381.445312 101.203125 382.058594 101.714844 C 383.023438 102.519531 383.769531 101.453125 384.316406 100.757812 C 384.894531 100.023438 385.5625 99.152344 386.011719 98.328125 C 386.242188 97.90625 386.230469 97.261719 386.574219 96.917969 C 387.621094 95.871094 389.019531 95.949219 390.242188 95.28125 C 391.324219 94.691406 393.554688 94.449219 394.023438 96.015625 C 394.878906 98.859375 391.78125 101.722656 389.621094 102.902344 C 388.859375 103.316406 387.207031 103.546875 386.855469 104.480469 C 386.632812 105.082031 387.292969 105.78125 387.648438 106.175781 C 388.769531 107.421875 390.507812 107.851562 391.710938 109.054688 C 392.34375 109.6875 393.128906 110.789062 392.386719 111.648438 C 392.074219 112.015625 390.941406 111.988281 390.527344 111.988281 C 389.484375 111.988281 388.273438 111.394531 387.421875 110.804688 C 386.804688 110.375 386.175781 109.621094 385.390625 109.503906 C 384.804688 109.417969 382.789062 109.011719 382.511719 109.84375 C 381.980469 111.4375 383.578125 112.8125 383.867188 114.246094 C 384.023438 115.03125 383.363281 116.117188 383.867188 116.785156 C 385.078125 118.402344 388.578125 120.195312 387.703125 122.824219 C 387.601562 123.128906 386.402344 123.519531 386.125 123.332031 C 385.636719 123.007812 385.402344 122.097656 385.050781 121.640625 C 384.535156 120.96875 383.800781 120.515625 383.300781 119.832031 C 382.152344 118.265625 380.335938 116.917969 379.519531 115.148438 C 379.164062 114.382812 379.1875 113.378906 379.125 112.550781 C 378.957031 110.402344 379.074219 108.148438 378.445312 106.0625 L 379.125 105.351562 Z M 379.3125 117.804688 C 378.3125 117.328125 376.078125 117.523438 376.300781 119.101562 C 376.480469 120.335938 377.882812 121.074219 378.558594 121.976562 C 378.867188 122.386719 379.078125 122.917969 379.539062 123.183594 C 380.421875 123.6875 380.453125 122.652344 381.042969 122.261719 C 381.234375 122.132812 381.460938 122.269531 381.664062 122.148438 C 381.796875 122.066406 381.90625 121.785156 381.832031 121.640625 C 381.328125 120.628906 379.4375 120.015625 379.351562 118.816406 Z M 416.332031 121.011719 C 415.851562 120.5625 415.339844 120.675781 414.835938 121.105469 C 414.730469 121.191406 414.40625 121.5625 414.476562 121.734375 C 414.554688 121.921875 415.148438 121.828125 415.195312 121.820312 C 415.640625 121.746094 416.53125 121.238281 416.363281 120.699219 Z M 127.914062 120.511719 C 127.601562 119.984375 127.203125 118.867188 126.492188 118.738281 C 125.460938 118.550781 124.210938 119.976562 124.410156 120.976562 C 124.515625 121.511719 125.449219 121.378906 125.746094 121.238281 C 126.515625 120.878906 127.46875 120.160156 127.09375 119.222656 Z M 178.171875 118.632812 C 177.90625 118.867188 177.820312 118.894531 177.613281 119.203125 C 177.058594 120.039062 178.191406 120.292969 178.535156 119.347656 C 178.648438 119.03125 178.675781 118.710938 178.675781 118.378906 Z M 374.996094 116.179688 C 373.800781 115.714844 372.945312 117.296875 372.816406 118.414062 C 372.769531 118.796875 372.757812 119.390625 373.171875 119.597656 C 373.644531 119.835938 374.160156 119.378906 374.441406 119.042969 C 375.085938 118.265625 375.519531 117.078125 374.996094 116.179688 Z M 130.019531 114.671875 C 129.503906 113.574219 128.753906 114.179688 127.792969 114.539062 C 126.660156 114.960938 125.246094 115.625 126.027344 117.1875 C 126.292969 117.71875 127.0625 117.703125 127.558594 117.699219 C 128.675781 117.6875 129.757812 117.605469 130.859375 117.464844 C 131.835938 117.34375 131.660156 118.910156 132.535156 118.164062 C 133.339844 117.472656 133.046875 116.785156 132.394531 115.980469 C 132.203125 115.746094 131.703125 115.1875 131.371094 115.1875 Z M 416.691406 115.515625 C 416.558594 115.335938 416.457031 115.121094 416.226562 115.042969 C 415.90625 114.933594 415.636719 115.421875 415.765625 115.679688 C 415.996094 116.140625 418.492188 116.851562 417.304688 117.871094 C 416.941406 118.183594 416.386719 117.941406 416.003906 117.871094 C 414.617188 117.609375 412.976562 117.550781 411.648438 117.109375 C 411.246094 116.972656 410.230469 117.054688 410.074219 116.523438 C 409.789062 115.527344 411.234375 114.394531 412.007812 114.007812 C 412.820312 113.601562 413.609375 113.683594 414.476562 113.605469 C 415.761719 113.488281 416.980469 113.246094 418.292969 113.246094 C 419.152344 113.246094 420.125 113.078125 420.851562 113.652344 C 422.097656 114.628906 423.0625 117.289062 420.671875 117.289062 C 420.417969 117.289062 420.105469 117.242188 419.863281 117.152344 C 418.835938 116.765625 418.183594 115.621094 417.082031 115.402344 L 416.695312 115.515625 Z M 374.996094 116.179688 C 375.054688 116.203125 375.117188 116.230469 375.179688 116.265625 L 374.722656 115.824219 C 374.832031 115.9375 374.925781 116.054688 374.996094 116.179688 Z M 51.863281 105.65625 C 51.71875 105.960938 51.605469 106.28125 51.589844 106.664062 L 52.75 105.539062 C 52.472656 105.539062 52.167969 105.609375 51.863281 105.65625 Z M 51.863281 105.65625 C 52.117188 105.113281 52.46875 104.625 52.558594 103.949219 C 52.644531 103.300781 51.839844 101.097656 51.289062 100.644531 C 50.511719 100.007812 49.554688 99.789062 48.871094 98.992188 C 48.269531 98.285156 47.777344 97.449219 47.21875 96.703125 C 47.089844 96.53125 46.546875 95.875 46.203125 96.132812 C 45.316406 96.796875 46.03125 99.0625 46.332031 99.882812 C 47.035156 101.820312 48.109375 103.09375 49.570312 104.457031 C 49.941406 104.800781 50.363281 105.394531 50.84375 105.601562 C 51.15625 105.742188 51.511719 105.710938 51.863281 105.65625 Z M 111.222656 105.261719 C 110.902344 104.730469 110.222656 105.464844 109.492188 105.296875 C 108.824219 105.140625 108.351562 104.613281 107.6875 104.433594 C 106.902344 104.21875 105.371094 104.773438 104.695312 104.09375 C 104.40625 103.804688 104.824219 102.476562 104.839844 102.113281 C 104.871094 101.4375 104.855469 100.933594 105.273438 100.378906 C 106.117188 99.25 107.691406 99.953125 108.605469 100.472656 C 110.28125 101.433594 112.105469 102.589844 111.742188 104.769531 C 111.722656 104.878906 111.453125 105.089844 111.222656 105.261719 C 111.238281 105.285156 111.253906 105.3125 111.265625 105.34375 L 110.921875 105.496094 C 110.960938 105.453125 111.085938 105.367188 111.222656 105.261719 Z M 126.578125 98.628906 C 126.738281 98.648438 126.902344 98.683594 127.066406 98.734375 L 126.578125 98.628906 C 125.617188 98.507812 124.695312 98.90625 124.144531 99.804688 C 123.902344 100.195312 123.601562 100.839844 123.867188 101.300781 C 124.335938 102.121094 125.597656 102.296875 126.214844 103.035156 C 126.539062 103.425781 126.957031 105.265625 127.515625 105.265625 C 127.835938 105.265625 128.0625 104.996094 128.257812 104.800781 C 129.265625 103.792969 129.328125 102.863281 129.421875 101.453125 C 129.496094 100.292969 130.070312 98.058594 128.226562 97.953125 C 127.964844 97.941406 127.5625 97.984375 127.3125 98.035156 C 126.820312 98.128906 126.355469 98.300781 125.886719 98.480469 Z M 122.148438 98.90625 C 121.066406 98.371094 120.304688 99.742188 119.84375 100.476562 C 119.660156 100.773438 119.515625 101.332031 119.84375 101.59375 C 120.714844 102.289062 122.449219 100.441406 122.679688 99.6875 C 122.808594 99.277344 122.902344 98.761719 122.355469 98.851562 Z M 103.359375 100.210938 C 101.828125 98.960938 101.066406 98.027344 100.179688 96.253906 C 100.019531 95.929688 99.519531 95.6875 99.605469 95.335938 C 99.78125 94.636719 101.570312 95.515625 101.839844 95.679688 C 103.367188 96.613281 103.503906 97.953125 103.503906 99.519531 Z M 96.0625 89.578125 C 95.820312 89.457031 95.367188 89.136719 95.019531 89.203125 C 93.886719 89.410156 92.066406 91.890625 92.726562 93.042969 C 93.203125 93.878906 94.5625 93.816406 95.203125 93.25 C 96.015625 92.527344 96.425781 91.109375 96.164062 90.0625 Z M 390.433594 86.300781 C 388.605469 84.769531 386.773438 87.085938 386.363281 88.871094 C 386.183594 89.652344 387.011719 90.585938 387.511719 91.121094 C 387.976562 91.613281 389.09375 90.84375 389.519531 90.640625 C 391.085938 89.90625 391.433594 89.300781 391.433594 87.578125 C 391.433594 87.199219 391.492188 86.726562 391.195312 86.429688 Z M 31.121094 81.964844 C 30.316406 81.257812 27.921875 80.410156 27.4375 82.117188 C 27.078125 83.363281 29.871094 84.035156 30.632812 83.617188 C 31.652344 83.0625 32.335938 82.089844 33.277344 81.460938 Z M 141.511719 76.8125 C 140.707031 74.769531 137.75 77.464844 137.90625 78.890625 C 137.984375 79.59375 138.835938 79.546875 139.34375 79.335938 C 140.316406 78.929688 141.226562 77.828125 141.226562 76.75 Z M 166.855469 63.863281 C 166.839844 63.964844 166.828125 64.054688 166.824219 64.113281 L 166.507812 63.964844 C 166.617188 63.933594 166.734375 63.898438 166.855469 63.863281 C 166.882812 63.652344 166.90625 63.390625 166.851562 63.277344 C 166.746094 63.066406 166.132812 63.308594 166.050781 63.335938 C 165.28125 63.574219 164.167969 64.066406 164.054688 64.996094 C 163.828125 66.804688 165.578125 67.46875 166.507812 68.667969 C 167.03125 69.335938 166.988281 70.84375 168.171875 70.84375 C 168.75 70.84375 169.226562 69.070312 169.316406 68.722656 C 169.65625 67.417969 169.90625 64.480469 168.226562 63.792969 C 167.800781 63.617188 167.304688 63.738281 166.855469 63.863281 Z M 166.855469 63.863281 "/></g></g><mask id="4f6db6f31e"><g filter="url(#c69cb9de2f)"><rect x="0" width="552" y="0" height="285.749983" style="fill:#000000;fill-opacity:0.27;stroke:none;"/></g></mask></g></g></g></svg>