<svg width="311" height="289" viewBox="0 0 311 289" fill="none" xmlns="http://www.w3.org/2000/svg">
<path d="M53.0854 162.269C53.1361 161.77 53.3677 161.307 53.7353 160.971C54.103 160.636 54.5802 160.451 55.0741 160.454H70.0771C70.3698 160.455 70.6587 160.521 70.9231 160.649C71.1874 160.777 71.4207 160.962 71.6061 161.192C71.7916 161.423 71.9246 161.692 71.9955 161.981C72.0665 162.269 72.0737 162.571 72.0166 162.862C71.9284 163.329 71.6799 163.748 71.3156 164.045C70.9512 164.343 70.4948 164.498 70.028 164.485H55.0671C54.7901 164.484 54.5163 164.424 54.2631 164.31C54.0099 164.196 53.7829 164.029 53.5965 163.821C53.4101 163.612 53.2684 163.367 53.1804 163.1C53.0924 162.833 53.0601 162.55 53.0854 162.269Z" fill="#263238"/>
<path d="M20.3604 283.286C20.4979 284.238 20.3544 285.211 19.9483 286.08C19.5421 286.95 18.8914 287.678 18.0785 288.171C17.2656 288.664 16.3271 288.902 15.3817 288.853C14.4362 288.803 13.5263 288.47 12.7671 287.895C12.0078 287.32 11.4334 286.529 11.1164 285.622C10.7994 284.715 10.7541 283.732 10.9862 282.799C11.2183 281.866 11.7175 281.023 12.4205 280.378C13.1234 279.734 13.9987 279.315 14.9354 279.176C16.1906 278.99 17.467 279.319 18.4842 280.089C19.5014 280.86 20.1762 282.009 20.3604 283.286Z" fill="#263238"/>
<path d="M16.6218 284.021L19.5381 277.89L18.0062 276.896L15.1812 283.3L16.6218 284.021Z" fill="#455A64"/>
<path d="M43.6485 208.534L61.7715 160.446L65.2148 162.204L47.654 209.856L43.6485 208.534Z" fill="#263238"/>
<path d="M1.80243 272.053L28.5776 282.872C29.0556 283.065 29.5895 283.057 30.0619 282.85C30.5342 282.643 30.9062 282.253 31.0962 281.767L57.7272 213.607C58.7333 211.032 58.6923 208.156 57.6132 205.611C56.5342 203.067 54.5054 201.063 51.9732 200.04L40.6885 195.48C38.1563 194.456 35.3281 194.498 32.8261 195.595C30.3241 196.693 28.3533 198.756 27.3471 201.331L0.716182 269.491C0.526239 269.977 0.533967 270.52 0.737678 271.001C0.941388 271.481 1.3244 271.859 1.80243 272.053Z" fill="#FF725E"/>
<path d="M1.80243 272.053L28.5776 282.872C29.0556 283.065 29.5895 283.057 30.0619 282.85C30.5342 282.643 30.9062 282.253 31.0962 281.767L57.7272 213.607C58.7333 211.032 58.6923 208.156 57.6132 205.611C56.5342 203.067 54.5054 201.063 51.9732 200.04L40.6885 195.48C38.1563 194.456 35.3281 194.498 32.8261 195.595C30.3241 196.693 28.3533 198.756 27.3471 201.331L0.716182 269.491C0.526239 269.977 0.533967 270.52 0.737678 271.001C0.941388 271.481 1.3244 271.859 1.80243 272.053Z" fill="#E7BF2D"/>
<path d="M31.1256 282.078C31.1256 282.078 31.1678 281.935 31.2661 281.664L31.7089 280.456L33.4516 275.818L39.9377 258.802C42.6993 251.62 45.974 243.08 49.6141 233.583L55.3412 218.697C55.8331 217.41 56.3391 216.11 56.838 214.795C57.367 213.509 57.5607 212.106 57.4002 210.721C57.2273 209.311 56.6834 207.973 55.8258 206.85C54.9682 205.728 53.8287 204.861 52.5273 204.341C51.2259 203.822 49.8108 203.669 48.4312 203.899C47.0515 204.129 45.7584 204.733 44.688 205.647C43.6493 206.555 42.8538 207.715 42.3761 209.021L40.8723 212.93C38.8765 218.089 36.9511 223.063 35.124 227.808L25.3633 252.992C22.5525 260.139 20.3248 265.935 18.7508 269.958L16.9377 274.567C16.7269 275.075 16.5723 275.475 16.4529 275.761C16.3334 276.047 16.2772 276.161 16.2772 276.161C16.2772 276.161 16.3194 276.018 16.4177 275.739L16.8605 274.532C17.261 273.46 17.8513 271.902 18.6032 269.901L25.0893 252.885L34.7657 227.666C36.5857 222.92 38.5041 217.939 40.4928 212.78C40.9847 211.486 41.4907 210.185 41.9966 208.87C42.488 207.487 43.3232 206.256 44.421 205.297C45.5485 204.333 46.911 203.696 48.3648 203.453C49.8186 203.211 51.3099 203.371 52.6813 203.919C54.0527 204.466 55.2535 205.38 56.157 206.563C57.0605 207.747 57.6332 209.156 57.8148 210.643C57.9847 212.1 57.7814 213.577 57.2245 214.931L55.7207 218.868C53.725 224.021 51.7995 229.002 49.9725 233.74C46.3043 243.202 42.9945 251.742 40.2187 258.888L33.6062 275.861L31.7861 280.463C31.5824 280.978 31.4207 281.371 31.3013 281.657C31.2512 281.801 31.1925 281.942 31.1256 282.078Z" fill="#263238"/>
<path d="M32.8548 233.64C32.7986 233.826 29.2991 232.418 25.0336 230.51C20.7681 228.602 17.3599 226.894 17.4161 226.715C17.4723 226.536 20.9789 227.93 25.2373 229.845C29.4958 231.76 32.911 233.454 32.8548 233.64Z" fill="#263238"/>
<path d="M56.5357 160.446L59.6628 154.157C60.0133 153.454 60.5989 152.902 61.3142 152.599L66.2332 150.512L79.4865 132.232L80.7373 146.232L72.3047 155.086C72.3047 155.086 67.0133 166.42 62.6916 165.841C62.7987 164.82 63.0943 163.829 63.5629 162.919C64.9683 160.446 63.4716 160.446 63.2748 160.46H59.6558L56.5357 160.446Z" fill="#FFBE9D"/>
<path d="M78.1729 150.778C77.7723 151.385 74.4976 155.902 74.4976 155.902L65.2148 149.034L68.5878 145.682L78.1729 150.778Z" fill="#3A59D1"/>
<path d="M63.5343 162.919C63.5343 162.919 61.1169 164.348 60.8148 165.506V166.221L63.71 165.792L63.5343 162.919Z" fill="#FFBE9D"/>
<path d="M60.2954 164.262C60.724 163.921 61.0582 163.473 61.2652 162.961C61.3584 162.703 61.354 162.419 61.2527 162.164C61.1514 161.909 60.9605 161.702 60.7171 161.582C60.2181 161.411 59.7052 161.775 59.3116 162.14C58.8177 162.589 58.3485 163.067 57.9062 163.569C57.6968 163.752 57.5328 163.982 57.4278 164.242C57.3228 164.502 57.2796 164.783 57.3019 165.063C57.3668 165.28 57.4962 165.471 57.6724 165.611C57.8485 165.75 58.0627 165.831 58.2857 165.842C58.51 165.846 58.733 165.805 58.9409 165.719C59.1488 165.633 59.3371 165.504 59.4943 165.341C59.8074 165.02 60.0578 164.642 60.2322 164.226" fill="#FFBE9D"/>
<path d="M57.8433 164.048C58.2719 163.707 58.606 163.259 58.813 162.747C58.9063 162.489 58.9018 162.205 58.8005 161.95C58.6992 161.695 58.5083 161.488 58.2649 161.368C57.766 161.196 57.253 161.561 56.8595 161.925C56.3655 162.375 55.8963 162.852 55.4541 163.355C55.2446 163.537 55.0807 163.768 54.9757 164.028C54.8706 164.287 54.8275 164.568 54.8497 164.848C54.9147 165.065 55.0441 165.257 55.2202 165.396C55.3964 165.536 55.6106 165.616 55.8335 165.627C56.0578 165.632 56.2807 165.59 56.4885 165.504C56.6963 165.418 56.8847 165.289 57.0422 165.127C57.3553 164.806 57.6056 164.428 57.78 164.012" fill="#FFBE9D"/>
<path d="M65.2148 153.314C65.2148 153.229 64.5894 153.257 63.8656 153.893C63.529 154.311 63.2478 154.773 63.0294 155.265C62.7022 155.864 62.5373 156.539 62.5515 157.224C62.6523 157.896 62.9128 158.534 63.3105 159.082C63.5794 159.522 63.7742 160.005 63.8867 160.511C63.9887 160.98 64.0218 161.461 63.9851 161.94C64.107 161.717 64.1834 161.471 64.21 161.217C64.2365 160.962 64.2126 160.705 64.1397 160.461C64.0551 159.919 63.8715 159.398 63.5986 158.924C63.2414 158.413 63.0013 157.827 62.8959 157.209C62.8879 156.588 63.0303 155.975 63.3105 155.423C63.4954 154.948 63.7311 154.495 64.0132 154.072C64.2548 153.829 64.5292 153.622 64.8283 153.457C64.9544 153.402 65.0835 153.355 65.2148 153.314Z" fill="#EB996E"/>
<path d="M165.218 88.8101L175.07 120.84L146.09 151.62L119.535 144.602L165.218 88.8101Z" fill="#E45151"/>
<path d="M165.226 88.8032L165.001 89.0676L164.333 89.868L161.747 92.9982L152.113 104.683L119.388 144.488L119.205 144.71L119.479 144.781L134.447 148.74L146.035 151.799H146.14L146.21 151.72L175.176 120.962L175.232 120.898V120.819C172.183 111.007 169.681 102.996 167.945 97.4218C167.088 94.6633 166.413 92.5122 165.95 91.0401L165.43 89.3821C165.31 89.0176 165.254 88.8318 165.254 88.8318C165.591 89.9538 169.056 101.409 174.958 120.905L174.994 120.762L145.992 151.492L146.168 151.441L134.58 148.376L119.612 144.417L119.704 144.717L152.134 104.926L161.733 93.1339L164.319 89.9395L165.022 89.1105L165.226 88.8032Z" fill="#E45151"/>
<path d="M164.319 109.935C163.951 109.354 163.472 108.854 162.909 108.465C162.346 108.076 161.713 107.807 161.045 107.674C160.378 107.54 159.691 107.545 159.025 107.688C158.36 107.831 157.73 108.109 157.173 108.506C155.36 109.935 154.523 112.63 152.345 113.344C150.771 113.859 149.035 113.108 147.426 113.401C145.522 113.752 144.102 115.545 143.554 117.403C143.006 119.261 143.154 121.312 143.308 123.278L152.732 123.406L164.319 109.935Z" fill="#E45151"/>
<path d="M181.746 91.7334L120.68 155.729L145.563 153.164L180.369 115.795L181.746 91.7334Z" fill="#E45151"/>
<path d="M181.739 91.7334C181.683 92.6696 181.177 100.902 180.25 115.788V115.71C171.346 125.243 159.168 138.271 145.402 153.042L145.514 152.985L126.421 154.943L120.631 155.544L120.779 155.858C154.734 120.126 180.362 93.1555 181.704 91.7334L120.519 155.601L120.167 155.965L120.666 155.915L126.464 155.315L145.549 153.343H145.613L145.662 153.3C159.407 138.499 171.55 125.429 180.425 115.888V115.845C181.268 100.909 181.697 92.6696 181.739 91.7334Z" fill="#263238"/>
<path d="M157.847 117.167C159.731 119.376 159.457 122.885 157.847 125.322C156.238 127.758 153.582 129.231 150.898 130.281C148.726 131.132 146.049 131.668 144.25 130.167" fill="#E45151"/>
<path d="M161.023 113.688C160.911 114.224 161.571 114.624 162.105 114.574C162.64 114.524 163.131 114.216 163.673 114.188C165.141 114.102 165.942 115.874 167.137 116.739C167.857 117.218 168.733 117.392 169.578 117.225C170.423 117.059 171.17 116.564 171.662 115.846C172.464 114.581 172.442 112.708 173.707 111.93C174.452 111.559 175.305 111.48 176.104 111.708C176.894 111.932 177.716 112.019 178.535 111.965C178.943 111.927 179.326 111.747 179.619 111.455C179.912 111.164 180.098 110.779 180.144 110.364L180.587 109.65L181.627 91.9839L161.023 113.688Z" fill="#E45151"/>
<path d="M131.263 154.436C130.95 154.517 130.624 154.532 130.304 154.48C129.985 154.427 129.68 154.309 129.408 154.132C129.135 153.956 128.901 153.724 128.72 153.452C128.538 153.18 128.414 152.873 128.354 152.55C128.276 151.84 128.467 151.128 128.889 150.558C129.311 149.988 129.932 149.603 130.624 149.484C131.867 149.319 133.153 150.055 134.348 149.677C135.711 149.241 136.274 147.633 136.618 146.225C136.962 144.817 137.447 143.209 138.768 142.652C140.954 141.751 143.259 144.603 145.542 143.974C147.236 143.509 147.889 141.437 149.218 140.272C149.755 139.809 150.4 139.494 151.092 139.356C151.783 139.218 152.497 139.263 153.167 139.486C153.775 139.637 154.326 139.965 154.754 140.429C155.182 140.894 155.468 141.475 155.577 142.101L145.493 152.914L131.263 154.436Z" fill="#E45151"/>
<path d="M147.959 262.589L150.467 277.297C150.467 277.297 166.012 279.641 166.735 282.299L138.866 288.274L134.031 265.519L147.959 262.589Z" fill="#FF725E"/>
<g opacity="0.6">
<path d="M141.593 277.918C141.342 278.058 141.151 278.287 141.056 278.561C140.961 278.836 140.97 279.136 141.08 279.404C141.208 279.664 141.43 279.864 141.7 279.962C141.969 280.061 142.265 280.05 142.527 279.933C142.793 279.784 142.995 279.54 143.094 279.248C143.192 278.956 143.181 278.637 143.061 278.354C142.899 278.096 142.645 277.913 142.353 277.843C142.061 277.772 141.753 277.819 141.494 277.975" fill="white"/>
</g>
<path opacity="0.6" d="M138.866 288.288L138.36 286.044L165.316 281.141C165.316 281.141 166.665 281.427 166.722 282.342L138.866 288.288Z" fill="white"/>
<path d="M150.89 277.054C150.89 277.197 150.243 277.404 149.667 277.99C149.091 278.576 148.852 279.241 148.718 279.212C148.585 279.183 148.62 278.34 149.33 277.64C150.039 276.939 150.89 276.925 150.89 277.054Z" fill="#263238"/>
<path d="M154.066 277.662C154.122 277.79 153.581 278.148 153.244 278.834C152.907 279.52 152.9 280.163 152.759 280.191C152.619 280.22 152.373 279.477 152.815 278.605C153.258 277.733 154.038 277.526 154.066 277.662Z" fill="#263238"/>
<path d="M156.463 280.863C156.343 280.92 156.013 280.27 156.203 279.434C156.393 278.598 156.969 278.162 157.053 278.269C157.137 278.376 156.828 278.862 156.674 279.548C156.519 280.234 156.596 280.82 156.463 280.863Z" fill="#263238"/>
<path d="M149.949 273.766C149.949 273.909 149.246 273.852 148.494 274.066C147.742 274.281 147.194 274.66 147.089 274.559C146.983 274.459 147.468 273.845 148.361 273.595C149.253 273.345 149.998 273.645 149.949 273.766Z" fill="#263238"/>
<path opacity="0.3" d="M148.452 265.505L148.901 268.121L135.177 270.929L134.671 268.593L148.452 265.505Z" fill="black"/>
<path d="M149.394 270.808C148.959 271.031 148.474 271.132 147.988 271.101C147.464 271.122 146.94 271.074 146.428 270.958C146.128 270.89 145.833 270.804 145.543 270.701C145.367 270.646 145.201 270.564 145.051 270.458C144.943 270.379 144.864 270.266 144.824 270.137C144.785 270.008 144.788 269.87 144.833 269.743C144.883 269.632 144.957 269.535 145.049 269.458C145.142 269.381 145.251 269.327 145.367 269.3C145.542 269.261 145.722 269.249 145.901 269.264C146.747 269.289 147.572 269.535 148.297 269.979C149.07 270.45 149.401 270.915 149.358 270.958C149.316 271.001 148.902 270.651 148.143 270.286C147.437 269.955 146.671 269.774 145.894 269.757C145.585 269.757 145.332 269.793 145.283 269.943C145.233 270.093 145.283 270.022 145.346 270.1C145.458 270.174 145.578 270.234 145.704 270.279C145.976 270.381 146.253 270.47 146.533 270.543C147.012 270.671 147.501 270.752 147.995 270.786C148.461 270.761 148.928 270.768 149.394 270.808Z" fill="#263238"/>
<path d="M149.253 271.037C149.211 271.072 148.838 270.636 148.599 269.75C148.47 269.23 148.428 268.691 148.473 268.157C148.495 267.836 148.554 267.52 148.648 267.213C148.685 267.01 148.772 266.821 148.901 266.662C149.03 266.503 149.197 266.38 149.386 266.306C149.511 266.286 149.639 266.3 149.757 266.348C149.874 266.396 149.977 266.475 150.054 266.577C150.16 266.729 150.245 266.895 150.307 267.07C150.421 267.375 150.487 267.695 150.504 268.021C150.537 268.57 150.438 269.12 150.215 269.622C149.822 270.472 149.288 270.758 149.267 270.715C149.246 270.672 149.625 270.286 149.892 269.486C150.051 269.028 150.108 268.54 150.061 268.056C150.031 267.777 149.965 267.503 149.864 267.242C149.759 266.956 149.597 266.734 149.492 266.792C149.386 266.849 149.161 267.092 149.098 267.356C149.008 267.624 148.943 267.899 148.901 268.178C148.833 268.669 148.833 269.167 148.901 269.657C149.07 270.522 149.323 271.037 149.253 271.037Z" fill="#263238"/>
<path d="M56.3815 263.483L62.4038 255.479L62.72 255.064L73.0078 262.833L63.5001 273.452L63.8444 284.208C69.1429 285.594 69.9369 288.288 69.9369 288.288H58.9324L48.9327 268.707L56.3815 263.483Z" fill="#FF725E"/>
<path opacity="0.6" d="M48.9118 268.693L58.9115 288.274L69.916 288.288L68.6792 286.602L59.7266 286.094L50.5 267.585L48.9118 268.693Z" fill="white"/>
<path d="M63.7598 279.277C63.6755 279.391 63.0571 279.027 62.1928 279.048C61.3284 279.069 60.7171 279.434 60.6327 279.32C60.5484 279.205 61.1457 278.605 62.1857 278.555C63.2258 278.505 63.8723 279.191 63.7598 279.277Z" fill="#263238"/>
<path d="M63.585 276.611C63.4726 276.69 62.9877 276.032 62.1093 275.854C61.2309 275.675 60.5282 276.09 60.458 275.975C60.3877 275.861 60.5423 275.732 60.8515 275.561C61.2688 275.351 61.7426 275.288 62.199 275.381C62.6553 275.474 63.0686 275.718 63.3742 276.075C63.5921 276.361 63.6412 276.583 63.585 276.611Z" fill="#263238"/>
<path d="M63.6548 273.181C63.5353 273.245 63.1629 272.595 62.3969 272.323C61.6309 272.052 60.9423 272.323 60.8861 272.18C60.8298 272.038 60.9915 271.973 61.3007 271.859C61.7073 271.71 62.1519 271.71 62.5585 271.859C62.9623 272.008 63.3059 272.29 63.5353 272.659C63.704 272.952 63.718 273.181 63.6548 273.181Z" fill="#263238"/>
<path d="M66.6062 270.536C66.4727 270.579 66.1635 269.943 65.4819 269.493C64.8002 269.043 64.1186 268.978 64.0764 268.836C64.0343 268.693 64.8986 268.514 65.7208 269.086C66.543 269.657 66.7397 270.522 66.6062 270.536Z" fill="#263238"/>
<path d="M68.0397 268.235C67.9835 268.271 67.6251 267.82 67.084 267.063L66.1494 265.719C65.939 265.443 65.7686 265.137 65.6434 264.812C65.6057 264.694 65.5918 264.571 65.6027 264.448C65.6135 264.325 65.6489 264.206 65.7067 264.097C65.774 263.98 65.8724 263.886 65.9906 263.824C66.1088 263.762 66.2418 263.735 66.3743 263.747C66.7611 263.822 67.1177 264.011 67.4002 264.29C67.6706 264.511 67.9074 264.771 68.1029 265.062C68.4156 265.55 68.6128 266.105 68.6792 266.684C68.7943 267.205 68.7061 267.75 68.4332 268.206C68.4303 267.714 68.3998 267.223 68.3419 266.734C68.2374 266.221 68.0318 265.735 67.7375 265.305C67.5646 265.058 67.3615 264.835 67.1332 264.64C66.9172 264.44 66.6569 264.295 66.3743 264.219C66.3326 264.213 66.2903 264.22 66.2528 264.239C66.2152 264.258 66.1841 264.289 66.1635 264.326C66.1269 264.427 66.1269 264.539 66.1635 264.64C66.277 264.915 66.4208 265.177 66.5921 265.419C66.8732 265.898 67.1543 266.362 67.4354 266.848C67.7083 267.275 67.9123 267.743 68.0397 268.235Z" fill="#263238"/>
<path d="M68.4333 268.571C68.3841 268.571 68.4333 267.978 69.0236 267.306C69.4295 266.86 69.9671 266.56 70.5553 266.452C71.1434 266.343 71.7503 266.432 72.2842 266.706C72.3403 266.755 72.3851 266.817 72.4154 266.886C72.4457 266.955 72.4609 267.03 72.4599 267.106C72.4529 267.236 72.4063 267.361 72.3264 267.463C72.2121 267.598 72.0796 267.716 71.9329 267.813C71.6887 267.99 71.4273 268.141 71.1528 268.264C70.6945 268.478 70.2061 268.618 69.7053 268.678C69.2486 268.778 68.7729 268.733 68.342 268.549C68.342 268.471 68.862 268.507 69.649 268.335C70.1032 268.234 70.5425 268.073 70.9561 267.856C71.2019 267.731 71.437 267.585 71.6588 267.42C71.7661 267.351 71.8631 267.267 71.9469 267.17C71.9961 267.07 71.9469 267.099 71.9469 267.07C71.848 267.009 71.7382 266.967 71.6237 266.949C71.4891 266.92 71.353 266.898 71.2161 266.884C70.9548 266.867 70.6923 266.886 70.4361 266.942C69.9961 267.043 69.5879 267.254 69.2485 267.556C68.6723 268.085 68.5106 268.6 68.4333 268.571Z" fill="#263238"/>
<path opacity="0.6" d="M57.6953 268.357C57.6953 268.619 57.6187 268.876 57.475 269.095C57.3314 269.314 57.1273 269.484 56.8885 269.585C56.6496 269.685 56.3868 269.712 56.1333 269.66C55.8797 269.609 55.6468 269.482 55.464 269.296C55.2813 269.111 55.1568 268.874 55.1063 268.616C55.0559 268.358 55.0818 268.091 55.1807 267.848C55.2796 267.605 55.4472 267.397 55.6621 267.251C55.8771 267.105 56.1298 267.027 56.3883 267.027C56.7349 267.027 57.0674 267.167 57.3125 267.417C57.5576 267.666 57.6953 268.004 57.6953 268.357Z" fill="white"/>
<path opacity="0.3" d="M72.0303 263.897L69.9151 266.263L61.0258 257.308L62.2625 255.672L72.0303 263.897Z" fill="black"/>
<path d="M99.3946 77.5194C93.5138 75.4412 87.1656 75.1482 81.1239 76.6761C78.4466 77.355 75.7271 78.4841 74.0125 80.6852C71.9816 83.2865 71.7286 86.8311 71.4124 90.1399C70.7773 96.8702 69.5592 103.53 67.7723 110.043C66.2826 115.46 64.3993 120.762 63.5912 126.358C62.783 131.954 63.1555 137.878 65.9453 142.737C70.2459 150.227 79.3882 153.536 87.9122 153.686C92.3955 153.757 96.9913 153.093 100.969 150.977C104.946 148.862 108.256 145.167 109.226 140.715" fill="#FF725E"/>
<path d="M99.3946 77.5194C93.5138 75.4412 87.1656 75.1482 81.1239 76.6761C78.4466 77.355 75.7271 78.4841 74.0125 80.6852C71.9816 83.2865 71.7286 86.8311 71.4124 90.1399C70.7773 96.8702 69.5592 103.53 67.7723 110.043C66.2826 115.46 64.3993 120.762 63.5912 126.358C62.783 131.954 63.1555 137.878 65.9453 142.737C70.2459 150.227 79.3882 153.536 87.9122 153.686C92.3955 153.757 96.9913 153.093 100.969 150.977C104.946 148.862 108.256 145.167 109.226 140.715" fill="#263238"/>
<path d="M87.6738 84.3794C86.7506 85.1995 85.9315 86.1333 85.2354 87.1593C84.5119 88.2981 83.8776 89.4928 83.3381 90.7326C82.6773 92.2721 81.9191 93.7664 81.0683 95.2062C80.1938 96.665 78.9892 97.8901 77.5547 98.7794C76.3556 99.5082 74.944 99.7888 73.5633 99.5727C72.6384 99.438 71.7718 99.0334 71.0686 98.4078C70.8816 98.2364 70.7164 98.0419 70.5767 97.8289C70.4784 97.686 70.4362 97.6074 70.4502 97.6002C70.4643 97.5931 70.6892 97.8718 71.153 98.2649C71.859 98.8097 72.6966 99.1504 73.5773 99.2511C74.8814 99.4087 76.1995 99.1114 77.3158 98.4078C78.6816 97.5316 79.829 96.3452 80.6677 94.9418C81.5071 93.5176 82.2649 92.0454 82.9375 90.5325C83.5044 89.283 84.1794 88.0872 84.9543 86.9592C85.4809 86.1951 86.1074 85.5075 86.8165 84.9154C87.0699 84.688 87.3599 84.5067 87.6738 84.3794Z" fill="#E0E0E0"/>
<path d="M75.3258 151.32C75.3078 151.132 75.3078 150.943 75.3258 150.755C75.3258 150.341 75.3258 149.812 75.3258 149.155C75.3258 147.768 75.4242 145.753 75.5296 143.273C75.7475 138.271 76.127 131.439 76.7172 123.878C77.3075 116.317 77.9751 109.471 78.5232 104.532C78.8043 102.06 79.0432 100.059 79.2259 98.6866C79.3103 98.0363 79.3876 97.5074 79.4438 97.1001C79.4611 96.9136 79.4964 96.7293 79.5492 96.5498C79.5708 96.735 79.5708 96.9221 79.5492 97.1072C79.514 97.5217 79.4649 98.0506 79.4157 98.7009C79.2751 100.13 79.0854 102.131 78.8605 104.561C78.3897 109.513 77.7643 116.353 77.181 123.913C76.5978 131.474 76.1621 138.328 75.867 143.287C75.7194 145.724 75.5999 147.718 75.5156 149.162L75.4032 150.762C75.3935 150.95 75.3676 151.137 75.3258 151.32Z" fill="#E0E0E0"/>
<path d="M77.0771 120.962C77.0771 121.084 74.3857 121.055 71.097 120.633C67.8083 120.212 65.1942 119.583 65.2153 119.468C65.2364 119.354 67.8786 119.769 71.1532 120.183C74.4279 120.598 77.0842 120.805 77.0771 120.962Z" fill="#E0E0E0"/>
<path d="M74.9052 120.87C75.1189 121.271 75.2437 121.715 75.2706 122.17C75.3517 122.655 75.401 123.144 75.4181 123.635C75.4423 123.956 75.3892 124.277 75.2635 124.571C75.1851 124.751 75.0583 124.904 74.8979 125.012C74.7374 125.121 74.5499 125.181 74.357 125.186C74.2474 125.191 74.1381 125.169 74.038 125.123C73.938 125.078 73.8499 125.008 73.7808 124.922C73.6592 124.766 73.588 124.577 73.577 124.379C73.5676 124.069 73.6104 123.759 73.7035 123.464C73.8212 122.974 73.9811 122.496 74.1814 122.034C74.5257 121.27 74.8489 120.862 74.8841 120.891C74.7849 121.326 74.6436 121.749 74.4625 122.156C74.3146 122.606 74.1903 123.064 74.09 123.528C74.025 123.782 73.9966 124.045 74.0057 124.307C74.0057 124.55 74.1462 124.7 74.343 124.7C74.8138 124.7 75.0035 124.121 74.9825 123.607C74.9614 123.092 74.9825 122.585 74.9403 122.177C74.8747 121.745 74.8629 121.305 74.9052 120.87Z" fill="#E0E0E0"/>
<path d="M105.191 80.1054L76.9582 76.7528C73.2615 76.3139 70.6146 72.9103 71.0462 69.1508L71.6583 63.8201C72.0899 60.0606 75.4367 57.3688 79.1334 57.8078L107.367 61.1604C111.063 61.5994 113.71 65.0029 113.279 68.7624L112.666 74.0931C112.235 77.8526 108.888 80.5444 105.191 80.1054Z" fill="#455A64"/>
<path d="M79.6068 58.2664C79.6068 58.2664 79.6911 58.2092 79.8738 58.1521C80.1438 58.0737 80.4224 58.0305 80.7031 58.0234C81.7529 58.0278 82.7715 58.3874 83.5982 59.0454C84.864 59.9513 85.8684 61.185 86.5075 62.6186C87.2218 64.3912 87.497 66.3152 87.3086 68.2214C87.2067 70.1444 86.5437 71.993 85.4042 73.5312C84.4685 74.7873 83.1832 75.7285 81.715 76.2325C80.7382 76.5747 79.6989 76.6919 78.6722 76.5755C78.3935 76.5442 78.1183 76.4868 77.85 76.404C77.6673 76.3468 77.576 76.3111 77.583 76.2968C77.59 76.2825 77.9765 76.354 78.6862 76.3969C79.6819 76.4409 80.6761 76.2805 81.6095 75.9252C82.9945 75.405 84.199 74.4832 85.074 73.2739C86.1389 71.7889 86.7566 70.0211 86.8518 68.1856C87.045 66.3558 86.804 64.5056 86.1491 62.7901C85.5493 61.4171 84.6129 60.2236 83.4296 59.3241C82.6646 58.6807 81.7213 58.296 80.7311 58.2235C80.0003 58.1735 79.6138 58.3093 79.6068 58.2664Z" fill="#263238"/>
<path d="M95.7409 59.7177L91.384 59.2817C92.5487 59.6439 93.5464 60.4201 94.1949 61.4685C94.8265 62.5109 95.2337 63.6776 95.3895 64.8917C96.1695 69.987 93.5062 75.4612 89.2267 78.2197L92.7403 78.6914C92.7403 78.6914 102.789 69.5654 95.769 59.7177" fill="#263238"/>
<path d="M100.674 69.0934C99.551 69.4094 98.371 69.4538 97.2284 69.2228C96.0857 68.9919 95.012 68.4921 94.0934 67.7635C93.1747 67.0348 92.4366 66.0976 91.938 65.0267C91.4394 63.9559 91.1943 62.7812 91.2223 61.5968C91.2715 59.4028 92.2553 57.1589 91.5807 55.065C91.1169 53.6357 89.9363 52.5066 89.5358 51.0558C88.9455 48.8762 90.2385 46.6822 91.4682 44.8099C92.2005 43.5658 93.1125 42.4408 94.1737 41.4725C94.7078 40.9901 95.3397 40.6332 96.0247 40.4269C96.7096 40.2207 97.4308 40.1702 98.137 40.2791" fill="#263238"/>
<path d="M120.631 40.4722C120.512 42.1301 121.587 43.6166 122.676 44.8601C123.766 46.1035 124.967 47.4113 125.206 49.055C125.621 51.9779 122.81 54.6864 123.386 57.5807C123.702 59.1314 124.946 60.3749 125.171 61.94C125.396 63.505 124.588 64.9415 123.597 66.092C122.606 67.2426 121.404 68.236 120.526 69.4508C119.692 70.8244 118.986 72.2743 118.418 73.7816C117.851 75.3 116.818 76.5928 115.473 77.4691C113.365 78.6268 110.442 78.0837 108.84 79.8775C107.238 81.6712 105.382 81.8784 103.471 83.1862" fill="#263238"/>
<path d="M95.4948 43.0093C95.4526 41.5085 96.8229 40.3436 98.2002 39.7934C99.5775 39.2431 101.116 39.0287 102.346 38.1854C103.435 37.4708 104.166 36.2845 105.087 35.3269C106.225 34.1594 107.648 33.32 109.21 32.8946C110.771 32.4691 112.416 32.4727 113.976 32.9051C115.536 33.3375 116.955 34.1831 118.088 35.3556C119.222 36.5281 120.029 37.9855 120.427 39.579C120.954 41.7229 120.596 44.2599 118.93 45.6892C116.998 47.34 114.138 46.9755 111.664 46.461C109.191 45.9464 106.394 45.439 104.328 46.9183C103.084 47.8045 102.374 49.2552 101.608 50.5987C100.842 51.9423 99.8937 53.3072 98.4532 53.8075C97.0126 54.3077 95.0591 53.443 95.0028 51.8994" fill="#263238"/>
<path d="M101.361 43.3236C100.745 43.3899 100.175 43.69 99.7662 44.1641C99.3573 44.6382 99.139 45.2516 99.1548 45.8821L100.63 79.9275C100.694 83.951 106.47 86.2092 110.707 86.1092C114.98 86.0091 115.12 83.8724 115.17 80.049C115.261 73.6601 115.254 71.259 115.254 71.2947C115.254 71.3304 120.658 70.3728 121.761 63.2049C122.309 59.6317 122.12 53.7931 121.81 49.0193C121.536 44.7315 118.725 39.4503 114.509 39.9077L101.361 43.3236Z" fill="#FFBE9D"/>
<path d="M120.476 53.1146C120.48 53.3548 120.391 53.5869 120.228 53.7607C120.065 53.9346 119.841 54.0362 119.605 54.0437C119.491 54.0514 119.376 54.036 119.268 53.9985C119.16 53.9609 119.06 53.9018 118.975 53.8247C118.889 53.7476 118.819 53.654 118.769 53.5493C118.72 53.4446 118.691 53.3308 118.685 53.2147C118.681 52.9757 118.769 52.7447 118.931 52.571C119.092 52.3974 119.314 52.295 119.549 52.2857C119.664 52.2769 119.779 52.2916 119.888 52.3287C119.997 52.3658 120.098 52.4247 120.184 52.5019C120.27 52.5791 120.341 52.6731 120.391 52.7783C120.441 52.8835 120.47 52.9979 120.476 53.1146Z" fill="#263238"/>
<path d="M120.575 52.0567C120.462 52.1782 119.773 51.6637 118.804 51.6708C117.834 51.678 117.117 52.1711 117.012 52.0496C116.906 51.9281 117.075 51.778 117.384 51.5493C117.798 51.26 118.287 51.1032 118.79 51.0991C119.294 51.0979 119.785 51.2579 120.195 51.5565C120.525 51.7923 120.631 52.0067 120.575 52.0567Z" fill="#263238"/>
<path d="M110.793 53.3642C110.797 53.6044 110.707 53.8364 110.544 54.0103C110.381 54.1841 110.158 54.2857 109.921 54.2932C109.807 54.3029 109.692 54.2892 109.583 54.2529C109.474 54.2166 109.373 54.1584 109.287 54.0817C109.2 54.0051 109.13 53.9116 109.08 53.8067C109.029 53.7019 109 53.5879 108.994 53.4714C108.99 53.2316 109.078 52.9998 109.239 52.825C109.401 52.6503 109.623 52.5463 109.858 52.5352C109.973 52.5264 110.089 52.541 110.198 52.5781C110.308 52.6151 110.409 52.6739 110.496 52.751C110.583 52.8282 110.654 52.9221 110.705 53.0273C110.756 53.1326 110.786 53.2471 110.793 53.3642Z" fill="#263238"/>
<path d="M111.011 52.2639C110.898 52.3854 110.216 51.8709 109.24 51.878C108.263 51.8852 107.56 52.3783 107.455 52.2568C107.349 52.1353 107.511 51.9852 107.827 51.7566C108.239 51.4622 108.73 51.3049 109.233 51.3063C109.737 51.3001 110.231 51.4606 110.638 51.7637C110.954 51.9924 111.067 52.2139 111.011 52.2639Z" fill="#263238"/>
<path d="M114.56 59.5959C115.072 59.4292 115.604 59.3284 116.141 59.2958C116.387 59.2958 116.619 59.2243 116.661 59.0528C116.686 58.7916 116.63 58.529 116.499 58.3024L115.754 56.3801C115.073 54.7593 114.519 53.0867 114.096 51.3776C114.208 51.3347 115.129 53.5215 116.148 56.2514C116.401 56.9661 116.633 57.5735 116.851 58.1881C117.01 58.4899 117.057 58.8399 116.984 59.1743C116.948 59.2633 116.892 59.343 116.822 59.4073C116.751 59.4716 116.667 59.519 116.576 59.5459C116.439 59.5852 116.297 59.6068 116.155 59.6102C115.624 59.6699 115.089 59.6651 114.56 59.5959Z" fill="#263238"/>
<path d="M115.255 71.2947C111.94 71.3642 108.671 70.4984 105.81 68.7935C105.81 68.7935 108.143 73.6745 115.171 72.9884L115.255 71.2947Z" fill="#EB996E"/>
<path d="M114.152 61.9753C113.965 61.7401 113.723 61.5566 113.448 61.4417C113.173 61.3268 112.873 61.2842 112.578 61.3178C112.363 61.3396 112.156 61.4045 111.966 61.5088C111.777 61.6131 111.61 61.7546 111.475 61.9253C111.345 62.0907 111.269 62.2926 111.256 62.5036C111.244 62.7145 111.296 62.9243 111.404 63.1044C111.561 63.2806 111.765 63.4053 111.992 63.4626C112.219 63.5199 112.457 63.5072 112.676 63.426C113.136 63.2607 113.559 63.0031 113.92 62.6685C114.03 62.5911 114.124 62.4914 114.194 62.3755C114.232 62.3227 114.253 62.2588 114.253 62.1933C114.253 62.1277 114.232 62.0638 114.194 62.011" fill="#EB996E"/>
<path d="M111.7 60.2819C111.854 60.2819 111.861 61.3467 112.768 62.1042C113.674 62.8617 114.798 62.7474 114.806 62.8975C114.813 63.0475 114.553 63.1047 114.103 63.119C113.484 63.1318 112.88 62.9189 112.402 62.5187C111.939 62.1395 111.641 61.5902 111.573 60.9894C111.51 60.5463 111.657 60.2747 111.7 60.2819Z" fill="#263238"/>
<path d="M111.447 50.5345C111.356 50.799 110.379 50.6775 109.24 50.8204C108.102 50.9633 107.174 51.2778 107.027 51.0419C106.956 50.9205 107.118 50.6703 107.491 50.4059C107.983 50.0822 108.544 49.8814 109.128 49.8199C109.712 49.7485 110.304 49.817 110.857 50.02C111.278 50.213 111.489 50.4059 111.447 50.5345Z" fill="#263238"/>
<path d="M120.21 49.1974C120.041 49.4189 119.367 49.1974 118.566 49.1974C117.764 49.1974 117.076 49.3475 116.921 49.1116C116.851 49.0045 116.956 48.7758 117.251 48.5614C117.652 48.3046 118.118 48.175 118.591 48.189C119.064 48.203 119.523 48.36 119.908 48.64C120.189 48.8544 120.287 49.0902 120.21 49.1974Z" fill="#263238"/>
<path d="M96.4439 66.8997C97.4178 67.0993 98.4244 67.0603 99.3806 66.786C100.337 66.5117 101.215 66.0099 101.943 65.3222C102.671 64.6344 103.227 63.7804 103.566 62.8307C103.905 61.881 104.017 60.8629 103.893 59.8605C103.668 58.1025 102.74 56.2873 103.338 54.6436C104.132 52.4425 107.167 51.785 107.975 49.5696C108.439 48.2904 108.018 46.7968 108.552 45.5462C109.086 44.2956 110.266 43.6882 111.454 43.2522C112.675 42.9318 113.84 42.4181 114.904 41.73C115.902 40.9439 116.52 39.4575 115.881 38.3569C110.616 38.9947 105.444 40.2711 100.477 42.1588C99.332 42.5948 98.1233 43.1236 97.4417 44.1598C96.7601 45.196 96.739 46.6825 96.8163 48.0046L97.7017 67.2999" fill="#263238"/>
<path d="M92.6483 72.86C92.6514 72.2456 92.7757 71.6381 93.0137 71.0734C93.3051 70.4197 93.7125 69.8262 94.2153 69.3225C94.8909 68.666 95.6581 68.1146 96.4921 67.686C97.4127 67.1786 98.4738 66.7141 99.556 66.0852C100.748 65.4405 101.754 64.4894 102.472 63.3267C102.849 62.6764 103.053 61.9374 103.063 61.1827C103.032 60.4164 102.926 59.6551 102.746 58.9102C102.551 58.1772 102.5 57.412 102.599 56.6591C102.675 56.2887 102.831 55.9402 103.056 55.6387C103.281 55.3372 103.569 55.0901 103.899 54.9153C104.601 54.5151 105.304 54.265 106.042 53.922C106.797 53.6109 107.435 53.0625 107.862 52.3569C108.218 51.6568 108.401 50.8795 108.396 50.0915C108.396 49.3411 108.396 48.6194 108.396 47.9476C108.379 47.2763 108.474 46.607 108.677 45.968C108.882 45.3825 109.254 44.8724 109.745 44.503C110.697 43.8816 111.76 43.4567 112.872 43.2524C113.814 43.0617 114.714 42.6985 115.529 42.1804C116.143 41.7556 116.593 41.1264 116.801 40.401C116.944 39.9504 116.944 39.4652 116.801 39.0146C116.746 38.8631 116.665 38.7227 116.562 38.6001C116.562 38.6001 116.639 38.7502 116.73 39.0432C116.849 39.478 116.834 39.9392 116.688 40.3653C116.468 41.0402 116.029 41.6194 115.444 42.0089C114.639 42.4916 113.756 42.8277 112.837 43.0023C111.685 43.1979 110.582 43.6229 109.591 44.2529C109.048 44.6555 108.635 45.2125 108.403 45.8537C108.185 46.5268 108.079 47.2319 108.087 47.9405C108.087 48.6551 108.087 49.3697 108.087 50.0844C108.089 50.8144 107.92 51.5345 107.595 52.1854C107.203 52.8293 106.62 53.3298 105.93 53.6147C105.227 53.9506 104.475 54.1936 103.751 54.6223C103.388 54.8403 103.064 55.1208 102.796 55.4513C102.538 55.7911 102.362 56.1877 102.283 56.609C102.176 57.4119 102.229 58.2283 102.437 59.0102C102.615 59.7288 102.721 60.4639 102.753 61.2042C102.75 61.9027 102.566 62.588 102.219 63.1909C101.536 64.3083 100.58 65.2267 99.4435 65.8565C98.3895 66.4854 97.3354 66.9642 96.4078 67.493C95.5599 67.9444 94.7849 68.5253 94.1099 69.2153C93.601 69.7436 93.1976 70.3674 92.9223 71.0519C92.7495 71.4835 92.6566 71.9438 92.6483 72.4097C92.6393 72.5311 92.6393 72.6529 92.6483 72.7742C92.6342 72.8171 92.6412 72.86 92.6483 72.86Z" fill="#263238"/>
<path d="M113.188 77.7766C113.297 77.8312 113.413 77.8674 113.533 77.8838C113.676 77.9192 113.822 77.9431 113.968 77.9552C114.166 77.9855 114.366 77.9999 114.566 77.9981C115.862 77.9994 117.128 77.5952 118.192 76.8404C118.935 76.3292 119.559 75.6583 120.019 74.8751C120.509 73.9615 120.829 72.9631 120.96 71.9308C121.087 70.8307 121.396 69.7603 121.874 68.7649C122.422 67.7716 123.441 67.1141 124.362 66.2637C125.302 65.4344 125.916 64.2871 126.09 63.0335C126.254 61.8686 126.024 60.6817 125.437 59.6676C124.865 58.8414 124.373 57.9606 123.968 57.0377C123.693 56.2133 123.59 55.3394 123.666 54.4721C123.805 53.2019 124.105 51.9553 124.558 50.7631C124.735 50.3267 124.887 49.8805 125.015 49.4268C124.942 49.5251 124.883 49.6333 124.839 49.7484C124.741 49.9699 124.593 50.2915 124.425 50.7131C123.913 51.9035 123.569 53.162 123.406 54.4507C123.311 55.3584 123.404 56.2762 123.68 57.1449C124.078 58.0902 124.567 58.9928 125.142 59.8391C125.686 60.7879 125.894 61.8976 125.732 62.9835C125.57 64.1525 124.995 65.2218 124.116 65.9921C123.237 66.8068 122.169 67.4929 121.565 68.5791C121.067 69.611 120.751 70.7236 120.63 71.8665C120.514 72.8654 120.218 73.8343 119.759 74.725C119.33 75.4797 118.745 76.1308 118.044 76.6331C117.029 77.3821 115.819 77.8075 114.566 77.8552C113.68 77.8766 113.195 77.7337 113.188 77.7766Z" fill="#263238"/>
<path d="M92.683 43.6164C92.6146 43.6993 92.5729 43.8016 92.5635 43.9094C92.5484 44.0638 92.5649 44.2198 92.6121 44.3674C92.6593 44.515 92.7361 44.6511 92.8376 44.767C92.9936 44.9575 93.1863 45.1135 93.4038 45.2253C93.6214 45.3371 93.8591 45.4025 94.1025 45.4173C94.7306 45.3783 95.3414 45.1925 95.8874 44.8742C96.5177 44.5161 97.2188 44.3061 97.9393 44.2596C98.7768 44.2371 99.614 44.3138 100.434 44.4883C101.359 44.692 102.299 44.8139 103.245 44.8527C104.309 44.8956 105.346 44.5105 106.133 43.7808C106.839 43.0199 107.401 42.1332 107.791 41.1652C108.151 40.2977 108.603 39.4733 109.141 38.7068C109.599 38.0798 110.228 37.6025 110.949 37.3334C111.671 37.0643 112.454 37.0151 113.202 37.1918C114.222 37.4676 115.1 38.1299 115.655 39.0427C115.85 39.3838 116.024 39.737 116.175 40.1004C116.175 40.1004 116.175 39.9932 116.119 39.7931C116.041 39.5032 115.928 39.2246 115.781 38.9641C115.334 38.1222 114.612 37.4646 113.741 37.1036C112.869 36.7425 111.901 36.7004 111.003 36.9845C110.163 37.2511 109.425 37.7783 108.895 38.4924C108.336 39.2754 107.865 40.1191 107.489 41.008C107.112 41.9323 106.574 42.7797 105.901 43.5092C105.185 44.1778 104.237 44.5299 103.266 44.4883C102.34 44.4519 101.419 44.3372 100.511 44.1452C99.6649 43.9746 98.8014 43.9074 97.9393 43.9451C97.1821 44.0212 96.4505 44.2652 95.796 44.6598C95.287 44.9737 94.7158 45.169 94.1236 45.2315C93.905 45.2247 93.69 45.1738 93.491 45.0818C93.2919 44.9897 93.1128 44.8585 92.9641 44.6955C92.8665 44.5962 92.7895 44.478 92.7376 44.3479C92.6857 44.2178 92.6599 44.0784 92.6619 43.938C92.683 43.7165 92.7392 43.6235 92.683 43.6164Z" fill="#455A64"/>
<path d="M96.6679 41.5521C97.8304 41.2807 98.8649 40.609 99.5962 39.6509C100.328 38.6928 100.711 37.507 100.681 36.2944C100.651 35.0819 100.21 33.9171 99.4329 32.9972C98.6554 32.0774 97.5893 31.4591 96.4149 31.247C95.8601 31.1085 95.2786 31.1272 94.7335 31.301C94.1885 31.4749 93.7006 31.7973 93.323 32.2332C92.6765 33.1265 92.7186 34.4629 91.9176 35.1918C91.1165 35.9207 89.6829 35.6349 88.5445 35.9064C87.672 36.1595 86.9161 36.7194 86.4116 37.4864C85.9072 38.2533 85.6868 39.1775 85.7899 40.0942C85.9331 41.0055 86.309 41.8626 86.8799 42.5799C87.4508 43.2973 88.1969 43.8497 89.0434 44.182C90.7583 44.8184 92.6332 44.8536 94.37 44.282C96.0923 43.7142 97.7289 42.9061 99.2328 41.8808" fill="#263238"/>
<path d="M88.2008 36.3698C88.2677 36.8431 88.4434 37.2936 88.7138 37.6847C89.2988 38.6767 90.1083 39.5122 91.0749 40.1217C92.0416 40.7351 93.1372 41.1073 94.2723 41.2079C94.7427 41.2819 95.2235 41.2453 95.6777 41.1007C95.6777 41.0364 95.1437 41.1007 94.3215 40.9435C93.2466 40.7775 92.2161 40.3909 91.2928 39.8072C90.3719 39.2184 89.5763 38.4482 88.9527 37.5418C88.4679 36.8486 88.257 36.3484 88.2008 36.3698Z" fill="#455A64"/>
<path d="M91.9251 44.2957C92.8305 43.0823 93.9664 42.0661 95.2652 41.3075C96.564 40.5488 97.9995 40.0632 99.4863 39.8793C99.0431 39.7915 98.5874 39.7915 98.1441 39.8793C95.9682 40.2037 93.9943 41.3556 92.6208 43.1023C92.3099 43.4467 92.073 43.8531 91.9251 44.2957Z" fill="#FF725E"/>
<path d="M143.132 122.127L154.523 119.883L152.471 122.849L157.334 125.321L161.402 123.385C161.086 124.23 160.688 125.042 160.215 125.807C159.322 127.315 158.107 128.53 157.362 128.587C157.112 129.631 156.593 130.588 155.858 131.36C155.197 132.03 154.376 132.514 153.475 132.765C152.575 133.015 151.626 133.024 150.721 132.789L143.068 129.974L143.132 122.127Z" fill="#FFBE9D"/>
<path d="M154.621 127.937C154.809 128.176 155.047 128.371 155.318 128.505C155.589 128.64 155.886 128.712 156.188 128.716C156.484 128.778 156.789 128.776 157.084 128.708C157.378 128.64 157.655 128.509 157.896 128.323C157.853 128.215 157.13 128.458 156.23 128.323C155.331 128.187 154.677 127.844 154.621 127.937Z" fill="#EB996E"/>
<path d="M153.118 130.402C153.048 130.474 153.539 131.031 154.383 131.253C154.627 131.349 154.889 131.389 155.151 131.369C155.412 131.349 155.666 131.27 155.894 131.138C155.894 131.031 155.191 131.096 154.488 130.895C153.785 130.695 153.202 130.324 153.118 130.402Z" fill="#EB996E"/>
<path d="M150.258 121.676C150.569 121.905 150.901 122.103 151.248 122.269C151.86 122.62 152.654 123.206 153.546 123.834C154.31 124.398 155.16 124.83 156.062 125.114C156.434 125.256 156.837 125.293 157.229 125.221C157.229 125.164 156.793 125.114 156.139 124.864C155.295 124.512 154.494 124.064 153.75 123.527C152.995 122.968 152.198 122.469 151.368 122.034C151.029 121.83 150.65 121.707 150.258 121.676Z" fill="#EB996E"/>
<path d="M81.1586 141.358C81.1586 141.358 80.7722 141.608 79.8024 143.359C76.8299 148.754 75.6283 161.682 86.8296 173.224C101.32 188.131 118.29 212.529 118.29 212.529L131.642 269.815L151.768 265.377L141.395 205.84L112.957 152.185L81.1586 141.358Z" fill="#263238"/>
<path d="M58.9607 252.227L89.9645 203.975L99.3669 162.326L123.315 174.296L111.306 216.567L72.9869 265.105L58.9607 252.227Z" fill="#263238"/>
<path d="M131.629 269.814C131.624 269.717 131.608 269.621 131.58 269.528C131.538 269.328 131.481 269.056 131.411 268.706C131.242 267.992 131.01 266.913 130.708 265.555L128.073 253.992C125.817 244.216 122.704 230.745 119.261 215.866C118.994 214.708 118.727 213.557 118.474 212.486V212.435C109.69 201.001 101.686 190.889 95.7974 183.707C92.846 180.134 90.4357 177.275 88.7281 175.317C87.8918 174.338 87.2032 173.609 86.7464 173.109L86.2264 172.544C86.1069 172.416 86.0437 172.351 86.0367 172.358C86.0848 172.432 86.1388 172.501 86.1983 172.566L86.6972 173.152C87.1329 173.673 87.8005 174.417 88.6297 175.41C90.3022 177.375 92.6773 180.262 95.6006 183.871C101.44 191.096 109.409 201.237 118.186 212.664V212.593C118.432 213.665 118.699 214.815 118.973 215.973L127.82 254.056C128.98 258.909 129.928 262.846 130.568 265.59C130.898 266.934 131.151 267.992 131.334 268.721C131.418 269.071 131.488 269.335 131.538 269.535C131.559 269.631 131.59 269.724 131.629 269.814Z" fill="#455A64"/>
<path d="M95.2697 156.587C95.4129 156.708 95.5775 156.8 95.7545 156.859C96.2192 157.063 96.7014 157.223 97.1951 157.337C98.8382 157.719 100.55 157.667 102.168 157.189C103.786 156.71 105.258 155.819 106.443 154.6C106.8 154.234 107.124 153.838 107.413 153.414C107.609 153.107 107.701 152.928 107.68 152.914C107.659 152.9 107.188 153.543 106.274 154.407C105.08 155.536 103.643 156.366 102.078 156.83C100.512 157.294 98.862 157.38 97.2584 157.08C96.0146 156.851 95.2908 156.53 95.2697 156.587Z" fill="#455A64"/>
<path d="M78.1724 143.831C90.3013 150.327 109.984 154.208 116.281 151.571L116.499 127.809C116.499 127.809 125.121 113.352 125.156 107.885C125.205 100.024 115.557 82.0361 115.557 82.0361L101.074 78.0841C98.1577 78.0209 95.2725 78.7041 92.6835 80.0708C89.9749 81.5972 87.7709 83.9046 86.3491 86.7023C84.9274 89.5 84.3514 92.6629 84.6937 95.7929L88.3408 119.433L78.1724 143.831Z" fill="#47BB8E"/>
<g opacity="0.3">
<path d="M93.7163 80.049C92.8731 79.9203 92.5639 81.3139 93.1612 81.9285C93.7585 82.5431 94.7072 82.5717 95.5434 82.7003C99.317 83.3006 102.233 86.5879 103.604 90.2112C104.974 93.8344 105.107 97.7935 105.332 101.645C105.557 105.497 105.93 109.506 107.721 112.944C109.395 109.928 110.386 106.57 110.624 103.115C110.863 99.6607 110.341 96.1953 109.099 92.971C107.856 89.7467 105.923 86.8442 103.44 84.4743C100.956 82.1045 97.9853 80.3267 94.7423 79.27" fill="black"/>
</g>
<path d="M92.6838 80.0703C92.6838 80.0703 94.7919 76.5757 101.763 78.0908C106.429 79.1056 116.632 89.0748 113.786 105.09C110.94 121.105 103.309 126.779 103.309 126.779C103.309 126.779 110.336 102.26 106.429 91.5618C105.406 88.5415 103.58 85.8686 101.154 83.84C98.7273 81.8115 95.7954 80.5066 92.6838 80.0703Z" fill="#263238"/>
<g opacity="0.3">
<path d="M116.231 132.854C113.343 133.798 110.575 134.998 107.567 135.384C104.557 135.886 101.471 135.558 98.6284 134.434C94.7705 132.761 91.9034 129.188 90.4277 125.193C88.952 121.198 88.7482 116.825 89.1417 112.573C91.7769 115.889 91.4607 120.798 93.7024 124.407C95.1078 126.658 97.3916 128.195 99.7387 129.41C104.874 131.921 110.538 133.111 116.231 132.876" fill="black"/>
</g>
<path d="M107.546 108.578C107.546 108.578 108.487 126.616 86.8508 123.028L84.6723 128.245C84.6723 128.245 107.419 133.133 110.673 113.952L107.546 108.578Z" fill="#263238"/>
<path d="M87.828 86.1593C86.9175 87.5352 86.304 89.0918 86.0278 90.7263C85.7516 92.3609 85.8191 94.0364 86.2258 95.6425L91.6157 120.176C93.9276 127.08 100.526 131.275 104.63 131.832L143.062 135.97V121.384L107.385 115.996L105.712 96.1285C105.565 93.4557 104.272 88.6534 102.599 86.5809C100.73 84.2726 97.8558 81.1282 93.1616 81.9286C90.2875 82.4145 89.0648 84.3655 87.828 86.1593Z" fill="#3A59D1"/>
<path d="M86.7177 96.5996C86.712 96.7838 86.7238 96.968 86.7529 97.1499C86.795 97.5143 86.8583 98.0432 86.9496 98.7292C87.1323 100.101 87.4134 102.074 87.8421 104.504C88.2707 106.933 88.8189 109.828 89.5427 113.008C89.901 114.594 90.2875 116.267 90.7584 118.01C91.2185 119.796 91.8492 121.531 92.6416 123.191C93.4423 124.862 94.5435 126.364 95.8882 127.622C97.1419 128.788 98.5638 129.752 100.104 130.481C102.718 131.672 105.509 132.408 108.361 132.66C110.786 132.91 112.753 132.925 114.11 132.939H115.677C115.857 132.956 116.038 132.956 116.218 132.939C116.039 132.907 115.858 132.892 115.677 132.896L114.117 132.832C112.76 132.775 110.793 132.718 108.39 132.432C105.575 132.149 102.825 131.396 100.252 130.202C98.7414 129.492 97.3458 128.552 96.1131 127.415C94.8067 126.178 93.7348 124.708 92.9508 123.077C92.1715 121.438 91.548 119.727 91.0886 117.967C90.6178 116.267 90.2243 114.601 89.8519 113.015C89.1491 109.842 88.5308 106.969 88.081 104.546C87.6313 102.124 87.301 100.159 87.0761 98.8293C86.9637 98.179 86.8794 97.6573 86.8161 97.2642C86.7999 97.0405 86.767 96.8183 86.7177 96.5996Z" fill="#263238"/>
<path d="M106.352 120.176C106.752 119.514 107.044 118.79 107.216 118.032C107.508 117.32 107.684 116.565 107.736 115.795C107.042 117.16 106.568 118.63 106.331 120.148L106.352 120.176Z" fill="#263238"/>
<path d="M104.165 119.619C104.924 119.257 105.594 118.727 106.126 118.068C106.743 117.495 107.224 116.786 107.531 115.996C106.931 116.565 106.368 117.174 105.845 117.818C105.245 118.378 104.684 118.98 104.165 119.619Z" fill="#263238"/>
<path d="M139.717 120.884L139.555 120.841L139.077 120.748L137.236 120.441L130.399 119.347L107.441 115.817L107.596 115.981C107.469 114.623 107.336 113.194 107.195 111.736C106.738 106.584 106.253 101.674 106.015 97.1933C105.848 95.0629 105.447 92.9583 104.82 90.9187C104.316 89.1133 103.46 87.4291 102.304 85.9663C100.027 83.4436 97.4765 82.1072 95.6003 81.8642C94.8836 81.7605 94.1551 81.775 93.4429 81.9071C93.204 81.9571 93.0213 82.0143 92.9018 82.05L92.7191 82.1144C93.6573 81.8954 94.6277 81.859 95.5792 82.0072C97.4062 82.2859 99.8939 83.6365 102.107 86.1449C103.227 87.585 104.05 89.2404 104.525 91.0116C105.137 93.031 105.524 95.1143 105.677 97.2219C105.895 101.703 106.38 106.619 106.837 111.772C106.97 113.201 107.104 114.631 107.237 116.017V116.16H107.378L130.385 119.576L137.236 120.548L139.091 120.798L139.569 120.855L139.717 120.884Z" fill="#263238"/>
<path d="M117.722 132.768C117.82 132.768 118.228 129.473 118.628 125.393C119.029 121.312 119.275 117.982 119.177 117.968C118.747 120.411 118.442 122.875 118.263 125.35C117.958 127.812 117.777 130.288 117.722 132.768Z" fill="#FAFAFA"/>
<path d="M89.5857 110.621C90.3989 110.692 91.2162 110.704 92.0311 110.657C93.542 110.657 95.622 110.571 97.9269 110.485C100.232 110.399 102.312 110.299 103.816 110.207C104.63 110.193 105.443 110.119 106.247 109.985C105.434 109.904 104.617 109.89 103.802 109.942C102.298 109.942 100.211 110.028 97.9129 110.114C95.615 110.199 93.5349 110.299 92.0241 110.392C91.2066 110.402 90.3912 110.479 89.5857 110.621Z" fill="#FAFAFA"/>
<path d="M113.983 105.955C114.504 106.091 115.039 106.163 115.578 106.169C116.561 106.241 117.932 106.291 119.443 106.262C120.953 106.234 122.324 106.127 123.308 106.012C123.844 105.988 124.375 105.894 124.889 105.734C124.356 105.68 123.819 105.68 123.286 105.734C122.303 105.784 120.939 105.841 119.436 105.869C117.932 105.898 116.569 105.869 115.585 105.869C115.049 105.838 114.512 105.866 113.983 105.955Z" fill="#FAFAFA"/>
<path d="M110.807 89.0035C110.863 89.0964 112.339 88.2888 114.25 87.5742C116.161 86.8595 117.764 86.4236 117.764 86.3164C115.265 86.6266 112.878 87.5486 110.807 89.0035Z" fill="#FAFAFA"/>
<path d="M82.8954 133.589C82.9923 133.66 83.0988 133.715 83.2116 133.754L84.1392 134.14C84.9403 134.476 86.1208 134.919 87.5895 135.44C91.4222 136.782 95.3232 137.913 99.2757 138.828C103.228 139.764 107.228 140.479 111.257 140.972C112.803 141.15 114.068 141.272 114.925 141.329L115.923 141.386C116.039 141.405 116.158 141.405 116.274 141.386C116.163 141.347 116.047 141.323 115.93 141.315L114.939 141.186C114.075 141.086 112.831 140.929 111.285 140.714C108.214 140.286 103.977 139.578 99.3389 138.506C94.701 137.434 90.6042 136.191 87.6528 135.212C86.1771 134.726 84.9824 134.318 84.1392 134.025L83.1905 133.704C83.0958 133.656 82.997 133.618 82.8954 133.589Z" fill="#FAFAFA"/>
<path d="M85.1861 90.8542C85.1861 90.9542 89.3322 90.9042 94.4409 90.7327C99.5497 90.5612 103.682 90.3468 103.682 90.2467C103.682 90.1467 99.5356 90.1967 94.4269 90.3611C89.3181 90.5255 85.1861 90.747 85.1861 90.8542Z" fill="#FAFAFA"/>
<path d="M134.706 134.89C134.976 132.518 135.127 130.132 135.156 127.744C135.308 125.365 135.336 122.98 135.24 120.598C134.969 122.97 134.819 125.356 134.79 127.744C134.638 130.123 134.609 132.509 134.706 134.89Z" fill="#FAFAFA"/>
<path d="M213.319 61.8049C207.063 60.6238 200.604 61.314 194.725 63.7916C192.118 64.8993 189.532 66.4644 188.127 68.9585C186.454 71.9028 186.721 75.5332 186.911 78.9277C187.278 85.8435 187.043 92.7787 186.208 99.6523C185.505 105.369 184.402 111.087 184.423 116.804C184.444 122.521 185.709 128.538 189.258 133.026C194.732 139.937 204.479 141.88 213.15 140.701C217.704 140.087 222.25 138.7 225.968 135.942C229.685 133.183 232.468 128.931 232.784 124.272" fill="#455A64"/>
<path d="M202.483 70.5664C201.673 71.5413 200.984 72.6143 200.431 73.7609C199.861 75.0237 199.391 76.3309 199.026 77.6699C198.587 79.3303 198.045 80.9606 197.403 82.5509C196.733 84.1688 195.692 85.5999 194.367 86.7244C193.262 87.6482 191.876 88.1534 190.446 88.1537C189.496 88.1631 188.564 87.8926 187.761 87.3748C187.547 87.231 187.351 87.0605 187.178 86.8674C187.059 86.7387 187.003 86.6601 187.017 86.653C187.031 86.6458 187.298 86.8888 187.86 87.2175C188.655 87.6598 189.554 87.8723 190.46 87.8321C191.804 87.79 193.095 87.2862 194.121 86.4028C195.371 85.3062 196.353 83.9287 196.988 82.3794C197.627 80.8074 198.176 79.1992 198.633 77.5627C199.02 76.2105 199.523 74.8953 200.136 73.6322C200.558 72.7801 201.089 71.9893 201.717 71.281C201.931 71.0002 202.19 70.7585 202.483 70.5664Z" fill="#263238"/>
<path d="M200.003 140.258C199.949 140.077 199.913 139.89 199.897 139.701C199.841 139.282 199.771 138.739 199.686 138.072C199.511 136.642 199.279 134.613 198.984 132.083C198.457 127.016 197.824 120.013 197.276 112.266C196.728 104.519 196.398 97.4872 196.215 92.3918C196.124 89.8477 196.067 87.7896 196.046 86.3674C196.046 85.6957 196.046 85.1525 196.046 84.7309C196.025 84.541 196.025 84.3491 196.046 84.1592C196.086 84.3448 196.107 84.5339 196.11 84.7237C196.11 85.1525 196.173 85.6885 196.215 86.3603C196.292 87.8396 196.398 89.8835 196.531 92.3775C196.798 97.4658 197.192 104.484 197.726 112.23C198.26 119.977 198.857 126.98 199.3 132.047C199.518 134.541 199.693 136.578 199.82 138.05C199.876 138.722 199.918 139.265 199.946 139.687C199.987 139.874 200.006 140.066 200.003 140.258Z" fill="#263238"/>
<path d="M197.227 109.221C197.227 109.343 194.514 109.728 191.12 109.814C187.726 109.9 184.985 109.671 184.992 109.543C184.999 109.414 187.733 109.435 191.106 109.343C194.479 109.25 197.213 109.085 197.227 109.221Z" fill="#263238"/>
<path d="M195.02 109.529C195.295 109.902 195.486 110.331 195.583 110.787C195.735 111.254 195.857 111.732 195.948 112.216C196.025 112.535 196.025 112.869 195.948 113.188C195.895 113.382 195.789 113.558 195.642 113.695C195.496 113.831 195.314 113.923 195.119 113.96C195.009 113.977 194.896 113.969 194.789 113.937C194.682 113.905 194.584 113.849 194.5 113.774C194.35 113.637 194.249 113.454 194.212 113.252C194.164 112.94 194.164 112.621 194.212 112.309C194.261 111.806 194.356 111.308 194.493 110.822C194.576 110.361 194.764 109.925 195.042 109.55C195.014 110.008 194.936 110.461 194.81 110.901C194.725 111.373 194.669 111.851 194.641 112.33C194.602 112.596 194.602 112.865 194.641 113.131C194.697 113.374 194.845 113.509 195.034 113.481C195.519 113.395 195.625 112.766 195.526 112.273C195.428 111.78 195.351 111.237 195.266 110.844C195.13 110.418 195.048 109.976 195.02 109.529Z" fill="#263238"/>
<path d="M219.743 63.54L190.336 64.5269C186.616 64.6517 183.501 61.6862 183.378 57.9032L183.19 52.0892C183.067 48.3063 185.983 45.1384 189.703 45.0135L219.11 44.0267C222.829 43.9018 225.944 46.8674 226.067 50.6503L226.256 56.4643C226.379 60.2473 223.463 63.4152 219.743 63.54Z" fill="#263238"/>
<path d="M190.404 45.3822C190.404 45.3822 190.481 45.3108 190.657 45.225C190.918 45.1008 191.195 45.0142 191.479 44.9677C192.541 44.806 193.625 45.0124 194.557 45.5537C195.972 46.2671 197.173 47.3529 198.035 48.6982C199.027 50.3802 199.594 52.2851 199.687 54.2438C199.872 56.2075 199.478 58.1828 198.555 59.918C197.797 61.3357 196.636 62.4886 195.225 63.2268C194.287 63.7226 193.252 64.0008 192.196 64.0415C191.909 64.0536 191.622 64.0393 191.339 63.9986C191.239 63.9959 191.14 63.9715 191.05 63.9272C191.05 63.8843 191.458 63.9271 192.182 63.8557C193.197 63.7501 194.18 63.4339 195.07 62.9266C196.394 62.1871 197.477 61.0691 198.183 59.7108C199.041 58.0415 199.402 56.1542 199.223 54.2795C199.133 52.3957 198.603 50.5608 197.677 48.9268C196.863 47.6317 195.735 46.5711 194.402 45.8467C193.532 45.3053 192.517 45.0554 191.5 45.1321C190.783 45.2107 190.418 45.4251 190.404 45.3822Z" fill="#455A64"/>
<path d="M206.952 44.353L202.483 44.5817C203.711 44.773 204.831 45.4071 205.638 46.3683C206.435 47.325 207.021 48.4432 207.36 49.6485C208.913 54.651 207.037 60.6397 203.144 64.0914L206.763 64.0342C206.763 64.0342 215.568 53.2289 206.98 44.353" fill="#455A64"/>
<path d="M228.793 35.7921C230.62 31.297 230.719 23.4931 227.929 19.3554C225.139 15.2176 219.911 12.5377 215.111 11.4943C214.322 11.2473 213.477 11.2473 212.687 11.4943C212.302 11.6415 211.986 11.9305 211.801 12.3039C211.616 12.6772 211.576 13.1076 211.689 13.5096C210.757 12.8585 209.723 12.3706 208.632 12.066C208.084 11.9085 207.506 11.8913 206.949 12.016C206.392 12.1406 205.875 12.4033 205.442 12.7807C205.234 12.9747 205.066 13.2095 204.948 13.4709C204.831 13.7324 204.766 14.0152 204.758 14.3025C204.75 14.5899 204.799 14.8759 204.902 15.1436C205.005 15.4113 205.16 15.6552 205.358 15.8608C204.681 15.6057 203.946 15.5587 203.244 15.7255C202.542 15.8923 201.903 16.2657 201.408 16.799C200.912 17.3324 200.583 18.0021 200.459 18.7248C200.335 19.4475 200.424 20.1912 200.713 20.8632C201.37 22.2395 202.281 23.4745 203.397 24.5008C204.402 25.4441 204.571 26.416 204.402 27.7953" fill="#263238"/>
<path d="M227.648 27.5514L228.913 55.0508C228.965 56.1592 228.795 57.2668 228.413 58.3064C228.032 59.3459 227.446 60.2956 226.692 61.0978C225.938 61.8999 225.032 62.5378 224.028 62.9725C223.024 63.4072 221.944 63.6297 220.852 63.6265C218.787 63.6158 216.804 62.7985 215.315 61.3434C213.825 59.8883 212.942 57.9067 212.848 55.8083C212.757 53.7359 212.673 52.0064 212.652 51.7992C212.652 51.7992 205.737 51.4705 204.922 44.567C204.528 41.2297 204.261 34.2905 204.1 28.0088C204.014 24.7552 205.137 21.5883 207.244 19.1384C209.351 16.6885 212.287 15.1352 215.47 14.7879L216.123 14.7165C223.221 14.3592 227.493 20.305 227.648 27.5514Z" fill="#FFBE9D"/>
<path d="M212.609 51.6998C215.753 51.4173 218.743 50.1882 221.196 48.1694C221.196 48.1694 219.84 52.493 212.996 52.6145L212.609 51.6998Z" fill="#EB996E"/>
<path d="M206.523 32.4184C206.548 32.677 206.672 32.9153 206.868 33.0823C207.063 33.2493 207.316 33.3317 207.57 33.3117C207.695 33.3081 207.817 33.2792 207.93 33.2265C208.043 33.1739 208.145 33.0987 208.229 33.0053C208.313 32.912 208.377 32.8024 208.419 32.6832C208.46 32.564 208.478 32.4375 208.47 32.3112C208.445 32.054 208.322 31.8168 208.128 31.65C207.934 31.4832 207.683 31.3999 207.43 31.4179C207.306 31.4225 207.183 31.4521 207.07 31.505C206.957 31.5579 206.856 31.633 206.772 31.726C206.687 31.819 206.622 31.9281 206.579 32.047C206.537 32.1658 206.518 32.2921 206.523 32.4184Z" fill="#263238"/>
<path d="M205.899 31.2397C206.032 31.3541 206.707 30.7252 207.754 30.6109C208.801 30.4965 209.616 30.9467 209.714 30.8038C209.813 30.6609 209.623 30.5179 209.258 30.3107C208.772 30.0432 208.218 29.9334 207.67 29.9963C207.125 30.0545 206.613 30.2872 206.208 30.6609C205.913 30.9181 205.821 31.1897 205.899 31.2397Z" fill="#263238"/>
<path d="M216.833 31.6323C216.858 31.8896 216.98 32.1268 217.175 32.2936C217.369 32.4604 217.619 32.5436 217.873 32.5256C217.997 32.521 218.119 32.4914 218.232 32.4386C218.345 32.3857 218.447 32.3106 218.531 32.2175C218.615 32.1245 218.681 32.0154 218.723 31.8966C218.766 31.7777 218.785 31.6515 218.779 31.5251C218.756 31.2671 218.634 31.0288 218.439 30.8617C218.245 30.6945 217.993 30.612 217.739 30.6318C217.614 30.6345 217.491 30.6627 217.377 30.715C217.263 30.7672 217.161 30.8423 217.076 30.9357C216.992 31.0291 216.927 31.139 216.885 31.2587C216.843 31.3784 216.825 31.5055 216.833 31.6323Z" fill="#263238"/>
<path d="M216.187 30.3107C216.321 30.425 216.995 29.7961 218.042 29.6818C219.089 29.5674 219.912 30.0177 220.01 29.8747C220.108 29.7318 219.912 29.596 219.553 29.3816C219.065 29.1148 218.509 29.0052 217.958 29.0672C217.415 29.1287 216.904 29.3611 216.496 29.7318C216.208 30.0177 216.124 30.2606 216.187 30.3107Z" fill="#263238"/>
<path d="M213.228 38.6072C212.659 38.4874 212.078 38.4442 211.499 38.4785C211.232 38.4785 210.972 38.4785 210.909 38.2784C210.854 38.0015 210.886 37.7141 211 37.4566L211.569 35.3127C212.356 32.254 212.89 29.7456 212.771 29.717C212.651 29.6885 211.913 32.1397 211.126 35.2055C210.944 35.9201 210.761 36.6776 210.592 37.3494C210.468 37.6981 210.468 38.0799 210.592 38.4285C210.639 38.5208 210.707 38.6006 210.79 38.6614C210.873 38.7223 210.969 38.7624 211.07 38.7787C211.222 38.7995 211.375 38.7995 211.527 38.7787C212.099 38.7972 212.67 38.7396 213.228 38.6072Z" fill="#263238"/>
<path d="M216.362 39.0079C216.193 39.0079 216.313 40.1656 215.427 41.0946C214.542 42.0236 213.319 42.0236 213.319 42.188C213.319 42.3524 213.607 42.381 214.12 42.3381C214.787 42.2763 215.41 41.9748 215.877 41.4877C216.326 41.0244 216.578 40.4011 216.58 39.7511C216.615 39.2651 216.46 38.9936 216.362 39.0079Z" fill="#263238"/>
<path d="M215.476 26.18C215.61 26.4587 216.635 26.18 217.879 26.2229C219.123 26.2658 220.149 26.4659 220.283 26.2229C220.339 26.0871 220.142 25.837 219.713 25.6012C219.145 25.3089 218.516 25.1594 217.879 25.1652C217.244 25.159 216.616 25.3034 216.045 25.5869C215.617 25.7941 215.413 26.0442 215.476 26.18Z" fill="#263238"/>
<path d="M205.955 28.1238C206.166 28.3454 206.854 28.0166 207.719 27.9095C208.583 27.8023 209.335 27.9094 209.476 27.6236C209.539 27.495 209.398 27.2663 209.054 27.0733C208.598 26.854 208.089 26.7751 207.59 26.8462C207.09 26.9173 206.622 27.1354 206.243 27.4735C205.934 27.7522 205.864 28.0166 205.955 28.1238Z" fill="#263238"/>
<path d="M227.605 32.7329C227.717 32.6686 232.123 30.8177 232.482 35.5557C232.84 40.2938 228.076 39.6864 228.062 39.5506C228.048 39.4148 227.605 32.7329 227.605 32.7329Z" fill="#FFBE9D"/>
<path d="M229.376 37.643C229.376 37.643 229.461 37.693 229.608 37.7502C229.803 37.8268 230.018 37.8268 230.213 37.7502C230.5 37.5324 230.724 37.2409 230.864 36.9056C231.004 36.5703 231.053 36.2032 231.007 35.8421C230.987 35.4348 230.879 35.037 230.69 34.6772C230.635 34.5335 230.547 34.4053 230.434 34.3034C230.32 34.2014 230.184 34.1287 230.037 34.0912C229.941 34.073 229.843 34.0895 229.758 34.1379C229.673 34.1862 229.608 34.2633 229.573 34.3556C229.517 34.4914 229.573 34.5843 229.531 34.5915C229.489 34.5986 229.426 34.52 229.447 34.327C229.466 34.2073 229.523 34.097 229.608 34.0126C229.73 33.9031 229.889 33.8466 230.051 33.8554C230.245 33.8794 230.43 33.9538 230.587 34.0715C230.745 34.1891 230.87 34.3461 230.95 34.5271C231.182 34.9217 231.312 35.3688 231.33 35.8278C231.387 36.2483 231.32 36.6765 231.137 37.0582C230.954 37.4398 230.664 37.7578 230.304 37.9717C230.181 38.0191 230.049 38.0379 229.917 38.0268C229.786 38.0156 229.659 37.9749 229.545 37.9074C229.397 37.7573 229.362 37.6501 229.376 37.643Z" fill="#EB996E"/>
<path d="M200.432 19.2903C200.347 25.4791 207.986 27.4658 210.972 23.7782C212.378 22.0702 213.537 19.9763 215.54 19.1045C216.225 18.8337 216.957 18.7049 217.692 18.7258C218.427 18.7467 219.15 18.9167 219.82 19.226H219.862C221.858 20.0907 223.165 22.2632 223.628 24.4214C224.268 27.43 223.994 30.1385 224.978 32.8756C225.079 33.2859 225.311 33.6504 225.638 33.9118C226.228 34.2763 227.044 33.8547 227.444 33.2901C228.058 32.3316 228.383 31.2112 228.379 30.0671C228.595 27.4809 228.304 24.8767 227.521 22.4061C226.727 19.929 225.237 17.7427 223.235 16.1173C220.654 14.1801 217.434 13.3371 214.254 13.7661C211.085 14.2164 208.135 15.6689 205.822 17.9182C204.704 18.9079 203.846 20.1655 203.327 21.5771" fill="#263238"/>
<path d="M205.119 15.5244C204.9 15.4947 204.678 15.5218 204.472 15.603C203.9 15.7977 203.394 16.1518 203.01 16.6249C202.418 17.3129 202.071 18.1842 202.027 19.0976C202.018 20.2244 202.422 21.3142 203.158 22.1563C203.866 22.998 204.79 23.6218 205.828 23.9571C206.663 24.2292 207.538 24.3572 208.414 24.3359C208.999 24.3251 209.582 24.263 210.157 24.1501C210.373 24.129 210.583 24.0659 210.775 23.9643C210.775 23.9 209.869 24.1072 208.421 24.0786C207.575 24.0621 206.736 23.9151 205.934 23.6427C204.964 23.3051 204.1 22.7106 203.432 21.9204C202.754 21.1464 202.374 20.1486 202.364 19.1119C202.386 18.2656 202.679 17.4498 203.2 16.7893C203.548 16.337 204.006 15.9848 204.528 15.7674C204.887 15.5816 205.119 15.5601 205.119 15.5244Z" fill="#455A64"/>
<path d="M208.07 13.1089C208.07 13.1089 207.895 13.066 207.628 13.2232C207.449 13.3426 207.298 13.5006 207.187 13.6858C207.075 13.8711 207.005 14.0792 206.981 14.2952C206.935 14.9308 207.109 15.5626 207.473 16.0818C207.857 16.7198 208.331 17.2976 208.878 17.7969C209.877 18.7129 211.085 19.3613 212.392 19.6836C212.921 19.8508 213.479 19.9043 214.029 19.8408C214.029 19.7693 213.411 19.7407 212.462 19.4334C211.231 19.0509 210.097 18.3997 209.138 17.5253C208.612 17.0488 208.146 16.506 207.754 15.9102C207.416 15.4557 207.233 14.901 207.234 14.3309C207.246 14.1426 207.294 13.9585 207.376 13.7892C207.458 13.6199 207.572 13.4689 207.712 13.3447C207.93 13.1732 208.077 13.1374 208.07 13.1089Z" fill="#455A64"/>
<path d="M227.83 80.6353L225.645 64.3844L257.049 70.8161L285.629 60.7183L293.352 68.7937L262.938 84.723C260.225 86.0405 257.169 86.4388 254.217 85.8593L227.83 80.6353Z" fill="#FFBE9D"/>
<path d="M285.629 60.7186C285.629 60.7186 296.556 55.4016 297.259 55.2158C297.8 55.0729 306.05 54.6298 309.809 54.4297C310.104 54.4272 310.389 54.5368 310.608 54.7371C310.828 54.9373 310.965 55.2137 310.994 55.5119C311.023 55.8101 310.942 56.1086 310.765 56.3487C310.589 56.5888 310.331 56.7532 310.041 56.8095H309.901C307.793 56.9881 303.183 58.0601 303.183 58.0601L305.291 63.0626C305.393 63.3104 305.411 63.586 305.341 63.8451C305.27 64.1043 305.117 64.332 304.904 64.4919L298.545 69.2728C297.712 69.6579 296.794 69.813 295.884 69.7227C294.974 69.6324 294.103 69.2997 293.359 68.7583L290.548 69.3443L285.629 60.7186Z" fill="#FFBE9D"/>
<path d="M305.312 63.377C305.115 64.3132 302.922 66.2355 301.257 66.2355C300.89 66.2417 300.533 66.1122 300.252 65.8711C300.119 65.7443 300.026 65.5802 299.984 65.3995C299.943 65.2188 299.956 65.0298 300.02 64.8563C300.137 64.6428 300.304 64.4613 300.505 64.3274L304.201 61.376" fill="#FFBE9D"/>
<path d="M304.202 61.376C303.651 61.6755 303.131 62.0298 302.649 62.4337L301.026 63.67C300.717 63.913 300.407 64.1202 300.07 64.4346C299.973 64.5262 299.895 64.6367 299.841 64.7594C299.787 64.8822 299.757 65.0147 299.754 65.1493C299.753 65.4091 299.84 65.6613 300 65.8639C300.161 66.049 300.363 66.1936 300.588 66.2866C300.814 66.3795 301.057 66.4183 301.3 66.3999C301.72 66.3782 302.132 66.2763 302.515 66.0998C303.152 65.821 303.738 65.4371 304.251 64.9635C304.601 64.6495 304.902 64.2832 305.144 63.8772C305.305 63.5771 305.312 63.377 305.291 63.377C305.27 63.377 305.214 63.5413 305.024 63.7986C304.75 64.1575 304.433 64.4814 304.083 64.7634C303.57 65.1865 303 65.5308 302.389 65.7853C302.039 65.9347 301.665 66.0194 301.286 66.0354C301.1 66.0497 300.914 66.0211 300.742 65.9518C300.569 65.8825 300.414 65.7743 300.288 65.6352C300.175 65.5048 300.113 65.3372 300.113 65.1636C300.113 64.99 300.175 64.8223 300.288 64.6919C300.555 64.4346 300.913 64.1845 301.194 63.9773L302.797 62.6409C303.308 62.2718 303.78 61.8477 304.202 61.376Z" fill="#EB996E"/>
<path d="M296.472 66.2641C296.472 66.2641 296.718 66.1355 296.943 65.7782C297.236 65.3039 297.401 64.759 297.421 64.1988C297.449 63.6428 297.335 63.0889 297.09 62.5909C296.894 62.2121 296.697 62.0335 296.662 62.062C296.899 62.7523 297.032 63.4752 297.055 64.206C296.966 64.9184 296.769 65.6127 296.472 66.2641Z" fill="#EB996E"/>
<path d="M300.856 63.6992C300.705 63.9897 300.459 64.2182 300.161 64.3461C299.863 64.4739 299.531 64.4933 299.22 64.4009C298.91 64.3085 298.64 64.1101 298.457 63.839C298.274 63.568 298.188 63.2409 298.214 62.9131C298.277 62.5148 298.419 62.1337 298.631 61.7933C298.844 61.4529 299.123 61.1603 299.451 60.9335L302.185 58.418" fill="#FFBE9D"/>
<path d="M302.185 58.3892C301.77 58.6353 301.386 58.9304 301.039 59.2682L299.866 60.2901C299.354 60.7019 298.883 61.1639 298.46 61.6694C298.243 61.9582 298.098 62.2968 298.039 62.6556C297.983 63.0028 298.048 63.3589 298.221 63.6632C298.356 63.921 298.559 64.1352 298.808 64.2817C299.056 64.4282 299.34 64.5011 299.627 64.4922C300.003 64.4738 300.359 64.3133 300.625 64.042C300.807 63.849 300.849 63.7061 300.835 63.6989C300.821 63.6918 300.723 63.7918 300.533 63.9348C300.268 64.1297 299.947 64.2324 299.62 64.2278C299.39 64.2199 299.166 64.1495 298.972 64.0238C298.778 63.8981 298.621 63.7217 298.516 63.5131C298.398 63.2494 298.357 62.9562 298.4 62.6694C298.442 62.3826 298.566 62.1146 298.755 61.898C299.159 61.4193 299.599 60.9725 300.069 60.5617L301.194 59.4754C301.571 59.1608 301.904 58.7953 302.185 58.3892Z" fill="#EB996E"/>
<path d="M296.17 57.9668C298.374 58.5025 300.479 59.3978 302.403 60.6181C302.526 60.6791 302.623 60.7831 302.677 60.9111C302.733 61.0969 302.592 61.2756 302.445 61.3971C301.839 61.8138 301.102 61.9847 300.379 61.8759C299.667 61.7605 298.949 61.6841 298.229 61.6472C296.978 61.6472 295.825 62.2832 294.617 62.6262C293.408 62.9693 291.946 62.955 291.103 61.9974" fill="#FFBE9D"/>
<path d="M291.117 61.9974C291.117 61.9974 291.117 62.0688 291.23 62.1689C291.363 62.3152 291.517 62.4405 291.686 62.5405C292.33 62.8967 293.07 63.0297 293.795 62.9193C294.826 62.7383 295.838 62.4559 296.816 62.076C297.382 61.8965 297.974 61.8144 298.566 61.833C299.184 61.8687 299.824 62.0259 300.527 62.0688C301.227 62.1523 301.935 61.9801 302.522 61.5829C302.693 61.4722 302.818 61.3019 302.874 61.1041C302.901 60.9797 302.881 60.8494 302.817 60.7396C302.762 60.6545 302.69 60.5816 302.607 60.5252C302.333 60.3465 302.08 60.2036 301.82 60.0535C300.92 59.5305 299.98 59.0835 299.009 58.7172C298.35 58.4673 297.676 58.2596 296.992 58.0954C296.743 58.0178 296.486 57.9745 296.226 57.9668C296.226 58.0311 297.287 58.2812 298.917 58.9601C299.87 59.3591 300.795 59.8222 301.686 60.3465C301.932 60.4966 302.199 60.661 302.438 60.8182C302.55 60.904 302.586 60.954 302.564 61.0255C302.523 61.1362 302.447 61.2294 302.347 61.2899C301.823 61.6291 301.199 61.773 300.583 61.6972C299.929 61.6543 299.276 61.5043 298.622 61.4757C297.988 61.4568 297.356 61.5487 296.753 61.7472C295.796 62.1353 294.809 62.4413 293.802 62.662C293.13 62.7789 292.439 62.6945 291.813 62.419C291.573 62.2919 291.341 62.1512 291.117 61.9974Z" fill="#EB996E"/>
<path d="M256.564 76.4193C257.176 74.5724 257.232 72.5817 256.726 70.7021C256.62 70.7021 256.726 72.0028 256.726 73.5607C256.726 75.1186 256.458 76.3978 256.564 76.4193Z" fill="#EB996E"/>
<path d="M229.081 56.8452L237.991 67.0574C237.991 67.0574 242.756 102.325 243.093 105.098C243.43 107.871 244.337 116.718 244.337 119.14C244.337 121.563 246.312 138.879 246.312 138.879C246.312 138.879 208.498 146.869 202.167 138.879L204.142 124.05L202.427 87.2675C202.427 87.2675 199.616 61.7334 212.827 55.8233C212.848 55.809 221.196 60.9329 229.081 56.8452Z" fill="#47BB8E"/>
<path d="M206.756 59.4247C206.756 59.4247 209.363 56.8091 217.697 59.0031C226.474 61.3114 231.105 69.6655 228.94 93.3058C227.142 112.816 219.559 115.617 219.559 115.617C219.559 115.617 223.712 86.1952 222.996 73.8891C222.096 58.3456 206.77 62.2118 206.77 62.2118C204.577 61.5115 206.756 59.4247 206.756 59.4247Z" fill="#263238"/>
<path d="M229.081 56.8452L236.782 59.0034L254.111 69.7945L249.178 85.731L239.003 84.5947L229.081 56.8452Z" fill="#F9F9F9"/>
<path d="M239.109 67.9072C239.003 67.9072 239.446 73.6244 240.085 80.6278C240.725 87.6313 241.329 93.3342 241.428 93.3199C241.526 93.3056 241.09 87.6027 240.451 80.5993C239.811 73.5958 239.207 67.9001 239.109 67.9072Z" fill="#263238"/>
<path d="M203.832 117.44C203.832 117.44 206.292 125.479 214.984 112.201C223.677 98.9234 222.461 104.862 222.461 104.862L224.239 107.006C224.239 107.006 214.675 128.91 203.945 125.479L203.832 117.44Z" fill="#263238"/>
<path opacity="0.3" d="M239.46 71.7378L246.312 85.4089L240.648 84.78L239.46 71.7378Z" fill="black"/>
<g opacity="0.3">
<path d="M242.602 108.035C237.559 113.616 231.603 118.265 224.999 121.777C222.237 123.249 219.18 124.543 216.088 124.136C212.687 123.692 209.764 121.191 208.168 118.111C206.573 115.031 206.763 113.545 206.405 110.086C205.983 106.27 205.983 101.174 205.786 97.6938C205.786 97.0793 205.744 96.3646 205.744 95.6857C205.744 94.9506 205.511 94.235 205.079 93.6453C204.648 93.0556 204.04 92.6234 203.348 92.4127C203.348 92.4127 205.456 91.4193 206.812 91.6194C208.168 91.8195 209.251 92.9987 209.974 94.2135C213.832 100.681 212.153 110.164 219.51 114.223C221.942 115.487 224.715 115.902 227.402 115.403C233.424 114.402 238.034 110.4 242.475 106.455" fill="black"/>
</g>
<path d="M234.281 94.6494C232.438 94.6494 230.943 90.0804 230.943 84.4443C230.943 78.8082 232.438 74.2393 234.281 74.2393C236.125 74.2393 237.619 78.8082 237.619 84.4443C237.619 90.0804 236.125 94.6494 234.281 94.6494Z" fill="#FAFAFA"/>
<path d="M232.524 261.932L231.759 278.734C231.759 278.734 248.293 285.165 248.455 288.288L216.369 287.952L216.503 261.725L232.524 261.932Z" fill="#FF725E"/>
<g opacity="0.6">
<path d="M221.821 277.218C221.513 277.312 221.249 277.517 221.079 277.795C220.91 278.072 220.846 278.404 220.901 278.726C220.981 279.045 221.177 279.32 221.451 279.495C221.724 279.67 222.052 279.733 222.369 279.67C222.695 279.567 222.974 279.347 223.152 279.051C223.33 278.756 223.397 278.404 223.339 278.062C223.22 277.739 222.984 277.476 222.679 277.326C222.374 277.175 222.024 277.15 221.702 277.254" fill="white"/>
</g>
<path opacity="0.6" d="M216.362 287.953V285.337L247.184 286.623C247.184 286.623 248.589 287.266 248.434 288.288L216.362 287.953Z" fill="white"/>
<path d="M232.257 278.576C232.257 278.734 231.463 278.798 230.69 279.291C229.917 279.784 229.495 280.456 229.348 280.392C229.2 280.327 229.446 279.413 230.402 278.819C231.357 278.226 232.292 278.426 232.257 278.576Z" fill="#263238"/>
<path d="M235.602 280.027C235.637 280.184 234.956 280.449 234.422 281.113C233.888 281.778 233.719 282.493 233.564 282.485C233.41 282.478 233.318 281.571 234 280.756C234.682 279.941 235.602 279.877 235.602 280.027Z" fill="#263238"/>
<path d="M237.443 284.144C237.302 284.144 237.091 283.379 237.506 282.507C237.921 281.635 238.652 281.3 238.715 281.435C238.778 281.571 238.321 282.029 238.012 282.75C237.703 283.472 237.633 284.13 237.443 284.144Z" fill="#263238"/>
<path d="M232.012 274.725C231.942 274.875 231.225 274.646 230.339 274.725C229.454 274.803 228.765 275.054 228.681 274.918C228.597 274.782 229.271 274.203 230.318 274.167C231.365 274.132 232.089 274.611 232.012 274.725Z" fill="#263238"/>
<path opacity="0.3" d="M232.341 265.263L232.207 268.257L216.438 267.943L216.445 265.241L232.341 265.263Z" fill="black"/>
<path d="M232.104 271.337C231.577 271.485 231.021 271.485 230.494 271.337C229.918 271.224 229.356 271.041 228.822 270.794C228.504 270.646 228.197 270.476 227.901 270.287C227.726 270.18 227.565 270.05 227.423 269.901C227.324 269.785 227.265 269.639 227.253 269.486C227.242 269.333 227.279 269.18 227.36 269.05C227.44 268.938 227.546 268.846 227.669 268.784C227.791 268.722 227.926 268.691 228.063 268.693C228.268 268.691 228.472 268.722 228.667 268.786C229.009 268.87 229.341 268.99 229.658 269.143C230.2 269.394 230.698 269.732 231.134 270.144C231.872 270.858 232.118 271.452 232.061 271.487C232.005 271.523 231.633 271.03 230.881 270.444C230.448 270.108 229.976 269.827 229.475 269.608C229.176 269.486 228.868 269.386 228.555 269.308C228.218 269.215 227.922 269.215 227.852 269.365C227.782 269.515 227.852 269.443 227.887 269.551C227.989 269.662 228.108 269.756 228.239 269.829C228.51 270.014 228.792 270.184 229.082 270.337C229.577 270.591 230.095 270.8 230.628 270.958C231.128 271.05 231.621 271.176 232.104 271.337Z" fill="#263238"/>
<path d="M231.899 271.559C231.596 271.093 231.453 270.537 231.492 269.98C231.469 269.375 231.55 268.77 231.731 268.193C231.834 267.85 231.973 267.52 232.145 267.207C232.234 266.992 232.375 266.804 232.556 266.661C232.737 266.519 232.952 266.426 233.178 266.392C233.322 266.39 233.463 266.432 233.583 266.514C233.702 266.596 233.794 266.713 233.846 266.85C233.928 267.041 233.982 267.243 234.007 267.45C234.064 267.814 234.064 268.186 234.007 268.55C233.913 269.163 233.672 269.742 233.305 270.237C232.672 271.073 232.012 271.259 232.005 271.202C231.998 271.145 232.497 270.823 232.988 270.015C233.269 269.55 233.446 269.028 233.508 268.486C233.55 268.171 233.55 267.851 233.508 267.536C233.459 267.193 233.333 266.907 233.206 266.942C233.08 266.978 232.771 267.2 232.637 267.471C232.476 267.754 232.339 268.05 232.23 268.357C232.049 268.88 231.94 269.426 231.906 269.98C231.822 270.937 231.984 271.538 231.899 271.559Z" fill="#263238"/>
<path d="M201.408 251.742L188.436 262.169C188.436 262.169 194.501 279.084 192.287 281.25L171.501 256.394L191.064 239.293L201.408 251.742Z" fill="#FF725E"/>
<g opacity="0.6">
<path d="M183.068 253.564C182.796 253.386 182.47 253.317 182.151 253.368C181.832 253.419 181.543 253.588 181.339 253.843C181.156 254.112 181.081 254.443 181.129 254.767C181.177 255.091 181.345 255.384 181.599 255.586C181.888 255.769 182.233 255.839 182.569 255.782C182.905 255.726 183.21 255.547 183.426 255.279C183.591 254.977 183.634 254.622 183.546 254.289C183.458 253.955 183.246 253.67 182.955 253.493" fill="white"/>
</g>
<path opacity="0.6" d="M171.5 256.387L173.447 254.679L192.708 279.191C192.708 279.191 193.158 280.706 192.287 281.242L171.5 256.387Z" fill="white"/>
<path d="M188.899 262.461C188.773 262.562 188.196 261.997 187.325 261.747C186.454 261.497 185.674 261.597 185.631 261.447C185.589 261.297 186.426 260.875 187.487 261.218C188.548 261.561 189.026 262.39 188.899 262.461Z" fill="#263238"/>
<path d="M190.017 265.985C189.925 266.113 189.314 265.763 188.429 265.785C187.543 265.806 186.946 266.156 186.855 266.028C186.763 265.899 187.368 265.242 188.422 265.234C189.476 265.227 190.129 265.885 190.017 265.985Z" fill="#263238"/>
<path d="M188.19 270.115C188.071 270.029 188.528 269.343 189.441 269.093C190.355 268.843 191.085 269.179 191.029 269.315C190.973 269.45 190.326 269.407 189.582 269.629C188.837 269.851 188.303 270.229 188.19 270.115Z" fill="#263238"/>
<path d="M191.591 259.746C191.443 259.789 191.141 259.096 190.522 258.445C189.904 257.795 189.244 257.452 189.293 257.295C189.342 257.137 190.199 257.295 190.916 258.067C191.633 258.838 191.766 259.724 191.591 259.746Z" fill="#263238"/>
<path opacity="0.3" d="M198.836 253.793L196.524 255.658L186.419 243.345L188.429 241.58L198.836 253.793Z" fill="black"/>
<path d="M194.171 257.595C194.128 257.638 193.65 257.223 193.138 256.344C192.839 255.827 192.603 255.275 192.435 254.7C192.339 254.36 192.264 254.014 192.21 253.664C192.18 253.458 192.18 253.249 192.21 253.042C192.231 252.89 192.3 252.749 192.406 252.639C192.512 252.53 192.651 252.458 192.8 252.435C192.932 252.426 193.063 252.448 193.185 252.499C193.307 252.55 193.415 252.628 193.503 252.728C193.637 252.885 193.748 253.061 193.833 253.25C193.988 253.572 194.117 253.907 194.22 254.25C194.384 254.833 194.458 255.438 194.438 256.044C194.474 256.6 194.341 257.154 194.058 257.63C193.967 257.63 194.107 257.009 194.058 256.044C194.004 255.155 193.764 254.288 193.355 253.5C193.201 253.178 193.018 252.957 192.849 252.985C192.681 253.014 192.765 252.985 192.73 253.128C192.71 253.282 192.71 253.439 192.73 253.593C192.775 253.92 192.836 254.244 192.913 254.565C193.048 255.115 193.234 255.651 193.468 256.165C193.74 256.622 193.975 257.1 194.171 257.595Z" fill="#263238"/>
<path d="M193.875 257.587C193.826 257.587 194.051 256.944 194.782 256.236C195.217 255.822 195.719 255.486 196.265 255.243C196.59 255.099 196.929 254.989 197.276 254.914C197.494 254.843 197.726 254.829 197.95 254.876C198.174 254.922 198.383 255.026 198.555 255.179C198.646 255.291 198.703 255.428 198.72 255.572C198.737 255.716 198.714 255.862 198.654 255.993C198.563 256.18 198.447 256.354 198.309 256.508C198.072 256.786 197.795 257.027 197.487 257.223C196.971 257.548 196.385 257.742 195.78 257.787C194.74 257.844 194.17 257.466 194.206 257.416C194.713 257.452 195.223 257.452 195.73 257.416C196.261 257.325 196.767 257.12 197.213 256.815C197.475 256.637 197.712 256.423 197.916 256.179C198.141 255.915 198.267 255.636 198.162 255.557C198.047 255.489 197.92 255.446 197.788 255.431C197.656 255.416 197.522 255.43 197.396 255.472C197.082 255.533 196.774 255.622 196.475 255.736C195.973 255.942 195.5 256.216 195.07 256.551C194.283 257.115 193.946 257.637 193.875 257.587Z" fill="#263238"/>
<path d="M237.38 190.854C237.38 190.854 236.523 150.72 237.38 150.72C238.237 150.72 244.323 147.19 244.323 147.19L251.926 206.827C251.926 206.827 252.629 213.523 244.463 218.261C236.298 222.999 199.89 255.915 199.89 255.915L187.55 240.629C187.55 240.629 211.52 215.224 221.281 206.827C229.011 200.288 237.38 190.854 237.38 190.854Z" fill="#263238"/>
<path d="M215.055 181.5L214.219 175.147C214.219 175.147 208.217 162.284 207.36 156.809C206.503 151.335 207.065 139.472 207.065 139.472H244.977C244.977 139.472 244.815 183.001 240.24 195.214C240.24 195.214 237.921 218.583 237.577 220.541C236.874 224.7 234.323 267.25 234.323 267.25L215.209 266.535C215.209 266.535 213.551 227.416 214.879 216.31C215.533 210.808 215.842 204.948 215.99 200.102C216.17 193.886 215.857 187.665 215.055 181.5Z" fill="#263238"/>
<path d="M243.944 152.171C243.937 152.233 243.937 152.295 243.944 152.357C243.944 152.507 243.944 152.693 243.909 152.922C243.909 153.443 243.853 154.172 243.811 155.066C243.741 156.945 243.6 159.668 243.41 163.027C243.031 169.744 242.321 179.013 241.302 189.225C240.283 199.438 239.138 208.664 238.33 215.346C237.929 218.662 237.627 221.356 237.381 223.257C237.276 224.171 237.191 224.886 237.135 225.401C237.135 225.629 237.093 225.815 237.079 225.965C237.065 226.115 237.079 226.158 237.079 226.158C237.102 226.098 237.118 226.036 237.128 225.972L237.212 225.415L237.529 223.271C237.782 221.377 238.147 218.683 238.597 215.374C239.468 208.699 240.628 199.473 241.675 189.254C242.722 179.035 243.382 169.759 243.698 163.034C243.86 159.668 243.951 156.945 243.98 155.066C243.98 154.144 243.98 153.422 244.015 152.922V152.364C243.998 152.298 243.974 152.233 243.944 152.171Z" fill="#455A64"/>
<path d="M216.025 203.689C215.971 203.896 215.934 204.106 215.913 204.318C215.857 204.761 215.772 205.369 215.667 206.134C215.477 207.72 215.238 210.014 215.02 212.851C214.571 218.533 214.233 226.429 214.107 235.091C213.98 243.752 214.107 251.663 214.444 257.352C214.585 260.21 214.768 262.497 214.915 264.084C214.999 264.848 215.07 265.456 215.119 265.906C215.134 266.12 215.164 266.333 215.21 266.542C215.229 266.328 215.229 266.113 215.21 265.899C215.175 265.449 215.133 264.841 215.077 264.069C214.971 262.483 214.831 260.182 214.718 257.338C214.486 251.656 214.388 243.759 214.493 235.098C214.599 226.436 214.915 218.547 215.302 212.873C215.484 210.014 215.681 207.734 215.829 206.148C215.906 205.383 215.969 204.776 216.011 204.325C216.033 204.114 216.038 203.901 216.025 203.689Z" fill="#455A64"/>
<path d="M208.569 58.5312C208.569 58.5312 202.364 60.2107 201.043 69.6153C199.722 79.02 202.167 81.7071 202.167 81.7071C202.167 81.7071 201.162 64.1983 208.871 61.8114L208.569 58.8743" fill="#263238"/>
<path d="M250.844 89.2464L282.874 88.6104L282.502 90.1897L250.999 90.6614L250.844 89.2464Z" fill="#263238"/>
<path d="M212.005 61.4823C213.207 61.1842 214.471 61.2972 215.603 61.8039C218.196 62.9116 222.947 66.0918 223.284 75.1248L223.832 89.6821L203.348 92.412C203.348 92.412 201.605 64.298 212.005 61.4823Z" fill="#F9F9F9"/>
<path d="M249.707 92.3277L223.706 100.274L223.32 89.6406L207.762 91.9418L208.633 109.236C208.721 111.704 209.605 114.074 211.148 115.981C212.69 117.889 214.807 119.227 217.171 119.791C219.89 120.438 222.748 120.017 225.175 118.612L252.771 102.654L249.707 92.3277Z" fill="#FFBE9D"/>
<path d="M203.347 92.4132C203.347 92.4132 203.347 92.3203 203.347 92.1631C203.347 92.0059 203.347 91.7486 203.382 91.4485C203.382 90.8124 203.432 89.9191 203.474 88.7757C203.544 86.4531 203.65 83.1372 203.776 79.0423C203.839 76.9984 203.903 74.7545 203.966 72.3533C203.966 71.753 204.001 71.1384 204.022 70.5166C204.022 70.2165 204.078 69.9092 204.113 69.5947C204.148 69.2803 204.219 68.9802 204.303 68.6729C204.821 66.6794 205.952 64.9066 207.531 63.6132C209.11 62.3198 211.054 61.5736 213.08 61.4836C214.535 61.4693 215.963 61.8838 217.191 62.677C218.459 63.499 219.542 64.5854 220.367 65.8643C221.546 67.7035 222.342 69.7682 222.707 71.9316C223.066 74.0051 223.28 76.1019 223.347 78.2062C223.459 82.3082 223.565 86.1673 223.663 89.6762L223.796 89.5118L208.99 91.5699L204.83 92.1631L203.713 92.3775L204.788 92.256L208.927 91.7415L223.86 89.8405H223.993V89.6976C223.909 86.1816 223.846 82.3296 223.712 78.2205C223.656 76.0972 223.447 73.981 223.087 71.8887C222.715 69.6758 221.899 67.5644 220.69 65.6857C219.837 64.3623 218.716 63.2391 217.402 62.3912C216.115 61.559 214.618 61.1268 213.094 61.1477C211.666 61.2095 210.269 61.5883 209.001 62.2574C207.732 62.9265 206.623 63.8698 205.751 65.021C204.935 66.0781 204.342 67.2943 204.008 68.5943C203.931 68.9087 203.881 69.2303 203.818 69.5519C203.755 69.8735 203.755 70.1879 203.727 70.5095C203.727 71.1312 203.727 71.753 203.685 72.3604C203.635 74.7902 203.593 77.0556 203.551 79.1209C203.481 83.2229 203.425 86.546 203.382 88.8686C203.382 89.9906 203.382 90.8768 203.347 91.4985V92.2131C203.341 92.2797 203.341 92.3467 203.347 92.4132Z" fill="#263238"/>
<path d="M249.179 92.6411L255.419 87.9459C256.557 87.0884 258.328 87.2313 259.741 87.1384C262.552 86.8811 267.14 88.5677 267.316 88.8964L265.433 90.4258L277.562 90.047C277.145 90.8864 276.513 91.5955 275.733 92.0988C274.952 92.6022 274.051 92.881 273.127 92.9056C273.127 92.9056 272.741 95.6927 269.22 96.2215C269.22 96.2215 268.307 98.4798 266.346 99.1372C266.346 99.1372 265.96 101.66 262.833 101.524L252.2 102.732L249.179 92.6411Z" fill="#FFBE9D"/>
<path d="M265.552 93.3416C266.832 93.4549 268.119 93.4406 269.396 93.2987C270.678 93.2897 271.957 93.1508 273.212 92.8842C271.934 92.7792 270.65 92.7936 269.375 92.9271C268.091 92.9456 266.811 93.0844 265.552 93.3416Z" fill="#EB996E"/>
<path d="M262.474 96.3147C263.584 96.4981 264.71 96.5604 265.833 96.5005C266.956 96.5604 268.082 96.4981 269.192 96.3147C268.083 96.1271 266.956 96.0648 265.833 96.1289C264.71 96.0648 263.584 96.1271 262.474 96.3147Z" fill="#EB996E"/>
<path d="M259.179 99.1161C260.288 99.3038 261.415 99.3661 262.538 99.302C263.658 99.3663 264.783 99.304 265.89 99.1161C264.782 98.9326 263.658 98.8703 262.538 98.9303C261.415 98.8705 260.289 98.9327 259.179 99.1161Z" fill="#EB996E"/>
<path d="M221.984 105.669C222.497 104.87 222.885 103.995 223.136 103.075C223.513 102.199 223.75 101.268 223.839 100.316C223.41 101.157 223.069 102.041 222.82 102.953C222.447 103.826 222.167 104.736 221.984 105.669Z" fill="#EB996E"/>
<path d="M220.136 104.641C220.858 103.96 221.514 103.211 222.096 102.404C222.773 101.68 223.378 100.89 223.902 100.045C223.096 100.646 222.385 101.369 221.794 102.189C221.127 102.92 220.568 103.745 220.136 104.641Z" fill="#EB996E"/>
</svg>
